<?xml version="1.0" standalone="no"?>
<!DOCTYPE svg PUBLIC "-//W3C//DTD SVG 1.1//EN" "http://www.w3.org/Graphics/SVG/1.1/DTD/svg11.dtd" >
<svg xmlns="http://www.w3.org/2000/svg">
<metadata>
Created by FontPrep 20130207 at Fri Dec  4 11:35:26 2015
 By Callum Flack
(c) Copyright 1989-1992, Bitstream Inc., Cambridge, MA. You are hereby granted permission under all Bitstream propriety rights to use, copy, modify, sublicense, sell, and redistribute the 4 Bitstream Charter (r) Type 1 outline fonts and the 4 Courier Type 1 outline fonts for any purpose and without restriction; provided, that this notice is left intact on all copies of such fonts and that Bitstream's trademark is acknowledged as shown below on all unmodified copies of the 4 Charter Type 1 fonts: "BITSTREAM CHARTER is a registered trademark of Bitstream Inc."
</metadata>
<defs>
<font id="0a4f27bc589d2b59e982880b4ed642ef" horiz-adv-x='1024' >
  <font-face 
    font-family="Charter-Bold"
    font-weight="700"
    font-stretch="normal"
    units-per-em="2048"
    panose-1="2 0 8 3 7 0 0 2 0 4"
    ascent="1561"
    descent="-487"
    x-height="995"
    cap-height="1374"
    bbox="-340 -483 2584 1972"
    underline-thickness="172"
    underline-position="-225"
    unicode-range="U+0020-FB02"
  />
<missing-glyph horiz-adv-x="595" 
 />
    <glyph glyph-name=".notdef" horiz-adv-x="595" 
 />
    <glyph glyph-name=".null" horiz-adv-x="0" 
 />
    <glyph glyph-name="nonmarkingreturn" horiz-adv-x="681" 
 />
    <glyph glyph-name="space" unicode=" " horiz-adv-x="595" 
 />
    <glyph glyph-name="exclam" unicode="!" horiz-adv-x="696" 
d="M193 1239q0 78 40 120q41 42 115 42t115 -44t41 -124q0 -39 -8 -96l-93 -731h-108l-92 727q-10 82 -10 106zM348 297q62 0 108 -46q46 -47 46 -111t-45 -109t-107 -45t-109 45q-46 45 -46 109t45 111q45 46 108 46z" />
    <glyph glyph-name="quotedbl" unicode="&#x22;" horiz-adv-x="694" 
d="M420 1367q0 38 25 67q26 28 71 28t71 -28t25 -78q0 -12 -4 -41l-73 -459h-39l-74 459q-2 14 -2 52zM84 1354q0 109 94 108q96 0 96 -108q0 -27 -2 -39l-73 -459h-39l-74 459q-2 14 -2 39z" />
    <glyph glyph-name="numbersign" unicode="#" horiz-adv-x="1507" 
d="M662 852l-91 -277h265l94 277h-268zM1382 979v-127h-315l-90 -277h321v-122h-364l-160 -500l-131 33l154 467h-267l-163 -502l-129 37l157 465h-280v122h319l90 277h-309v127h350l160 475l129 -37l-152 -438h273l155 473l130 -37l-152 -436h274z" />
    <glyph glyph-name="dollar" unicode="$" horiz-adv-x="1189" 
d="M659 559v-430q87 13 139 73t52 146q-1 160 -191 211zM383 1044q0 -152 172 -202v401q-82 -16 -127 -68t-45 -131zM555 1520h109v-150q162 -2 360 -57v-338h-133l-37 229q-61 37 -190 47v-438q221 -57 324 -153q104 -96 104 -250q0 -156 -116 -268t-319 -140v-211h-112
v211q-248 8 -420 61v355h137l41 -242q100 -51 242 -55v467q-207 53 -304 148t-97 248t107 255q108 102 304 129v152z" />
    <glyph glyph-name="percent" unicode="%" horiz-adv-x="1818" 
d="M1421 743q-141 1 -141 -337t141 -338t141 338t-141 337zM1425 -25q-157 0 -249 114t-92 316q0 201 91 315q92 114 249 114t250 -115t93 -315t-92 -314q-92 -115 -250 -115zM412 1307q-142 0 -142 -337t142 -337t141 337q0 337 -141 337zM1272 1374h143l-856 -1374h-143z
M416 1399q156 0 249 -115q93 -114 93 -314t-92 -316t-250 -116t-249 116q-91 114 -91 316t92 316t248 113z" />
    <glyph glyph-name="ampersand" unicode="&#x26;" horiz-adv-x="1517" 
d="M661 141q126 0 226 88l-410 435q-111 -86 -111 -216t85 -218q84 -88 210 -89zM1028 780h428v-94l-143 -27q-68 -201 -187 -342l187 -204l170 -15v-98h-430v49l-86 98q-197 -172 -428 -172q-188 0 -310 115q-121 115 -120 289q0 260 284 352q-186 150 -186 313t119 260
t305 97t294 -89t107 -227q0 -246 -305 -346l322 -338q84 109 112 232l-24 35l-109 18v94zM626 1284q-75 0 -122 -48t-47 -121t47 -143t145 -161q145 111 146 256q0 101 -47 159t-122 58z" />
    <glyph glyph-name="quotesingle" unicode="'" horiz-adv-x="358" 
d="M84 1354q0 109 94 108q96 0 96 -108q0 -27 -2 -39l-73 -459h-39l-74 459q-2 14 -2 39z" />
    <glyph glyph-name="parenleft" unicode="(" horiz-adv-x="876" 
d="M428 582q0 -727 363 -768v-105q-285 11 -445 239t-160 640t158 641t447 241v-104q-191 -27 -277 -218t-86 -566z" />
    <glyph glyph-name="parenright" unicode=")" horiz-adv-x="876" 
d="M674 590q0 -410 -159 -639t-439 -242v105q188 25 275 215t87 562t-88 563t-274 212v104q282 -14 440 -242t158 -638z" />
    <glyph glyph-name="asterisk" unicode="*" 
d="M256 1223l219 -156l-10 -29l-268 2l-88 129zM477 1010l25 -21l-84 -254l-152 -43l-4 158zM545 1008l215 -158l-6 -158l-152 43l-84 256zM766 1225l147 -56l-88 -131l-266 -2l-10 33zM512 1470l96 -124l-80 -256h-34l-80 256z" />
    <glyph glyph-name="plus" unicode="+" horiz-adv-x="1705" 
d="M938 1221v-527h514v-166h-514v-528h-170v528h-514v166h514v527h170z" />
    <glyph glyph-name="comma" unicode="," horiz-adv-x="591" 
d="M291 14h-127q-43 46 -43 110t39 102q40 38 114 38t125 -58t52 -159q0 -157 -107 -271t-281 -134v94q227 41 228 258v20z" />
    <glyph glyph-name="hyphen" unicode="-" horiz-adv-x="667" 
d="M74 594h520v-201h-520v201z" />
    <glyph glyph-name="period" unicode="." horiz-adv-x="591" 
d="M296 309q67 0 115 -48t48 -116q0 -69 -48 -115t-115 -46t-114 47t-47 115t47 116q47 47 114 47z" />
    <glyph glyph-name="slash" unicode="/" horiz-adv-x="1005" 
d="M811 1374h154l-867 -1564h-153z" />
    <glyph glyph-name="zero" unicode="0" horiz-adv-x="1189" 
d="M602 1284q-242 0 -242 -596t242 -596t242 596t-242 596zM600 1399q240 1 381 -189t141 -524t-141 -522t-381 -188t-379 186q-139 188 -139 524t139 524t379 189z" />
    <glyph glyph-name="one" unicode="1" horiz-adv-x="1189" 
d="M799 1395v-1252l22 -32l193 -9v-102h-711v102l205 13l24 37v1007l-18 25l-291 -43v104l443 150h133z" />
    <glyph glyph-name="two" unicode="2" horiz-adv-x="1189" 
d="M1090 389v-389h-992v162q352 274 509 456t157 363q0 135 -68 211t-184 76q-57 0 -119 -25v-264q-69 -37 -133 -37t-104 39t-39 104q0 131 133 223t343 91q210 0 332 -110t122 -293t-164 -361t-529 -426h574l37 180h125z" />
    <glyph glyph-name="three" unicode="3" horiz-adv-x="1189" 
d="M1071 395q0 -178 -157 -298t-414 -120q-182 0 -298 76t-116 180q0 59 40 97t88 37q48 0 97 -17l66 -221q80 -31 141 -31q117 0 196 82t79 199t-77 187t-206 69q-57 0 -127 -10v147q20 -2 59 -2q143 0 223 67q79 67 79 181t-72 180q-70 68 -183 68q-53 0 -114 -25v-240
q-45 -29 -110 -29t-105 41q-40 40 -41 101q0 115 127 199q126 84 328 84q202 1 324 -97t122 -249q0 -250 -336 -328q186 -14 286 -100t101 -228z" />
    <glyph glyph-name="four" unicode="4" horiz-adv-x="1189" 
d="M688 532v572l-450 -572h450zM928 1386v-854h231v-161h-231v-434h-240v434h-637v166l676 849h201z" />
    <glyph glyph-name="five" unicode="5" horiz-adv-x="1189" 
d="M197 1374h804v-213h-639v-346q133 45 248 45q213 0 339 -110t126 -306q0 -194 -161 -328t-420 -134q-172 0 -277 70q-104 71 -104 175q0 53 43 91t110 38q25 0 76 -14l70 -231q41 -10 96 -11q125 0 210 85t85 217t-95 212t-241 80t-270 -28v708z" />
    <glyph glyph-name="six" unicode="6" horiz-adv-x="1189" 
d="M633 100q102 0 166 90q63 90 63 244t-74 241t-196 87t-221 -51l-4 -123q-1 -240 69 -364t197 -124zM1133 464q1 -208 -147 -349t-381 -141t-371 164q-138 165 -138 454q0 392 235 630t630 240v-151l-87 8q-204 -16 -328 -142t-163 -356q158 105 332 105t296 -127
t122 -335z" />
    <glyph glyph-name="seven" unicode="7" horiz-adv-x="1189" 
d="M156 1374h981v-133l-664 -1253v-58h-219l659 1217h-591l-31 -191h-135v418z" />
    <glyph glyph-name="eight" unicode="8" horiz-adv-x="1189" 
d="M328 394q0 -134 78 -217t192 -83t180 60t66 164q0 102 -89 172t-300 153q-127 -115 -127 -249zM1104 373q0 -180 -139 -292t-373 -112t-370 113t-136 285q0 244 276 325q-217 98 -217 320q0 176 129 284q130 108 336 107q206 0 322 -100t117 -256q0 -214 -242 -318
q297 -106 297 -356zM817 1028q0 112 -60 182q-59 70 -151 70t-147 -58t-55 -150t73 -163q74 -70 234 -133q106 100 106 252z" />
    <glyph glyph-name="nine" unicode="9" horiz-adv-x="1189" 
d="M504 457q-180 0 -299 124q-119 125 -119 333t146 346t382 139q236 -1 370 -147t134 -394q0 -322 -224 -580t-630 -387l-55 136l92 16q389 178 500 494q-154 -80 -297 -80zM601 1278q-109 0 -176 -91t-67 -248t77 -242t216 -85q86 0 178 45q20 106 21 201q0 200 -70 310
t-179 110z" />
    <glyph glyph-name="colon" unicode=":" horiz-adv-x="696" 
d="M354 309q66 0 113 -47t47 -116q0 -70 -47 -116t-113 -46t-112 47t-47 115q1 68 47 116q46 47 112 47zM354 999q66 0 113 -47q47 -46 47 -114t-47 -115t-113 -47t-112 47t-47 115q1 68 47 114t112 47z" />
    <glyph glyph-name="semicolon" unicode=";" horiz-adv-x="696" 
d="M360 -2v16h-122q-43 46 -43 110t37 102q38 38 113 38t125 -58t50 -159q0 -157 -104 -271t-277 -134v94q221 41 221 262zM354 999q66 0 113 -47q47 -46 47 -114t-47 -115t-113 -47t-112 47t-47 115q1 68 47 114t112 47z" />
    <glyph glyph-name="less" unicode="&#x3c;" horiz-adv-x="1705" 
d="M1442 991l-934 -381l934 -381v-182l-1178 483v160l1178 486v-185z" />
    <glyph glyph-name="equal" unicode="=" horiz-adv-x="1705" 
d="M1452 487v-165h-1198v165h1198zM1452 901v-168h-1198v168h1198z" />
    <glyph glyph-name="greater" unicode="&#x3e;" horiz-adv-x="1705" 
d="M1442 690v-160l-1178 -483v182l934 381l-934 381v185z" />
    <glyph glyph-name="question" unicode="?" horiz-adv-x="997" 
d="M250 141q0 65 44 111t108 45q64 0 110 -46q45 -47 45 -111t-46 -109q-47 -45 -109 -45t-107 45t-45 110zM465 395h-133v277q297 102 297 350q0 122 -71 190t-196 68h-6l-92 -231q-14 -2 -41 -2q-71 -1 -111 33t-40 94q0 94 99 160t285 65t313 -105q126 -104 126 -272
q0 -301 -430 -440v-187z" />
    <glyph glyph-name="at" unicode="@" horiz-adv-x="1878" 
d="M1270 321q0 -39 19 -59t50 -20q90 0 170 104q133 168 133 416t-156 402t-415 153q-307 0 -518 -201q-244 -230 -244 -574t194 -544t509 -199q264 0 520 150l37 -82q-317 -180 -611 -180q-342 0 -573 225t-231 590q0 414 290 682q252 233 627 233q305 0 491 -180t185 -473
q0 -231 -111 -404q-74 -114 -182 -182t-207 -67q-162 -1 -162 163q-153 -158 -275 -158t-194 90q-72 89 -71 238q0 201 112 351q75 100 177 155q203 109 407 2l35 47h139q-16 -43 -55 -213l-74 -348q-16 -78 -16 -117zM1053 909q-123 0 -209 -123t-86 -309q0 -217 147 -217
q92 0 187 129l73 408l-73 108q-25 4 -39 4z" />
    <glyph glyph-name="A" unicode="A" horiz-adv-x="1333" 
d="M608 1108l-178 -506h361zM1370 0h-553v100l129 13l15 26l-123 348h-447l-123 -346l21 -26l129 -15v-100h-441v100l123 19l463 1270h215l471 -1268l121 -21v-100z" />
    <glyph glyph-name="B" unicode="B" horiz-adv-x="1286" 
d="M578 113q180 -1 262 65t82 211q0 260 -308 260q-78 0 -135 -4v-528q70 -4 99 -4zM535 762q159 0 235 64t76 202q0 236 -285 236q-25 0 -82 -4v-496q18 -2 56 -2zM59 1374h615q455 0 454 -321q0 -244 -292 -322q178 -2 275 -90t97 -240q0 -195 -132 -298t-384 -103h-633
v100l121 11l33 32v1092l-33 29l-121 10v100z" />
    <glyph glyph-name="C" unicode="C" horiz-adv-x="1306" 
d="M802 -25q-222 1 -380 95t-248 257t-90 359q0 322 213 524q195 188 516 189q207 0 418 -76v-342h-152l-39 219l-28 35q-84 31 -162 31q-213 0 -339 -154t-126 -426t131 -427t361 -155q51 0 124 19l31 31l51 247h148v-352q-207 -74 -429 -74z" />
    <glyph glyph-name="D" unicode="D" horiz-adv-x="1466" 
d="M487 1260v-1145h119q484 0 484 572t-484 573h-119zM657 1374q353 0 545 -181t193 -507q0 -365 -252 -557q-166 -129 -486 -129h-598v100l125 11l33 32v1088l-33 33l-125 10v100h598z" />
    <glyph glyph-name="E" unicode="E" horiz-adv-x="1220" 
d="M59 0v100l125 11l33 32v1092l-33 29l-125 10v100h1033v-321h-144l-30 180l-27 27h-408v-488h267l28 29l21 147h121v-475h-121l-21 148l-28 28h-267v-532h475l27 33l35 217h139v-367h-1100z" />
    <glyph glyph-name="F" unicode="F" horiz-adv-x="1130" 
d="M61 0v100l123 11l33 32v1092l-33 29l-131 10v100h1028v-344h-141l-31 199l-26 26h-396v-510h275l29 27l20 150h121v-478h-121l-20 150l-29 27h-275v-478l35 -32l144 -11v-100h-605z" />
    <glyph glyph-name="G" unicode="G" horiz-adv-x="1454" 
d="M815 676h598v-101l-119 -10l-32 -28v-478q-240 -84 -459 -84q-321 0 -521 201t-200 518t204 510t543 193q205 0 433 -68v-348h-150l-39 217l-31 37q-80 33 -170 33q-229 0 -361 -152t-132 -423t135 -426t373 -154q33 0 112 6v418l-32 28l-152 10v101z" />
    <glyph glyph-name="H" unicode="H" horiz-adv-x="1556" 
d="M61 1374h580v-100l-123 -10l-33 -33v-449h592v449l-30 33l-123 10v100h577v-100l-119 -10l-32 -33v-1088l32 -32l119 -11v-100h-577v100l123 11l30 32v516h-592v-516l33 -32l123 -11v-100h-580v100l119 11l33 32v1088l-33 33l-119 10v100z" />
    <glyph glyph-name="I" unicode="I" horiz-adv-x="724" 
d="M61 0v100l136 11l32 32v1092l-32 29l-136 10v100h613v-100l-137 -10l-33 -29v-1092l33 -32l137 -11v-100h-613z" />
    <glyph glyph-name="J" unicode="J" horiz-adv-x="952" 
d="M524 535v700l-32 29l-144 10v100h602v-100l-125 -10l-32 -29v-698q0 -289 -114 -425t-362 -137q-141 0 -292 50v368h149l47 -270l29 -27l33 -2q135 0 188 104t53 337z" />
    <glyph glyph-name="K" unicode="K" horiz-adv-x="1331" 
d="M61 0v100l125 11l31 32v1092l-31 29l-125 10v100h582v-100l-121 -10l-33 -29v-537h58l444 539l-12 27l-115 10v100h461v-100l-143 -14l-389 -465l436 -682l147 -13v-100h-424v72l-344 530h-119v-459l33 -32l121 -11v-100h-582z" />
    <glyph glyph-name="L" unicode="L" horiz-adv-x="1112" 
d="M55 0v100l125 11l35 32v1092l-29 29l-131 10v100h590v-100l-125 -10l-33 -29v-1116h394l26 33l31 249h152v-401h-1035z" />
    <glyph glyph-name="M" unicode="M" horiz-adv-x="1808" 
d="M51 0v100l131 15l29 37v1085l-25 27l-135 12v98h537v-57l319 -940l318 938v59h542v-98l-139 -12l-22 -29v-1092l22 -32l139 -11v-100h-567v100l127 11l21 32v1100l-426 -1243h-148l-416 1233v-1081l31 -37l127 -15v-100h-465z" />
    <glyph glyph-name="N" unicode="N" horiz-adv-x="1488" 
d="M53 0v98l121 17l37 37v1083l-29 29l-131 10v100h471v-55l627 -973v877l-37 39l-125 16v96h467v-96l-121 -16l-35 -39v-1223h-229l-709 1100v-948l33 -37l127 -17v-98h-467z" />
    <glyph glyph-name="O" unicode="O" horiz-adv-x="1540" 
d="M776 1274q-172 0 -280 -157t-107 -430q0 -273 109 -434q108 -161 278 -161t278 158t108 432t-108 432q-106 160 -278 160zM788 -33q-316 -1 -510 199t-194 533t202 519t476 187q274 0 463 -160q243 -209 243 -552t-219 -546q-193 -180 -461 -180z" />
    <glyph glyph-name="P" unicode="P" horiz-adv-x="1202" 
d="M561 625q319 0 320 327q0 144 -74 224t-213 79h-107v-626q53 -4 74 -4zM59 0v100l121 11l37 32v1092l-31 29l-135 10v100h553q289 0 424 -97t135 -313t-140 -337t-396 -121q-47 0 -140 6v-369l31 -32l146 -11v-100h-605z" />
    <glyph glyph-name="Q" unicode="Q" horiz-adv-x="1540" 
d="M772 1274q-172 0 -278 -156t-105 -426q0 -270 112 -430q111 -160 281 -160t276 157q105 157 105 428t-109 429q-110 158 -282 158zM1057 -365q-213 0 -315 84q-101 84 -101 263v6q-256 41 -409 230t-152 470q0 236 119 424q89 137 239 216t328 79q276 0 459 -158
q250 -215 250 -569q-1 -268 -149 -454t-396 -230q4 -123 72 -180q68 -58 180 -58t213 25v-105q-197 -43 -338 -43z" />
    <glyph glyph-name="R" unicode="R" horiz-adv-x="1374" 
d="M557 721q324 0 324 267q0 134 -78 202t-225 67h-95v-534q27 -2 74 -2zM63 1374h623q238 0 360 -89t121 -261q0 -285 -352 -350q147 -35 215 -127q44 -62 75 -166q31 -105 44 -137q31 -84 84 -114t158 -30h26v-98q-115 -16 -227 -16q-149 0 -238 107q-43 51 -58 86
q-32 72 -52 143q-50 160 -114 221t-210 61h-35v-461l33 -32l125 -11v-100h-578v100l121 11l33 32v1092l-33 29l-121 10v100z" />
    <glyph glyph-name="S" unicode="S" horiz-adv-x="1163" 
d="M121 416h155l33 -246l27 -31q90 -29 196 -29t178 55q70 54 70 137t-53 143t-166 118q-190 84 -268 152q-143 121 -143 287t133 282q133 115 335 115t400 -70v-332h-148l-34 213l-29 29q-57 29 -159 29t-168 -54t-64 -132q0 -77 40 -128t126 -102q23 -14 123 -58t169 -89
q184 -117 184 -305t-146 -306q-148 -117 -374 -117t-417 68v371z" />
    <glyph glyph-name="T" unicode="T" horiz-adv-x="1234" 
d="M33 1374h1181v-362h-141l-35 219l-30 26h-246v-1114l35 -32l133 -11v-100h-613v100l134 11l34 32v1114h-245l-33 -26l-33 -219h-141v362z" />
    <glyph glyph-name="U" unicode="U" horiz-adv-x="1443" 
d="M41 1374h588v-100l-127 -10l-29 -29v-717q0 -201 76 -291t251 -90t247 95t71 305v690l-31 35l-131 12v100h465v-100l-125 -12l-28 -35v-711q0 -283 -127 -412t-423 -129t-429 168q-55 72 -73 160q-17 88 -17 223v709l-29 29l-129 10v100z" />
    <glyph glyph-name="V" unicode="V" horiz-adv-x="1300" 
d="M-43 1374h563v-100l-119 -10l-22 -31l340 -934l330 934l-23 31l-123 10v100h449v-100l-133 -27l-455 -1251h-207l-465 1253l-135 25v100z" />
    <glyph glyph-name="W" unicode="W" horiz-adv-x="1937" 
d="M4 1374h537v-98l-127 -14l-17 -29l230 -850l295 991h206l304 -1014l215 861l-25 28l-135 25v100h446v-100l-129 -29l-313 -1245h-199l-317 1049l-311 -1049h-199l-332 1245l-129 29v100z" />
    <glyph glyph-name="X" unicode="X" horiz-adv-x="1304" 
d="M29 1374h579v-98l-123 -10l-16 -27l233 -381l267 375l-19 29l-112 14v98h458v-98l-127 -16l-381 -517l394 -618l137 -27v-98h-594v98l129 17l14 26l-250 410l-290 -406l12 -34l133 -13v-98h-473v98l131 21l399 547l-372 589l-129 21v98z" />
    <glyph glyph-name="Y" unicode="Y" horiz-adv-x="1249" 
d="M-23 1374h560v-100l-115 -10l-19 -25l281 -520l293 502l-16 32l-123 23v98h446v-100l-121 -23l-389 -661v-449l33 -28l139 -11v-102h-614v102l137 11l33 28v400l-393 712l-132 21v100z" />
    <glyph glyph-name="Z" unicode="Z" horiz-adv-x="1212" 
d="M127 1374h987v-112l-717 -1141h525l20 29l37 247h147v-397h-1036v113l717 1142h-463l-39 -24l-33 -219h-145v362z" />
    <glyph glyph-name="bracketleft" unicode="[" horiz-adv-x="907" 
d="M279 1450h550v-115h-315v-1493h315v-112h-550v1720z" />
    <glyph glyph-name="backslash" unicode="\" horiz-adv-x="1005" 
d="M-14 1374h153l856 -1564h-153z" />
    <glyph glyph-name="bracketright" unicode="]" horiz-adv-x="907" 
d="M86 1450h553v-1720h-553v112h315v1495h-315v113z" />
    <glyph glyph-name="asciicircum" unicode="^" horiz-adv-x="2048" 
d="M1130 1462l502 -565h-104l-506 397l-506 -397h-104l503 565h215z" />
    <glyph glyph-name="underscore" unicode="_" 
d="M1024 -311v-172h-1024v172h1024z" />
    <glyph glyph-name="grave" unicode="`" 
d="M176 1520h254l199 -390h-140z" />
    <glyph glyph-name="a" unicode="a" horiz-adv-x="1114" 
d="M352 305q0 -84 41 -125q90 -90 309 21v334q-190 -43 -270 -95t-80 -135zM366 -18q-136 0 -210 74t-74 192q0 164 132 238t491 153v61q1 111 -47 162t-148 51q-43 0 -98 -12v-192h-189q-94 0 -94 75q0 92 126 165q125 73 329 73t289 -82t85 -281v-530l27 -29l109 -10v-90
h-365l-27 117q-201 -135 -336 -135z" />
    <glyph glyph-name="b" unicode="b" horiz-adv-x="1181" 
d="M485 109q186 0 274 96q87 95 87 283t-78 280t-219 92q-51 0 -129 -16v-733q23 -2 65 -2zM420 1513v-585q166 92 297 92q176 0 290 -129t113 -336q0 -362 -323 -508q-113 -49 -348 -49h-56l-227 4v1335h-148v80l304 96h98z" />
    <glyph glyph-name="c" unicode="c" horiz-adv-x="974" 
d="M72 492q0 228 148 376t380 150q154 0 246 -64t92 -159q0 -61 -41 -101t-107 -39q-66 0 -120 39v217q-31 6 -52 7q-112 0 -190 -106t-78 -281q0 -177 86 -281t224 -104t290 92v-146q-200 -108 -404 -108t-339 140t-135 368z" />
    <glyph glyph-name="d" unicode="d" horiz-adv-x="1220" 
d="M350 522q0 -176 73 -271t202 -95q68 0 172 39v684q-88 31 -152 30q-133 0 -214 -105q-81 -106 -81 -282zM797 1335h-150v82l305 96h95v-1382l28 -33l105 -8v-90h-383v115q-180 -133 -324 -133q-174 0 -286 137q-111 137 -111 369t146 384t382 152q88 0 193 -20v331z" />
    <glyph glyph-name="e" unicode="e" horiz-adv-x="1073" 
d="M739 653q0 261 -182 259q-90 0 -147 -76q-57 -74 -62 -205h391v22zM76 496q0 232 142 380t354 148t324 -121t112 -342v-39h-670v-6q0 -176 88 -275t246 -99t334 112v-152q-207 -120 -430 -120t-362 141q-138 141 -138 373z" />
    <glyph glyph-name="f" unicode="f" horiz-adv-x="698" 
d="M63 0v94l103 10l29 33v711h-134v78l134 61q0 295 208 449q113 86 248 86q89 0 141 -41t52 -109q0 -86 -119 -127l-199 176q-80 -82 -80 -311v-139h275v-123h-275v-713l33 -31l137 -10v-94h-553z" />
    <glyph glyph-name="g" unicode="g" horiz-adv-x="1128" 
d="M801 -148q0 76 -51 108q-51 30 -170 50l-174 29q-86 -72 -86 -163t67 -151q67 -61 173 -61t174 56t67 132zM709 684q0 112 -46 174q-46 64 -120 64t-121 -64t-47 -176q0 -114 46 -180t121 -66t121 68t46 180zM1137 958v-116h-222q45 -78 46 -158q0 -150 -118 -245
t-317 -95q-39 0 -59 2q-16 -43 -16 -72t6 -59l139 -18q238 -35 343 -95t105 -184q0 -150 -154 -256t-376 -106q-221 0 -333 76t-111 204q0 96 56 156t155 69q-27 55 -27 103q0 94 113 194q-123 35 -189 115t-65 193q0 158 117 255q118 97 321 97q138 -1 283 -60h303z" />
    <glyph glyph-name="h" unicode="h" horiz-adv-x="1222" 
d="M434 1513v-618q231 125 350 125q281 0 281 -340v-549l27 -31l108 -8v-92h-502v92l88 8l29 31v490q0 219 -175 221q-85 0 -206 -35v-676l31 -31l90 -8v-92h-506v92l105 8l28 31v1206h-149v80l303 96h98z" />
    <glyph glyph-name="i" unicode="i" horiz-adv-x="624" 
d="M453 1016v-885l30 -31l115 -8v-92h-537v92l111 8l29 31v707h-135v82l288 96h99zM334 1483q66 0 108 -43t43 -109q0 -65 -43 -109t-107 -44t-108 43q-43 43 -43 109t42 109q42 44 108 44z" />
    <glyph glyph-name="j" unicode="j" horiz-adv-x="608" 
d="M342 1178q-64 0 -106 42q-43 42 -43 110q0 67 41 110q42 43 108 43t110 -44q44 -43 44 -109t-45 -109t-109 -43zM223 838h-145v80l309 98h86v-815q-1 -170 -23 -281q-22 -110 -84 -190t-154 -124q-91 -44 -182 -44t-143 40q-51 40 -51 96t32 94t87 48l201 -186
q68 92 67 405v779z" />
    <glyph glyph-name="k" unicode="k" horiz-adv-x="1132" 
d="M51 0v90l107 10l28 31v1206h-149v80l315 96h86v-983h45l293 342l-14 23l-90 10v90h418v-90l-134 -16l-233 -260l326 -529l120 -10v-90h-393v80l-237 383h-101v-336l27 -29l102 -8v-90h-516z" />
    <glyph glyph-name="l" unicode="l" horiz-adv-x="622" 
d="M47 0v90l119 12l29 29v1204h-148v80l309 98h90v-1378l31 -33l119 -12v-90h-549z" />
    <glyph glyph-name="m" unicode="m" horiz-adv-x="1826" 
d="M807 633q0 211 -173 211q-85 0 -183 -37v-676l28 -31l86 -8v-92h-502v92l105 8l29 31v707h-134v82l289 96h99v-121q219 129 335 129q156 0 240 -143q242 139 363 139q285 0 284 -340v-549l27 -31l108 -8v-92h-503v92l88 8l28 31v490q0 221 -173 221q-85 0 -191 -39v-672
l28 -31l93 -10v-90h-484v92l84 8l29 35v498z" />
    <glyph glyph-name="n" unicode="n" horiz-adv-x="1239" 
d="M63 0v92l105 8l29 31v707h-140v82l295 96h99v-121q227 125 350 125q279 0 278 -340v-549l27 -31l108 -8v-92h-501v92l88 8l28 31v490q0 219 -173 221q-85 0 -205 -35v-676l28 -31l90 -8v-92h-506z" />
    <glyph glyph-name="o" unicode="o" horiz-adv-x="1181" 
d="M598 913q-111 0 -174 -106q-64 -106 -64 -303q0 -196 64 -304t175 -108q112 0 175 104t64 304q0 199 -64 306t-176 107zM603 1022q239 0 378 -142t139 -378t-144 -378q-144 -140 -380 -140t-379 141q-141 141 -141 376t144 378t383 143z" />
    <glyph glyph-name="p" unicode="p" horiz-adv-x="1210" 
d="M567 109q137 0 219 106q82 107 82 279t-72 262q-73 90 -198 90q-66 0 -162 -39v-684q66 -14 131 -14zM47 -449v95l111 10l28 31v1151h-141v82l299 96h92v-123q186 129 338 129t262 -135t111 -365t-147 -376q-148 -148 -396 -148q-68 0 -168 12v-327l31 -29l129 -8l-2 -95
h-547z" />
    <glyph glyph-name="q" unicode="q" horiz-adv-x="1177" 
d="M682 909q-160 0 -245 -102q-85 -103 -85 -285t77 -275t212 -93q66 0 143 14v731q-61 10 -102 10zM1036 877v-1194l31 -29l102 -8v-92h-546v94l131 8l30 29v403q-174 -96 -305 -96q-176 0 -290 133t-113 344q0 261 169 407t478 146q118 0 319 -27q-6 -104 -6 -118z" />
    <glyph glyph-name="r" unicode="r" horiz-adv-x="862" 
d="M59 0v92l109 8l29 31v707h-148v82l301 96h99l-9 -209q104 113 240 209q29 4 45 4q66 0 135 -35l-26 -283h-107q-45 74 -133 74q-51 0 -145 -57v-588l30 -31l146 -8v-92h-566z" />
    <glyph glyph-name="s" unicode="s" horiz-adv-x="915" 
d="M809 700h-123l-20 154l-25 23q-69 33 -139 33t-111 -34q-41 -32 -41 -90t41 -93q41 -34 131 -78t161 -79q70 -35 98 -71q58 -71 59 -150q0 -157 -111 -247t-285 -90t-360 51v303h125l22 -176l21 -23q80 -43 167 -43t133 40t46 106t-45 98q-45 31 -119 65q-73 34 -106 50
q-119 59 -174 120t-56 150q0 135 108 220t278 85t325 -51v-273z" />
    <glyph glyph-name="t" unicode="t" horiz-adv-x="733" 
d="M172 848h-133v78l151 86l107 213h129v-254h303v-123h-303v-510q0 -113 36 -156t123 -43t144 15v-99q-177 -65 -297 -65t-178 39t-70 85t-12 138v596z" />
    <glyph glyph-name="u" unicode="u" horiz-adv-x="1228" 
d="M434 387q0 -229 176 -229q86 0 195 32v654h-133v80l291 98h94v-891l28 -31l107 -8v-92h-387v113q-201 -131 -344 -131q-281 0 -281 350v512h-133v80l289 98h98v-635z" />
    <glyph glyph-name="v" unicode="v" horiz-adv-x="1050" 
d="M-12 997h520v-94l-107 -10l-22 -27l213 -598l233 596l-16 29l-104 10v94h389v-94l-119 -14l-352 -889h-185l-327 891l-123 12v94z" />
    <glyph glyph-name="w" unicode="w" horiz-adv-x="1636" 
d="M-2 997h508v-94l-100 -14l-23 -29l166 -590l239 727h205l224 -727l180 592l-15 29l-108 12v94h387v-94l-115 -14l-278 -889h-207l-227 735l-244 -735h-205l-264 891l-123 12v94z" />
    <glyph glyph-name="x" unicode="x" horiz-adv-x="1087" 
d="M29 997h493v-86l-78 -12l-10 -22l164 -244l178 256l-104 18v90h377v-94l-113 -14l-262 -340l305 -440l108 -19v-90h-479v80l72 18l8 21l-180 274l-193 -282l105 -21v-90h-397v90l120 23l287 366l-285 408l-116 16v94z" />
    <glyph glyph-name="y" unicode="y" horiz-adv-x="1054" 
d="M-8 995h520v-88l-104 -12l-21 -29l221 -579l223 577l-18 31l-108 12v88h393v-88l-111 -18l-395 -961q-74 -178 -176 -277t-190 -99t-140 46q-51 46 -51 105q0 90 106 145l178 -122q84 68 160 249l-364 914l-123 18v88z" />
    <glyph glyph-name="z" unicode="z" horiz-adv-x="1013" 
d="M94 0v127l529 758h-332l-27 -29l-20 -170h-133v309h811v-106l-543 -774h379l30 32l25 189h139v-336h-858z" />
    <glyph glyph-name="braceleft" unicode="{" horiz-adv-x="1009" 
d="M375 104v166q0 150 -52 209t-188 60h-41v116h41q137 1 189 59t51 204v172q0 194 102 274t342 80h43v-105q-150 -4 -200 -59t-52 -197v-129q0 -162 -70 -246t-227 -112q154 -25 227 -111t72 -241v-150q0 -150 50 -204t200 -56v-108l-61 -2q-236 0 -331 84t-95 296z" />
    <glyph glyph-name="bar" unicode="|" 
d="M602 1565v-2048h-178v2048h178z" />
    <glyph glyph-name="braceright" unicode="}" horiz-adv-x="1009" 
d="M379 94v150q0 158 72 242t225 110q-158 27 -226 112t-69 246v129q0 141 -52 197t-202 59v105h43q244 0 345 -79t101 -275v-172q0 -144 52 -204t182 -61l45 2v-116h-41q-135 1 -187 -59t-53 -210v-166q0 -213 -95 -297t-331 -83l-61 2v108q152 2 202 56t50 204z" />
    <glyph glyph-name="asciitilde" unicode="~" horiz-adv-x="1705" 
d="M1149 459q-90 0 -191 35q-26 8 -80 27q-209 73 -315 73q-158 0 -385 -160v187q212 143 378 143t401 -94q97 -39 194 -39q166 0 379 153v-184q-205 -141 -381 -141z" />
    <glyph glyph-name="exclamdown" unicode="&#xa1;" horiz-adv-x="696" 
d="M504 124q0 -54 -43 -98q-43 -42 -115 -42t-113 45t-41 111t7 110l94 731h106l95 -727q10 -76 10 -130zM348 1090q-63 0 -108 46t-45 110t45 110t107 45q63 0 109 -45t46 -110q0 -64 -46 -110t-108 -46z" />
    <glyph glyph-name="cent" unicode="&#xa2;" horiz-adv-x="1189" 
d="M625 928q-115 -33 -180 -141q-65 -107 -65 -265t68 -264q66 -106 177 -137v807zM625 1253h112v-204q152 -4 293 -60v-295h-121l-30 201q-66 37 -142 37v-815q74 0 142 30l30 213h123v-309q-115 -43 -295 -49v-211h-112v213q-227 16 -365 158t-139 359q0 217 135 359
t369 164v209z" />
    <glyph glyph-name="sterling" unicode="&#xa3;" horiz-adv-x="1189" 
d="M156 612v123h141q-6 61 -6 119q0 258 122 397t341 140q154 0 251 -69t97 -167q0 -61 -43 -100t-115 -39q-27 0 -82 16v238q-33 10 -76 10q-129 0 -185 -101t-56 -323q0 -35 4 -121h371v-123h-369q0 -289 -207 -405l4 -17q94 14 146 15h612v-205h-1018v147q119 31 166 121
t47 271l-2 73h-143z" />
    <glyph glyph-name="currency" unicode="&#xa4;" horiz-adv-x="1241" 
d="M623 596q121 0 205 84t85 204q0 120 -86 206q-87 86 -205 86t-204 -86t-86 -206t85 -204t206 -84zM622 1309q142 0 250 -82l203 203l94 -93l-204 -204q79 -109 79 -248t-79 -248l204 -205l-94 -92l-203 205q-112 -82 -252 -82t-249 82l-203 -205l-92 92l203 205
q-80 109 -80 248t80 248l-203 204l92 93l203 -203q109 82 251 82z" />
    <glyph glyph-name="yen" unicode="&#xa5;" horiz-adv-x="1218" 
d="M-14 1374h538v-100l-110 -10l-19 -25l269 -520l276 502l-16 32l-115 23v98h426v-100l-115 -23l-207 -370h271v-103h-332l-109 -196h441v-101h-436v-340l32 -28l144 -11v-102h-613v102l140 11l34 28v340h-440v101h420l-100 196h-320v103h258l-192 372l-125 21v100z" />
    <glyph glyph-name="brokenbar" unicode="&#xa6;" 
d="M602 408v-758h-178v758h178zM602 1432v-758h-178v758h178z" />
    <glyph glyph-name="section" unicode="&#xa7;" 
d="M270 643q0 -88 73 -153t239 -140q166 98 166 217q0 81 -75 149t-231 134q-172 -66 -172 -207zM866 1145h-108l-21 168q-100 55 -186 55t-141 -46q-56 -46 -56 -108t32 -96q32 -35 79 -58q138 -68 180 -87q147 -74 216 -156t69 -189q0 -108 -66 -198t-182 -137
q106 -55 156 -120t51 -150q0 -139 -112 -227t-288 -87q-176 0 -344 66l-2 280h119l27 -186q96 -51 186 -51t146 46q55 46 55 109t-26 93q-26 29 -42 43t-53 33q-37 20 -59 32t-76 37q-53 25 -82 39q-244 117 -244 335t242 322q-201 104 -201 269q0 137 111 217
q110 79 284 79t336 -49v-278z" />
    <glyph glyph-name="dieresis" unicode="&#xa8;" 
d="M723 1454q53 0 91 -39t38 -95t-38 -95t-92 -39t-91 39t-37 95t38 95t91 39zM301 1454q53 0 91 -39t38 -95t-38 -95t-91 -39t-92 39t-39 95t39 95t92 39z" />
    <glyph glyph-name="copyright" unicode="&#xa9;" horiz-adv-x="1794" 
d="M1229 874h-109l-30 164q-57 37 -125 37q-135 0 -221 -105q-86 -104 -87 -276q0 -172 85 -277t219 -106q63 0 131 31l30 176h107v-256q-135 -51 -303 -51q-217 0 -355 134q-137 134 -137 347t139 347t367 135q154 -1 289 -52v-248zM909 1401q-283 0 -483 -207t-201 -499
q0 -291 202 -497q203 -206 483 -206t480 210t199 500q0 290 -200 494q-97 98 -223 152t-257 53zM909 1493q154 0 299 -62q146 -61 254 -173t166 -260t60 -310q0 -319 -240 -563q-228 -227 -544 -227t-546 234t-231 561q0 327 227 564q229 236 555 236z" />
    <glyph glyph-name="ordfeminine" unicode="&#xaa;" horiz-adv-x="835" 
d="M382 774q56 0 144 43v234q-143 -31 -202 -67q-60 -36 -60 -94t31 -87t87 -29zM274 664q-100 0 -156 52t-57 134q-1 115 99 165t368 107v43q0 78 -34 114t-92 36t-93 -8v-136h-141q-72 0 -72 54q0 65 95 115t248 50t216 -56q63 -58 64 -197v-371l20 -21l82 -6v-63h-274
l-21 82q-152 -94 -252 -94z" />
    <glyph glyph-name="guillemotleft" unicode="&#xab;" horiz-adv-x="919" 
d="M827 872v-172l-221 -208l221 -209v-172l-354 295v172zM426 872v-172l-221 -208l221 -209v-172l-354 295v172z" />
    <glyph glyph-name="logicalnot" unicode="&#xac;" horiz-adv-x="1705" 
d="M1452 862v-502h-166v336h-1032v166h1198z" />
    <glyph glyph-name="registered" unicode="&#xae;" horiz-adv-x="1794" 
d="M842 725q215 0 215 170q1 80 -55 124t-160 44q-27 0 -41 -2v-334q14 -2 41 -2zM500 1145h450q317 0 318 -221q0 -184 -244 -232q23 -4 43 -12q19 -8 35 -14t30 -20t24 -19q8 -5 20 -25t17 -26t15 -30q15 -34 25 -65q35 -100 71 -128t109 -27h10v-76q-86 -12 -125 -12
q-176 0 -237 135q-8 20 -22 63q-13 43 -19 60q-29 80 -73 112t-124 33h-22v-295l117 -22v-76h-412v74l102 22v705l-108 24v72zM909 1401q-283 0 -483 -209t-201 -498q0 -290 201 -496q200 -206 482 -206t478 207q203 209 203 499t-194 492q-95 100 -223 156t-263 55z
M909 1493q154 0 299 -62q146 -61 254 -173t166 -260t60 -310q0 -319 -240 -563q-228 -227 -544 -227t-546 234t-231 561q0 327 227 564q229 236 555 236z" />
    <glyph glyph-name="macron" unicode="&#xaf;" 
d="M176 1382h678v-145h-678v145z" />
    <glyph glyph-name="degree" unicode="&#xb0;" horiz-adv-x="673" 
d="M522 1165q0 76 -54 130q-54 55 -131 55t-131 -54t-54 -131q0 -76 55 -131t132 -55t130 55t53 131zM338 1460q123 0 209 -87t86 -209t-87 -209t-210 -87t-208 85t-85 210t86 211t209 86z" />
    <glyph glyph-name="plusminus" unicode="&#xb1;" horiz-adv-x="1705" 
d="M1452 182v-168h-1198v168h1198zM938 1206v-334h514v-165h-514v-334h-170v334h-514v165h514v334h170z" />
    <glyph glyph-name="twosuperior" unicode="&#xb2;" horiz-adv-x="784" 
d="M719 782v-233h-653v96q233 166 335 275q103 109 103 204t-44 140t-122 45q-41 0 -78 -15v-157q-49 -23 -90 -23t-67 24t-25 62q0 80 88 134t225 54t218 -66t81 -176t-108 -216t-349 -256h379l25 108h82z" />
    <glyph glyph-name="threesuperior" unicode="&#xb3;" horiz-adv-x="784" 
d="M707 776q1 -96 -103 -169t-274 -72q-121 0 -197 46t-76 107q0 36 26 58t61 22t61 -8l43 -133q54 -19 112 -19t110 49t52 119t-50 112t-136 42q-29 0 -84 -6v88h41q94 0 146 39q53 39 53 107t-48 110q-48 41 -120 41q-29 0 -76 -15v-145q-31 -16 -74 -16q-43 -1 -70 23
t-26 61q0 69 84 119t217 50t214 -58t81 -148q0 -150 -223 -197q256 -16 256 -207z" />
    <glyph glyph-name="acute" unicode="&#xb4;" 
d="M621 1520h253l-315 -390h-137z" />
    <glyph glyph-name="mu" unicode="&#xb5;" horiz-adv-x="1183" 
d="M412 141q157 0 204 221l111 523h209l-113 -533q-18 -88 -18 -125q0 -90 86 -90q78 0 129 90q8 16 18 40q29 69 56 69q22 0 22 -29t-16 -86t-41 -102q-82 -143 -219 -144q-172 0 -176 211q-86 -211 -267 -211q-203 0 -225 226q-23 -133 -45 -298q-23 -165 -37 -222
t-38 -79t-66 -22t-69 27q-26 27 -26 73t27 137q109 368 150 556l108 512h207l-100 -467q-21 -94 -21 -148t37 -92t113 -37z" />
    <glyph glyph-name="paragraph" unicode="&#xb6;" horiz-adv-x="1005" 
d="M535 1374h401v-88l-125 -20v-1428h-117v1438h-143v-739h-35q-477 0 -477 413q0 224 119 324t377 100z" />
    <glyph glyph-name="periodcentered" unicode="&#xb7;" horiz-adv-x="591" 
d="M296 850q67 0 115 -48t48 -115t-48 -115t-115 -48t-114 47t-47 115t47 116t114 48z" />
    <glyph glyph-name="cedilla" unicode="&#xb8;" 
d="M598 -115q166 1 166 -163q0 -82 -67 -138t-161 -55q-94 0 -184 22v97q86 -16 125 -17q127 0 127 76q0 68 -92 68q-12 0 -45 -4v229h98v-117q10 2 33 2z" />
    <glyph glyph-name="onesuperior" unicode="&#xb9;" horiz-adv-x="784" 
d="M528 1386v-751l15 -21l127 -4v-61h-469v61l135 8l16 21v606l-12 15l-193 -27v63l293 90h88z" />
    <glyph glyph-name="ordmasculine" unicode="&#xba;" horiz-adv-x="886" 
d="M449 1315q-83 0 -131 -74t-48 -212t47 -214t131 -76t133 74q48 74 48 212t-49 214t-131 76zM453 1391q178 1 282 -99q105 -100 105 -266t-108 -264t-285 -98t-283 99t-106 263t108 264q109 100 287 101z" />
    <glyph glyph-name="guillemotright" unicode="&#xbb;" horiz-adv-x="919" 
d="M88 872l352 -294v-172l-352 -295v172l221 209l-221 208v172zM489 872l355 -294v-172l-355 -295v172l222 209l-222 208v172z" />
    <glyph glyph-name="onequarter" unicode="&#xbc;" horiz-adv-x="1841" 
d="M1526 299v319l-285 -319h285zM1675 776v-477h148v-92h-148v-242h-149v242h-402v94l426 475h125zM1286 1374h144l-875 -1374h-145zM504 1384v-700l14 -18l121 -4v-58h-449v58l129 6l17 20v565l-12 15l-183 -25v57l279 84h84z" />
    <glyph glyph-name="onehalf" unicode="&#xbd;" horiz-adv-x="1841" 
d="M1778 217v-217h-625v90q223 154 322 256q98 102 98 190t-43 132q-43 43 -117 43q-27 0 -74 -15v-147q-41 -21 -82 -21t-67 22t-25 58q0 74 84 124t216 50t209 -61t77 -163t-103 -203q-104 -99 -333 -238h360l25 100h78zM1286 1374h144l-875 -1374h-145zM504 1384v-700
l14 -18l121 -4v-58h-449v58l129 6l17 20v565l-12 15l-183 -25v57l279 84h84z" />
    <glyph glyph-name="threequarters" unicode="&#xbe;" horiz-adv-x="1841" 
d="M1526 299v319l-285 -319h285zM1675 776v-477h148v-92h-148v-242h-149v242h-402v94l426 475h125zM1286 1374h144l-875 -1374h-145zM53 735q0 33 26 53q45 35 118 13l41 -125q54 -16 108 -16t104 46t50 111t-48 105t-130 39q-27 0 -80 -7v82h37q90 0 140 37t50 101t-44 101
q-45 38 -99 38t-90 -15v-133q-27 -16 -68 -16q-41 1 -67 23t-25 57q0 63 80 110t206 47t204 -54q77 -54 77 -140q0 -139 -213 -182q244 -17 244 -195q0 -90 -98 -157q-98 -66 -238 -66t-212 42t-73 101z" />
    <glyph glyph-name="questiondown" unicode="&#xbf;" horiz-adv-x="997" 
d="M506 989h133v-276q-295 -102 -295 -351q0 -122 70 -190t194 -68h6l93 232q14 2 41 2q72 0 112 -34t39 -93q0 -96 -99 -162t-263 -65q-209 0 -334 105t-125 273q0 301 428 441v186zM568 1399q64 0 110 -45t45 -110q0 -64 -45 -110q-44 -46 -108 -46t-109 46t-45 112
t44 109q44 44 108 44z" />
    <glyph glyph-name="Agrave" unicode="&#xc0;" horiz-adv-x="1333" 
d="M332 1903h254l198 -390h-139zM608 1108l-178 -506h361zM1370 0h-553v100l129 13l15 26l-123 348h-447l-123 -346l21 -26l129 -15v-100h-441v100l123 19l463 1270h215l471 -1268l121 -21v-100z" />
    <glyph glyph-name="Aacute" unicode="&#xc1;" horiz-adv-x="1333" 
d="M776 1903h254l-315 -390h-137zM608 1108l-178 -506h361zM1370 0h-553v100l129 13l15 26l-123 348h-447l-123 -346l21 -26l129 -15v-100h-441v100l123 19l463 1270h215l471 -1268l121 -21v-100z" />
    <glyph glyph-name="Acircumflex" unicode="&#xc2;" horiz-adv-x="1333" 
d="M578 1903h180l225 -390h-158l-157 256l-156 -256h-160zM608 1108l-178 -506h361zM1370 0h-553v100l129 13l15 26l-123 348h-447l-123 -346l21 -26l129 -15v-100h-441v100l123 19l463 1270h215l471 -1268l121 -21v-100z" />
    <glyph glyph-name="Atilde" unicode="&#xc3;" horiz-adv-x="1333" 
d="M887 1862h110v-33q0 -117 -48 -180t-127 -63t-178 46q-99 47 -122 47q-76 0 -76 -108v-21h-112v35q0 117 47 180t122 63t175 -47q100 -48 129 -48q80 0 80 112v17zM608 1108l-178 -506h361zM1370 0h-553v100l129 13l15 26l-123 348h-447l-123 -346l21 -26l129 -15v-100
h-441v100l123 19l463 1270h215l471 -1268l121 -21v-100z" />
    <glyph glyph-name="Adieresis" unicode="&#xc4;" horiz-adv-x="1333" 
d="M879 1837q53 0 91 -39t38 -95t-38 -95t-92 -39t-92 39q-36 39 -36 95t37 95q39 39 92 39zM457 1837q53 0 91 -39t38 -95t-38 -95t-91 -39t-92 39t-39 95t39 95t92 39zM608 1108l-178 -506h361zM1370 0h-553v100l129 13l15 26l-123 348h-447l-123 -346l21 -26l129 -15
v-100h-441v100l123 19l463 1270h215l471 -1268l121 -21v-100z" />
    <glyph glyph-name="Aring" unicode="&#xc5;" horiz-adv-x="1333" 
d="M608 1108l-178 -506h361zM1370 0h-553v100l129 13l15 26l-123 348h-447l-123 -346l21 -26l129 -15v-100h-441v100l123 19l463 1270h215l471 -1268l121 -21v-100zM648 1866q-54 0 -93 -40t-39 -97t39 -97t93 -39q54 0 93 39q39 38 39 96t-39 98t-93 40zM647 1972
q100 0 170 -70t70 -172q0 -101 -70 -172t-170 -71q-100 -1 -169 69q-68 70 -68 172t68 174q69 70 169 70z" />
    <glyph glyph-name="AE" unicode="&#xc6;" horiz-adv-x="1822" 
d="M854 623v639l-385 -639h385zM537 1374h1163v-321h-144l-30 180l-27 27h-385v-488h244l28 29l21 147h119v-475h-119l-21 148l-28 28h-244v-532h451l28 33l35 217h139v-367h-1071v100l125 11l33 32v359h-457l-215 -361l15 -26l122 -15v-100h-438v100l123 15l672 1118
l-23 31l-116 10v100z" />
    <glyph glyph-name="Ccedilla" unicode="&#xc7;" horiz-adv-x="1306" 
d="M874 -115q166 1 166 -163q0 -82 -66 -138q-67 -55 -161 -55t-184 22v97q86 -16 125 -17q127 0 127 76q0 68 -93 68q-12 0 -45 -4v206q-183 11 -331 99t-238 251t-90 359q0 322 213 524q195 188 516 189q207 0 418 -76v-342h-152l-39 219l-28 35q-84 31 -162 31
q-213 0 -339 -154t-126 -426t131 -427t361 -155q51 0 124 19l31 31l51 247h148v-352q-188 -67 -389 -73v-93q10 2 32 2z" />
    <glyph glyph-name="Egrave" unicode="&#xc8;" horiz-adv-x="1220" 
d="M274 1903h254l199 -390h-139zM59 0v100l125 11l33 32v1092l-33 29l-125 10v100h1033v-321h-144l-30 180l-27 27h-408v-488h267l28 29l21 147h121v-475h-121l-21 148l-28 28h-267v-532h475l27 33l35 217h139v-367h-1100z" />
    <glyph glyph-name="Eacute" unicode="&#xc9;" horiz-adv-x="1220" 
d="M719 1903h254l-316 -390h-137zM59 0v100l125 11l33 32v1092l-33 29l-125 10v100h1033v-321h-144l-30 180l-27 27h-408v-488h267l28 29l21 147h121v-475h-121l-21 148l-28 28h-267v-532h475l27 33l35 217h139v-367h-1100z" />
    <glyph glyph-name="Ecircumflex" unicode="&#xca;" horiz-adv-x="1220" 
d="M520 1903h180l226 -390h-158l-158 256l-155 -256h-160zM59 0v100l125 11l33 32v1092l-33 29l-125 10v100h1033v-321h-144l-30 180l-27 27h-408v-488h267l28 29l21 147h121v-475h-121l-21 148l-28 28h-267v-532h475l27 33l35 217h139v-367h-1100z" />
    <glyph glyph-name="Edieresis" unicode="&#xcb;" horiz-adv-x="1220" 
d="M821 1837q53 0 91 -39t38 -95t-38 -95t-92 -39t-91 39t-37 95t38 95t91 39zM399 1837q53 0 91 -39t38 -95t-38 -95t-91 -39t-92 39t-39 95t39 95t92 39zM59 0v100l125 11l33 32v1092l-33 29l-125 10v100h1033v-321h-144l-30 180l-27 27h-408v-488h267l28 29l21 147h121
v-475h-121l-21 148l-28 28h-267v-532h475l27 33l35 217h139v-367h-1100z" />
    <glyph glyph-name="Igrave" unicode="&#xcc;" horiz-adv-x="724" 
d="M27 1903h254l198 -390h-139zM61 0v100l136 11l32 32v1092l-32 29l-136 10v100h613v-100l-137 -10l-33 -29v-1092l33 -32l137 -11v-100h-613z" />
    <glyph glyph-name="Iacute" unicode="&#xcd;" horiz-adv-x="724" 
d="M471 1903h254l-315 -390h-138zM61 0v100l136 11l32 32v1092l-32 29l-136 10v100h613v-100l-137 -10l-33 -29v-1092l33 -32l137 -11v-100h-613z" />
    <glyph glyph-name="Icircumflex" unicode="&#xce;" horiz-adv-x="724" 
d="M272 1903h181l225 -390h-158l-158 256l-155 -256h-160zM61 0v100l136 11l32 32v1092l-32 29l-136 10v100h613v-100l-137 -10l-33 -29v-1092l33 -32l137 -11v-100h-613z" />
    <glyph glyph-name="Idieresis" unicode="&#xcf;" horiz-adv-x="724" 
d="M573 1837q53 0 91 -39t38 -95t-38 -95t-92 -39t-91 39t-37 95t38 95t91 39zM152 1837q53 0 91 -39t38 -95t-38 -95t-91 -39t-93 39q-39 39 -39 95t39 95q40 39 93 39zM61 0v100l136 11l32 32v1092l-32 29l-136 10v100h613v-100l-137 -10l-33 -29v-1092l33 -32l137 -11
v-100h-613z" />
    <glyph glyph-name="Eth" unicode="&#xd0;" horiz-adv-x="1466" 
d="M487 1260v-478h289v-125h-289v-542h119q484 0 484 572t-484 573h-119zM59 1374h596q354 0 547 -181t193 -509q-1 -328 -191 -506t-549 -178h-596v100l123 11l33 32v514h-184v125h184v449l-33 33l-123 10v100z" />
    <glyph glyph-name="Ntilde" unicode="&#xd1;" horiz-adv-x="1488" 
d="M965 1862h110v-33q0 -117 -48 -180t-127 -63t-178 46q-99 47 -122 47q-76 0 -76 -108v-21h-112v35q0 117 47 180t122 63t175 -47q100 -48 129 -48q80 0 80 112v17zM53 0v98l121 17l37 37v1083l-29 29l-131 10v100h471v-55l627 -973v877l-37 39l-125 16v96h467v-96
l-121 -16l-35 -39v-1223h-229l-709 1100v-948l33 -37l127 -17v-98h-467z" />
    <glyph glyph-name="Ograve" unicode="&#xd2;" horiz-adv-x="1540" 
d="M434 1903h254l199 -390h-139zM776 1274q-172 0 -280 -157t-107 -430q0 -273 109 -434q108 -161 278 -161t278 158t108 432t-108 432q-106 160 -278 160zM788 -33q-316 -1 -510 199t-194 533t202 519t476 187q274 0 463 -160q243 -209 243 -552t-219 -546
q-193 -180 -461 -180z" />
    <glyph glyph-name="Oacute" unicode="&#xd3;" horiz-adv-x="1540" 
d="M879 1903h254l-316 -390h-137zM776 1274q-172 0 -280 -157t-107 -430q0 -273 109 -434q108 -161 278 -161t278 158t108 432t-108 432q-106 160 -278 160zM788 -33q-316 -1 -510 199t-194 533t202 519t476 187q274 0 463 -160q243 -209 243 -552t-219 -546
q-193 -180 -461 -180z" />
    <glyph glyph-name="Ocircumflex" unicode="&#xd4;" horiz-adv-x="1540" 
d="M680 1903h180l225 -390h-157l-158 256l-156 -256h-159zM776 1274q-172 0 -280 -157t-107 -430q0 -273 109 -434q108 -161 278 -161t278 158t108 432t-108 432q-106 160 -278 160zM788 -33q-316 -1 -510 199t-194 533t202 519t476 187q274 0 463 -160q243 -209 243 -552
t-219 -546q-193 -180 -461 -180z" />
    <glyph glyph-name="Otilde" unicode="&#xd5;" horiz-adv-x="1540" 
d="M989 1862h111v-33q0 -117 -48 -180q-90 -118 -306 -17q-99 47 -121 47q-76 0 -76 -108v-21h-113v35q0 117 47 180t122 63t175 -47q100 -48 129 -48q80 0 80 112v17zM776 1274q-172 0 -280 -157t-107 -430q0 -273 109 -434q108 -161 278 -161t278 158t108 432t-108 432
q-106 160 -278 160zM788 -33q-316 -1 -510 199t-194 533t202 519t476 187q274 0 463 -160q243 -209 243 -552t-219 -546q-193 -180 -461 -180z" />
    <glyph glyph-name="Odieresis" unicode="&#xd6;" horiz-adv-x="1540" 
d="M981 1837q53 0 91 -39t38 -95t-38 -95t-92 -39t-91 39t-37 95t38 95t91 39zM559 1837q53 0 91 -39t38 -95t-38 -95t-91 -39t-92 39t-39 95t39 95t92 39zM776 1274q-172 0 -280 -157t-107 -430q0 -273 109 -434q108 -161 278 -161t278 158t108 432t-108 432
q-106 160 -278 160zM788 -33q-316 -1 -510 199t-194 533t202 519t476 187q274 0 463 -160q243 -209 243 -552t-219 -546q-193 -180 -461 -180z" />
    <glyph glyph-name="multiply" unicode="&#xd7;" horiz-adv-x="1705" 
d="M862 729l461 459l117 -117l-459 -461l459 -458l-117 -119l-461 461l-459 -461l-116 119l458 458l-458 461l116 117z" />
    <glyph glyph-name="Oslash" unicode="&#xd8;" horiz-adv-x="1540" 
d="M778 94q174 0 285 157t111 422t-101 429l-532 -914q102 -94 237 -94zM778 1274q-176 0 -289 -155t-113 -401t91 -427l526 905q-92 78 -215 78zM764 -33q-168 0 -311 72l-121 -209l-94 68l116 200q-270 211 -270 586q0 328 190 524t506 197q154 0 297 -62l117 199l100 -57
l-116 -201q293 -233 292 -600q0 -334 -223 -541q-188 -176 -483 -176z" />
    <glyph glyph-name="Ugrave" unicode="&#xd9;" horiz-adv-x="1443" 
d="M387 1903h254l199 -390h-140zM41 1374h588v-100l-127 -10l-29 -29v-717q0 -201 76 -291t251 -90t247 95t71 305v690l-31 35l-131 12v100h465v-100l-125 -12l-28 -35v-711q0 -283 -127 -412t-423 -129t-429 168q-55 72 -73 160q-17 88 -17 223v709l-29 29l-129 10v100z
" />
    <glyph glyph-name="Uacute" unicode="&#xda;" horiz-adv-x="1443" 
d="M831 1903h254l-315 -390h-137zM41 1374h588v-100l-127 -10l-29 -29v-717q0 -201 76 -291t251 -90t247 95t71 305v690l-31 35l-131 12v100h465v-100l-125 -12l-28 -35v-711q0 -283 -127 -412t-423 -129t-429 168q-55 72 -73 160q-17 88 -17 223v709l-29 29l-129 10v100z
" />
    <glyph glyph-name="Ucircumflex" unicode="&#xdb;" horiz-adv-x="1443" 
d="M633 1903h180l225 -390h-157l-158 256l-156 -256h-159zM41 1374h588v-100l-127 -10l-29 -29v-717q0 -201 76 -291t251 -90t247 95t71 305v690l-31 35l-131 12v100h465v-100l-125 -12l-28 -35v-711q0 -283 -127 -412t-423 -129t-429 168q-55 72 -73 160q-17 88 -17 223
v709l-29 29l-129 10v100z" />
    <glyph glyph-name="Udieresis" unicode="&#xdc;" horiz-adv-x="1443" 
d="M934 1837q53 0 91 -39t38 -95t-38 -95t-92 -39t-91 39t-37 95t38 95t91 39zM512 1837q53 0 91 -39t38 -95t-38 -95t-91 -39t-92 39t-39 95t39 95t92 39zM41 1374h588v-100l-127 -10l-29 -29v-717q0 -201 76 -291t251 -90t247 95t71 305v690l-31 35l-131 12v100h465v-100
l-125 -12l-28 -35v-711q0 -283 -127 -412t-423 -129t-429 168q-55 72 -73 160q-17 88 -17 223v709l-29 29l-129 10v100z" />
    <glyph glyph-name="Yacute" unicode="&#xdd;" horiz-adv-x="1249" 
d="M733 1903h254l-315 -390h-137zM-23 1374h560v-100l-115 -10l-19 -25l281 -520l293 502l-16 32l-123 23v98h446v-100l-121 -23l-389 -661v-449l33 -28l139 -11v-102h-614v102l137 11l33 28v400l-393 712l-132 21v100z" />
    <glyph glyph-name="Thorn" unicode="&#xde;" horiz-adv-x="1202" 
d="M565 381q324 0 324 324q0 303 -320 303q-23 0 -75 -4v-619q49 -4 71 -4zM66 1374h596v-100l-136 -10l-32 -33v-109h116q287 0 424 -98t137 -311t-141 -332t-397 -119q-41 0 -139 6v-125l32 -32l136 -11v-100h-596v100l122 11l35 32v1092l-28 29l-129 10v100z" />
    <glyph glyph-name="germandbls" unicode="&#xdf;" horiz-adv-x="1314" 
d="M1047 969q-89 0 -139 -41t-50 -108t41 -101q41 -35 149 -98q107 -64 166 -132t60 -174q0 -141 -110 -236t-283 -95q-117 0 -267 41v292h127l17 -190q48 -31 118 -31t116 43t46 106t-22 89t-34 40t-44 35q-33 23 -49 31q-17 8 -65 35t-68 37q-143 82 -144 231q0 96 62 169
t172 100q20 109 20 155q0 105 -51 169t-135 65q-252 0 -252 -490v-780l8 -31l66 -10v-90h-465v94l115 8l20 29v766q0 291 152 457t403 166q185 0 291 -100t106 -267q1 -88 -22 -188q-37 4 -55 4z" />
    <glyph glyph-name="agrave" unicode="&#xe0;" horiz-adv-x="1114" 
d="M221 1520h254l199 -390h-139zM352 305q0 -84 41 -125q90 -90 309 21v334q-190 -43 -270 -95t-80 -135zM366 -18q-136 0 -210 74t-74 192q0 164 132 238t491 153v61q1 111 -47 162t-148 51q-43 0 -98 -12v-192h-189q-94 0 -94 75q0 92 126 165q125 73 329 73t289 -82
t85 -281v-530l27 -29l109 -10v-90h-365l-27 117q-201 -135 -336 -135z" />
    <glyph glyph-name="aacute" unicode="&#xe1;" horiz-adv-x="1114" 
d="M666 1520h254l-316 -390h-137zM352 305q0 -84 41 -125q90 -90 309 21v334q-190 -43 -270 -95t-80 -135zM366 -18q-136 0 -210 74t-74 192q0 164 132 238t491 153v61q1 111 -47 162t-148 51q-43 0 -98 -12v-192h-189q-94 0 -94 75q0 92 126 165q125 73 329 73t289 -82
t85 -281v-530l27 -29l109 -10v-90h-365l-27 117q-201 -135 -336 -135z" />
    <glyph glyph-name="acircumflex" unicode="&#xe2;" horiz-adv-x="1114" 
d="M467 1520h180l225 -390h-157l-158 256l-156 -256h-159zM352 305q0 -84 41 -125q90 -90 309 21v334q-190 -43 -270 -95t-80 -135zM366 -18q-136 0 -210 74t-74 192q0 164 132 238t491 153v61q1 111 -47 162t-148 51q-43 0 -98 -12v-192h-189q-94 0 -94 75q0 92 126 165
q125 73 329 73t289 -82t85 -281v-530l27 -29l109 -10v-90h-365l-27 117q-201 -135 -336 -135z" />
    <glyph glyph-name="atilde" unicode="&#xe3;" horiz-adv-x="1114" 
d="M776 1479h111v-33q0 -117 -48 -180q-48 -64 -127 -64t-178 47t-122 47q-76 0 -76 -108v-21h-113v35q0 117 47 180q47 64 122 64t175 -48t129 -48q80 0 80 112v17zM352 305q0 -84 41 -125q90 -90 309 21v334q-190 -43 -270 -95t-80 -135zM366 -18q-136 0 -210 74t-74 192
q0 164 132 238t491 153v61q1 111 -47 162t-148 51q-43 0 -98 -12v-192h-189q-94 0 -94 75q0 92 126 165q125 73 329 73t289 -82t85 -281v-530l27 -29l109 -10v-90h-365l-27 117q-201 -135 -336 -135z" />
    <glyph glyph-name="adieresis" unicode="&#xe4;" horiz-adv-x="1114" 
d="M768 1454q53 0 91 -39t38 -95t-38 -95t-92 -39t-91 39t-37 95t38 95t91 39zM346 1454q53 0 91 -39t38 -95t-38 -95t-91 -39t-92 39t-39 95t39 95t92 39zM352 305q0 -84 41 -125q90 -90 309 21v334q-190 -43 -270 -95t-80 -135zM366 -18q-136 0 -210 74t-74 192
q0 164 132 238t491 153v61q1 111 -47 162t-148 51q-43 0 -98 -12v-192h-189q-94 0 -94 75q0 92 126 165q125 73 329 73t289 -82t85 -281v-530l27 -29l109 -10v-90h-365l-27 117q-201 -135 -336 -135z" />
    <glyph glyph-name="aring" unicode="&#xe5;" horiz-adv-x="1114" 
d="M352 305q0 -84 41 -125t115 -41t194 62v334q-190 -43 -270 -95t-80 -135zM958 659v-530l27 -29l109 -10v-90h-365l-27 117q-201 -135 -336 -135q-136 0 -210 74t-74 192q0 164 132 238t491 153v61q1 111 -47 162t-148 51q-43 0 -98 -12v-192h-189q-94 0 -94 75
q0 92 126 165q125 73 329 73t289 -82t85 -281zM565 1497q-55 0 -93 -39t-38 -96t39 -97t92 -40t93 40t40 97t-39 96t-94 39zM566 1604q99 0 169 -71t70 -172t-70 -172t-170 -71t-170 71q-69 71 -69 172t70 172q71 71 170 71z" />
    <glyph glyph-name="ae" unicode="&#xe6;" horiz-adv-x="1572" 
d="M1243 623v28q0 256 -158 256q-172 1 -176 -284h334zM346 306q0 -83 38 -125q81 -90 288 20v334q-184 -49 -255 -97t-71 -132zM913 516v-248q135 -123 290 -123t300 109v-152q-180 -121 -373 -120q-229 0 -397 149q-207 -152 -383 -151q-122 0 -194 74t-72 200
q0 158 126 232t462 153v61q0 113 -46 163t-147 50q-33 0 -82 -12v-192h-182q-86 0 -86 75q0 94 120 166q119 72 311 72t290 -113q117 111 287 111t269 -119t99 -336l-2 -49h-590z" />
    <glyph glyph-name="ccedilla" unicode="&#xe7;" horiz-adv-x="974" 
d="M627 -115q166 1 166 -163q0 -82 -67 -138t-161 -55q-94 0 -184 22v97q86 -16 125 -17q127 0 127 76q0 68 -92 68q-12 0 -45 -4v216q-175 19 -289 137q-135 140 -135 368t148 376t380 150q154 0 246 -64t92 -159q0 -61 -41 -101t-107 -39q-66 0 -120 39v217q-31 6 -52 7
q-112 0 -190 -106t-78 -281q0 -177 86 -281t224 -104t290 92v-146q-182 -100 -356 -108v-101q10 2 33 2z" />
    <glyph glyph-name="egrave" unicode="&#xe8;" horiz-adv-x="1073" 
d="M201 1520h254l198 -390h-139zM739 653q0 261 -182 259q-90 0 -147 -76q-57 -74 -62 -205h391v22zM76 496q0 232 142 380t354 148t324 -121t112 -342v-39h-670v-6q0 -176 88 -275t246 -99t334 112v-152q-207 -120 -430 -120t-362 141q-138 141 -138 373z" />
    <glyph glyph-name="eacute" unicode="&#xe9;" horiz-adv-x="1073" 
d="M645 1520h254l-315 -390h-138zM739 653q0 261 -182 259q-90 0 -147 -76q-57 -74 -62 -205h391v22zM76 496q0 232 142 380t354 148t324 -121t112 -342v-39h-670v-6q0 -176 88 -275t246 -99t334 112v-152q-207 -120 -430 -120t-362 141q-138 141 -138 373z" />
    <glyph glyph-name="ecircumflex" unicode="&#xea;" horiz-adv-x="1073" 
d="M446 1520h181l225 -390h-158l-157 256l-156 -256h-160zM739 653q0 261 -182 259q-90 0 -147 -76q-57 -74 -62 -205h391v22zM76 496q0 232 142 380t354 148t324 -121t112 -342v-39h-670v-6q0 -176 88 -275t246 -99t334 112v-152q-207 -120 -430 -120t-362 141
q-138 141 -138 373z" />
    <glyph glyph-name="edieresis" unicode="&#xeb;" horiz-adv-x="1073" 
d="M748 1454q53 0 91 -39t38 -95t-38 -95t-92 -39t-92 39q-37 39 -37 95t38 95q39 39 92 39zM326 1454q53 0 91 -39t38 -95t-38 -95t-91 -39t-93 39q-39 39 -39 95t39 95q40 39 93 39zM739 653q0 261 -182 259q-90 0 -147 -76q-57 -74 -62 -205h391v22zM76 496
q0 232 142 380t354 148t324 -121t112 -342v-39h-670v-6q0 -176 88 -275t246 -99t334 112v-152q-207 -120 -430 -120t-362 141q-138 141 -138 373z" />
    <glyph glyph-name="igrave" unicode="&#xec;" horiz-adv-x="624" 
d="M-23 1520h254l199 -390h-139zM453 1016v-885l30 -31l115 -8v-92h-537v92l111 8l29 31v707h-135v82l288 96h99z" />
    <glyph glyph-name="iacute" unicode="&#xed;" horiz-adv-x="624" 
d="M422 1520h254l-316 -390h-137zM453 1016v-885l30 -31l115 -8v-92h-537v92l111 8l29 31v707h-135v82l288 96h99z" />
    <glyph glyph-name="icircumflex" unicode="&#xee;" horiz-adv-x="624" 
d="M223 1520h180l226 -390h-158l-158 256l-155 -256h-160zM453 1016v-885l30 -31l115 -8v-92h-537v92l111 8l29 31v707h-135v82l288 96h99z" />
    <glyph glyph-name="idieresis" unicode="&#xef;" horiz-adv-x="624" 
d="M524 1454q53 0 91 -39t38 -95t-38 -95t-92 -39t-91 39t-37 95t38 95t91 39zM102 1454q54 0 92 -39t38 -95t-38 -95t-92 -39t-92 39q-39 39 -39 95t39 95t92 39zM453 1016v-885l30 -31l115 -8v-92h-537v92l111 8l29 31v707h-135v82l288 96h99z" />
    <glyph glyph-name="eth" unicode="&#xf0;" horiz-adv-x="1165" 
d="M631 893q-131 0 -205 -102t-74 -297t64 -299q64 -105 179 -105q116 0 178 112q63 112 63 320t-72 346q-76 25 -133 25zM1104 543q0 -258 -138 -410q-138 -151 -373 -151t-378 141t-143 369t138 365q138 138 353 138q85 0 146 -10q-61 100 -144 199l-246 -146l-49 90
l224 132l-66 73l-166 8l-6 72l297 111l154 -154l219 127l51 -88l-205 -121q332 -387 332 -745z" />
    <glyph glyph-name="ntilde" unicode="&#xf1;" horiz-adv-x="1239" 
d="M840 1479h110v-33q0 -117 -48 -180q-48 -64 -127 -64t-178 47t-122 47q-76 0 -76 -108v-21h-112v35q0 117 47 180q47 64 123 64t174 -48t129 -48q80 0 80 112v17zM63 0v92l105 8l29 31v707h-140v82l295 96h99v-121q227 125 350 125q279 0 278 -340v-549l27 -31l108 -8
v-92h-501v92l88 8l28 31v490q0 219 -173 221q-85 0 -205 -35v-676l28 -31l90 -8v-92h-506z" />
    <glyph glyph-name="ograve" unicode="&#xf2;" horiz-adv-x="1181" 
d="M256 1520h254l199 -390h-140zM598 913q-111 0 -174 -106q-64 -106 -64 -303q0 -196 64 -304t175 -108q112 0 175 104t64 304q0 199 -64 306t-176 107zM603 1022q239 0 378 -142t139 -378t-144 -378q-144 -140 -380 -140t-379 141q-141 141 -141 376t144 378t383 143z" />
    <glyph glyph-name="oacute" unicode="&#xf3;" horiz-adv-x="1181" 
d="M700 1520h254l-315 -390h-137zM598 913q-111 0 -174 -106q-64 -106 -64 -303q0 -196 64 -304t175 -108q112 0 175 104t64 304q0 199 -64 306t-176 107zM603 1022q239 0 378 -142t139 -378t-144 -378q-144 -140 -380 -140t-379 141q-141 141 -141 376t144 378t383 143z
" />
    <glyph glyph-name="ocircumflex" unicode="&#xf4;" horiz-adv-x="1181" 
d="M502 1520h180l225 -390h-157l-158 256l-156 -256h-160zM598 913q-111 0 -174 -106q-64 -106 -64 -303q0 -196 64 -304t175 -108q112 0 175 104t64 304q0 199 -64 306t-176 107zM603 1022q239 0 378 -142t139 -378t-144 -378q-144 -140 -380 -140t-379 141
q-141 141 -141 376t144 378t383 143z" />
    <glyph glyph-name="otilde" unicode="&#xf5;" horiz-adv-x="1181" 
d="M811 1479h111v-33q0 -117 -48 -180q-48 -64 -128 -64q-79 0 -178 47t-122 47q-76 0 -75 -108v-21h-113v35q0 117 47 180q47 64 123 64t174 -48t129 -48q80 0 80 112v17zM598 913q-111 0 -174 -106q-64 -106 -64 -303q0 -196 64 -304t175 -108q112 0 175 104t64 304
q0 199 -64 306t-176 107zM603 1022q239 0 378 -142t139 -378t-144 -378q-144 -140 -380 -140t-379 141q-141 141 -141 376t144 378t383 143z" />
    <glyph glyph-name="odieresis" unicode="&#xf6;" horiz-adv-x="1181" 
d="M803 1454q53 0 91 -39t38 -95t-38 -95t-92 -39t-91 39t-37 95t38 95t91 39zM381 1454q53 0 91 -39t38 -95t-38 -95t-91 -39t-92 39t-39 95t39 95t92 39zM598 913q-111 0 -174 -106q-64 -106 -64 -303q0 -196 64 -304t175 -108q112 0 175 104t64 304q0 199 -64 306
t-176 107zM603 1022q239 0 378 -142t139 -378t-144 -378q-144 -140 -380 -140t-379 141q-141 141 -141 376t144 378t383 143z" />
    <glyph glyph-name="divide" unicode="&#xf7;" horiz-adv-x="1705" 
d="M717 229q0 57 41 97t97 41q56 0 96 -40q40 -41 40 -97t-40 -96t-97 -40t-97 39t-40 96zM1452 694v-166h-1198v166h1198zM855 1128q56 0 96 -41t40 -97t-40 -96t-97 -40t-97 39t-40 96t41 98t97 41z" />
    <glyph glyph-name="oslash" unicode="&#xf8;" horiz-adv-x="1181" 
d="M606 92q108 0 174 102t66 289q0 186 -55 297l-347 -620q55 -68 162 -68zM594 913q-110 0 -178 -105t-68 -266t37 -280l342 606q-59 45 -133 45zM1120 506q0 -236 -140 -379t-366 -143q-145 0 -245 41l-111 -195l-84 55l107 187q-205 150 -205 428q0 240 142 380t386 140
q96 0 193 -31l100 180l86 -49l-96 -172q233 -143 233 -442z" />
    <glyph glyph-name="ugrave" unicode="&#xf9;" horiz-adv-x="1228" 
d="M279 1520h253l199 -390h-139zM434 387q0 -229 176 -229q86 0 195 32v654h-133v80l291 98h94v-891l28 -31l107 -8v-92h-387v113q-201 -131 -344 -131q-281 0 -281 350v512h-133v80l289 98h98v-635z" />
    <glyph glyph-name="uacute" unicode="&#xfa;" horiz-adv-x="1228" 
d="M723 1520h254l-315 -390h-138zM434 387q0 -229 176 -229q86 0 195 32v654h-133v80l291 98h94v-891l28 -31l107 -8v-92h-387v113q-201 -131 -344 -131q-281 0 -281 350v512h-133v80l289 98h98v-635z" />
    <glyph glyph-name="ucircumflex" unicode="&#xfb;" horiz-adv-x="1228" 
d="M524 1520h181l225 -390h-158l-158 256l-155 -256h-160zM434 387q0 -229 176 -229q86 0 195 32v654h-133v80l291 98h94v-891l28 -31l107 -8v-92h-387v113q-201 -131 -344 -131q-281 0 -281 350v512h-133v80l289 98h98v-635z" />
    <glyph glyph-name="udieresis" unicode="&#xfc;" horiz-adv-x="1228" 
d="M825 1454q53 0 91 -39t38 -95t-38 -95t-92 -39t-91 39t-37 95t38 95t91 39zM403 1454q53 0 91 -39t38 -95t-38 -95t-90 -39q-54 0 -93 39t-39 95t39 95t92 39zM434 387q0 -229 176 -229q86 0 195 32v654h-133v80l291 98h94v-891l28 -31l107 -8v-92h-387v113
q-201 -131 -344 -131q-281 0 -281 350v512h-133v80l289 98h98v-635z" />
    <glyph glyph-name="yacute" unicode="&#xfd;" horiz-adv-x="1054" 
d="M637 1520h254l-316 -390h-137zM-8 995h520v-88l-104 -12l-21 -29l221 -579l223 577l-18 31l-108 12v88h393v-88l-111 -18l-395 -961q-74 -178 -176 -277t-190 -99t-140 46q-51 46 -51 105q0 90 106 145l178 -122q84 68 160 249l-364 914l-123 18v88z" />
    <glyph glyph-name="thorn" unicode="&#xfe;" horiz-adv-x="1210" 
d="M571 109q137 0 221 106q82 107 82 279t-72 262q-73 90 -200 90q-68 0 -162 -39v-684q66 -14 131 -14zM51 -449v95l113 10l26 31v1648h-149v80l309 98h90v-620q186 129 338 129t262 -135t111 -365q0 -230 -146 -376q-146 -148 -397 -148q-68 0 -168 12v-327l31 -29l131 -8
l-2 -95h-549z" />
    <glyph glyph-name="ydieresis" unicode="&#xff;" horiz-adv-x="1054" 
d="M739 1454q53 0 91 -39t38 -95t-38 -95t-92 -39t-91 39t-37 95t38 95t91 39zM317 1454q53 0 91 -39t38 -95t-38 -95t-90 -39q-54 0 -93 39t-39 95t39 95t92 39zM-8 995h520v-88l-104 -12l-21 -29l221 -579l223 577l-18 31l-108 12v88h393v-88l-111 -18l-395 -961
q-74 -178 -176 -277t-190 -99t-140 46q-51 46 -51 105q0 90 106 145l178 -122q84 68 160 249l-364 914l-123 18v88z" />
    <glyph glyph-name="dotlessi" unicode="&#x131;" horiz-adv-x="624" 
d="M453 1016v-885l30 -31l115 -8v-92h-537v92l111 8l29 31v707h-135v82l288 96h99z" />
    <glyph glyph-name="Lslash" unicode="&#x141;" horiz-adv-x="1112" 
d="M55 1374h590v-100l-125 -10l-35 -29v-358l199 133l64 -92l-263 -177v-622h396l24 33l31 249h154v-401h-1035v100l125 11l35 32v422l-143 -98l-54 96l197 135v537l-29 29l-131 10v100z" />
    <glyph glyph-name="lslash" unicode="&#x142;" horiz-adv-x="622" 
d="M596 0h-549v90l119 12l29 29v465l-142 -100l-57 94l199 137v608h-148v80l309 98h90l3 -610l159 113l64 -92l-226 -156v-633l31 -33l119 -12v-90z" />
    <glyph glyph-name="OE" unicode="&#x152;" horiz-adv-x="2068" 
d="M1106 1374h833v-321h-141l-26 168l-35 39h-381v-488h243l29 29l17 147h120v-475h-120l-17 145l-31 35h-241v-536h448l29 33l35 217h139v-367h-901v201q-164 -223 -420 -224q-170 1 -308 91t-217 250t-79 370q0 317 173 512t451 195t400 -211v190zM748 1262
q-162 0 -264 -154t-101 -419q0 -265 102 -421t262 -156t262 153q101 153 101 419t-100 422t-262 156z" />
    <glyph glyph-name="oe" unicode="&#x153;" horiz-adv-x="1763" 
d="M1694 522h-633q2 -178 87 -276q86 -98 236 -98t306 106v-152q-182 -118 -395 -118t-357 161q-156 -161 -374 -161t-353 141t-135 376t137 377t367 142t368 -162q142 164 338 164t302 -120t106 -339v-41zM1425 631v24q0 256 -163 256q-84 0 -136 -72q-51 -73 -57 -208h356
zM579 913q-105 0 -165 -106t-62 -304q0 -198 60 -304q60 -107 168 -107q106 0 164 106t58 303q0 198 -58 305q-60 107 -165 107z" />
    <glyph glyph-name="Scaron" unicode="&#x160;" horiz-adv-x="1163" 
d="M266 1901h160l156 -256l157 256h158l-225 -390h-180zM121 416h155l33 -246l27 -31q90 -29 196 -29t178 55q70 54 70 137t-53 143t-166 118q-190 84 -268 152q-143 121 -143 287t133 282q133 115 335 115t400 -70v-332h-148l-34 213l-29 29q-57 29 -159 29t-168 -54
t-64 -132q0 -77 40 -128t126 -102q23 -14 123 -58t169 -89q184 -117 184 -305t-146 -306q-148 -117 -374 -117t-417 68v371z" />
    <glyph glyph-name="scaron" unicode="&#x161;" horiz-adv-x="915" 
d="M143 1518h160l156 -256l157 256h158l-225 -390h-180zM809 700h-123l-20 154l-25 23q-69 33 -139 33t-111 -34q-41 -32 -41 -90t41 -93q41 -34 131 -78t161 -79q70 -35 98 -71q58 -71 59 -150q0 -157 -111 -247t-285 -90t-360 51v303h125l22 -176l21 -23q80 -43 167 -43
t133 40t46 106t-45 98q-45 31 -119 65q-73 34 -106 50q-119 59 -174 120t-56 150q0 135 108 220t278 85t325 -51v-273z" />
    <glyph glyph-name="Ydieresis" unicode="&#x178;" horiz-adv-x="1249" 
d="M836 1837q53 0 91 -39t38 -95t-38 -95t-92 -39t-92 39q-37 39 -37 95t38 95q39 39 92 39zM414 1837q53 0 91 -39t38 -95t-38 -95t-91 -39t-92 39t-39 95t39 95t92 39zM-23 1374h560v-100l-115 -10l-19 -25l281 -520l293 502l-16 32l-123 23v98h446v-100l-121 -23
l-389 -661v-449l33 -28l139 -11v-102h-614v102l137 11l33 28v400l-393 712l-132 21v100z" />
    <glyph glyph-name="Zcaron" unicode="&#x17d;" horiz-adv-x="1212" 
d="M291 1901h160l155 -256l158 256h158l-226 -390h-180zM127 1374h987v-112l-717 -1141h525l20 29l37 247h147v-397h-1036v113l717 1142h-463l-39 -24l-33 -219h-145v362z" />
    <glyph glyph-name="zcaron" unicode="&#x17e;" horiz-adv-x="1013" 
d="M193 1518h159l156 -256l158 256h157l-225 -390h-180zM94 0v127l529 758h-332l-27 -29l-20 -170h-133v309h811v-106l-543 -774h379l30 32l25 189h139v-336h-858z" />
    <glyph glyph-name="florin" unicode="&#x192;" horiz-adv-x="1189" 
d="M215 633v123h225v39q0 309 117 442q66 74 161 118t180 44t141 -47t57 -111q0 -90 -125 -149l-191 194q-57 -57 -76 -150t-14 -380h320v-123h-318q4 -115 4 -162q0 -340 -72 -482t-183 -217q-112 -75 -213 -75t-152 39t-51 100q0 96 110 150l207 -174q61 57 82 151
q20 94 20 252v418h-229z" />
    <glyph glyph-name="circumflex" unicode="&#x2c6;" 
d="M422 1520h180l225 -390h-157l-158 256l-156 -256h-159z" />
    <glyph glyph-name="caron" unicode="&#x2c7;" 
d="M197 1518h159l156 -256l158 256h157l-225 -390h-180z" />
    <glyph glyph-name="breve" unicode="&#x2d8;" 
d="M305 1458q0 -86 47 -119t161 -33t161 34q47 32 47 118v12l104 3v-23q1 -158 -71 -224t-240 -65q-168 0 -241 65t-72 218v29l104 -3v-12z" />
    <glyph glyph-name="dotaccent" unicode="&#x2d9;" 
d="M511 1460q54 0 94 -41t40 -97t-39 -96t-95 -40t-94 39t-38 96t39 98t93 41z" />
    <glyph glyph-name="ring" unicode="&#x2da;" 
d="M513 1497q-56 0 -96 -39t-40 -95t40 -97t96 -41t96 41t40 97t-40 95t-96 39zM512 1604q102 0 173 -71t71 -172t-71 -172t-173 -71t-172 71t-70 172t70 172t172 71z" />
    <glyph glyph-name="ogonek" unicode="&#x2db;" 
d="M510 -202q0 -110 115 -109q23 0 63 6v-139q-55 -14 -113 -15q-215 0 -215 185q1 149 142 274h110q-102 -92 -102 -202z" />
    <glyph glyph-name="tilde" unicode="&#x2dc;" 
d="M731 1479h111v-33q0 -117 -48 -180q-90 -118 -306 -17q-99 47 -121 47q-76 0 -76 -108v-21h-113v35q0 117 47 180q47 64 122 64t175 -48t129 -48q80 0 80 112v17z" />
    <glyph glyph-name="hungarumlaut" unicode="&#x2dd;" 
d="M750 1520h251l-376 -390h-136zM414 1520h223l-297 -390h-119z" />
    <glyph glyph-name="endash" unicode="&#x2013;" 
d="M0 586h1024v-187h-1024v187z" />
    <glyph glyph-name="emdash" unicode="&#x2014;" horiz-adv-x="2048" 
d="M0 401v185h2048v-185h-2048z" />
    <glyph glyph-name="quoteleft" unicode="&#x2018;" horiz-adv-x="522" 
d="M426 948q0 -58 -40 -99q-40 -40 -112 -40t-121 57q-51 57 -51 170q0 114 79 220t229 174l43 -62q-190 -117 -191 -278q0 -23 2 -35h123q39 -49 39 -107z" />
    <glyph glyph-name="quoteright" unicode="&#x2019;" horiz-adv-x="522" 
d="M125 1292q0 58 39 98q40 40 112 40t122 -58t50 -170t-79 -220q-81 -107 -228 -173l-43 61q190 113 191 281q0 20 -2 33h-123q-39 49 -39 108z" />
    <glyph glyph-name="quotesinglbase" unicode="&#x201a;" horiz-adv-x="522" 
d="M258 -14q0 23 -2 34h-123q-37 46 -37 106t38 99t111 39t123 -57t50 -170t-78 -219t-227 -174l-45 61q190 117 190 281z" />
    <glyph glyph-name="quotedblleft" unicode="&#x201c;" horiz-adv-x="972" 
d="M879 948q0 -58 -40 -99q-40 -40 -112 -40t-122 58t-50 171q1 112 79 218t228 174l45 -62q-193 -117 -192 -281q0 -20 2 -32h123q39 -49 39 -107zM262 1087q0 -23 2 -32h125q37 -43 37 -105t-39 -102q-39 -39 -111 -39t-122 57q-52 57 -52 171q0 113 79 219t229 174
l45 -62q-193 -117 -193 -281z" />
    <glyph glyph-name="quotedblright" unicode="&#x201d;" horiz-adv-x="972" 
d="M741 1149q0 23 -2 35h-123q-38 40 -38 104t38 103q39 39 112 39t123 -58t50 -172q-1 -112 -79 -218t-228 -173l-43 61q190 117 190 279zM291 1151q0 23 -2 33h-125q-39 41 -39 104q0 62 40 102q41 40 113 40t122 -58t50 -172q0 -112 -79 -220q-80 -108 -230 -171l-43 61
q193 117 193 281z" />
    <glyph glyph-name="quotedblbase" unicode="&#x201e;" horiz-adv-x="972" 
d="M553 124q0 62 39 101q40 39 112 39t122 -57t50 -170t-78 -219q-79 -106 -229 -174l-43 61q190 119 191 281q0 23 -2 34h-123q-39 42 -39 104zM264 -14q0 23 -2 34h-123q-39 42 -39 104t39 101t113 39t124 -57t50 -170t-80 -220t-229 -173l-43 61q190 117 190 281z" />
    <glyph glyph-name="dagger" unicode="&#x2020;" 
d="M496 942h34l103 -340l-103 -868h-34l-101 868zM840 1096l149 -107l-149 -106l-289 82v39zM180 1096l295 -92v-39l-295 -82l-145 106zM512 1470l109 -155l-91 -287h-34l-95 287z" />
    <glyph glyph-name="daggerdbl" unicode="&#x2021;" 
d="M498 172h32l88 -287l-106 -155l-104 155zM840 322l149 -107l-149 -106l-289 84v36zM180 322l295 -93v-36l-295 -84l-145 106zM498 942h30l107 -340l-107 -342h-30l-115 342zM840 1096l149 -107l-149 -106l-289 82v39zM180 1096l295 -92v-39l-295 -82l-145 106zM512 1470
l106 -155l-88 -287h-32l-90 287z" />
    <glyph glyph-name="bullet" unicode="&#x2022;" horiz-adv-x="1208" 
d="M307 762q0 123 87 209t209 86t209 -86t87 -208t-87 -210t-210 -88t-209 87t-86 210z" />
    <glyph glyph-name="ellipsis" unicode="&#x2026;" horiz-adv-x="2048" 
d="M1707 309q67 0 115 -48t48 -116q0 -69 -48 -115t-115 -46t-114 47t-47 115t47 116q47 47 114 47zM1023 309q67 0 115 -48t48 -116q0 -69 -48 -115t-115 -46t-114 47t-47 115t47 116q47 47 114 47zM341 309q67 0 115 -48t48 -116q0 -69 -48 -115t-115 -46t-114 47t-47 115
t47 116q47 47 114 47z" />
    <glyph glyph-name="perthousand" unicode="&#x2030;" horiz-adv-x="2635" 
d="M2238 743q-141 1 -141 -337t141 -338t141 338t-141 337zM1422 743q-142 1 -142 -337t142 -338t142 338t-142 337zM2243 834q157 0 249 -115t92 -315t-92 -314q-92 -115 -250 -115t-249 114q-92 114 -92 315q0 202 93 316t249 114zM1425 834q156 0 249 -115t93 -315
t-92 -314q-92 -115 -250 -115q-159 0 -249 114t-90 316q0 201 91 315q92 114 248 114zM410 1307q-140 0 -140 -337t140 -337q145 0 145 337t-145 337zM1272 1374h143l-856 -1374h-143zM416 1399q156 0 249 -115q93 -114 93 -314t-92 -316t-250 -116t-249 116
q-91 114 -91 316t92 316t248 113z" />
    <glyph glyph-name="guilsinglleft" unicode="&#x2039;" horiz-adv-x="522" 
d="M424 872v-172l-221 -208l221 -209v-172l-352 295v172z" />
    <glyph glyph-name="guilsinglright" unicode="&#x203a;" horiz-adv-x="522" 
d="M78 872l352 -294v-172l-352 -295v172l221 209l-221 208v172z" />
    <glyph glyph-name="fraction" unicode="&#x2044;" horiz-adv-x="342" 
d="M537 1374h143l-875 -1374h-145z" />
    <glyph glyph-name="trademark" unicode="&#x2122;" horiz-adv-x="1638" 
d="M752 1356h231v-27l119 -346l121 344v29h229v-53l-66 -13v-411l66 -13v-51h-235v49l57 15v407l-168 -471h-64l-161 471v-407l61 -13v-51h-190v51l63 13v413l-63 11v53zM227 1356h473v-152h-61l-14 90l-15 11h-86v-426l70 -13v-51h-260v51l72 13v426h-87l-14 -11l-14 -90
h-64v152z" />
    <glyph glyph-name="minus" unicode="&#x2212;" horiz-adv-x="1705" 
d="M1452 696v-170h-1198v170h1198z" />
    <glyph glyph-name="fi" unicode="&#xfb01;" horiz-adv-x="1273" 
d="M856 1330q0 62 39 102t99 38q60 0 100 -40q39 -42 39 -102t-41 -101q-40 -41 -98 -41t-98 41t-40 103zM446 1094v-123h449l113 55h92v-895l28 -31l109 -8v-92h-522v92l104 8l31 31v717h-404v-717l33 -31l107 -8v-92h-523v92l103 8l31 31v717h-134v78l134 61v8
q0 279 198 435q121 96 252 96q78 0 122 -36t44 -95q0 -85 -94 -142l-199 166q-74 -90 -74 -325z" />
    <glyph glyph-name="fl" unicode="&#xfb02;" horiz-adv-x="1284" 
d="M1110 1524v-1389l31 -33l119 -12v-90h-543v90l110 12l33 29v1200h-74l-63 -76l-195 168q-82 -88 -82 -329v-123h277v-123h-277v-717l33 -31l107 -8v-92h-523v92l103 8l31 31v717h-134v78l134 61v8q0 272 188 428q121 103 261 103t179 -101l209 99h76z" />
  </font>
</defs>
</svg>
