<?xml version="1.0" standalone="no"?>
<!DOCTYPE svg PUBLIC "-//W3C//DTD SVG 1.1//EN" "http://www.w3.org/Graphics/SVG/1.1/DTD/svg11.dtd" >
<svg xmlns="http://www.w3.org/2000/svg">
<metadata>
Created by FontPrep 20130207 at Fri Dec  4 11:35:26 2015
 By Callum Flack
(c) Copyright 1989-1992, Bitstream Inc., Cambridge, MA. You are hereby granted permission under all Bitstream propriety rights to use, copy, modify, sublicense, sell, and redistribute the 4 Bitstream Charter (r) Type 1 outline fonts and the 4 Courier Type 1 outline fonts for any purpose and without restriction; provided, that this notice is left intact on all copies of such fonts and that Bitstream's trademark is acknowledged as shown below on all unmodified copies of the 4 Charter Type 1 fonts: "BITSTREAM CHARTER is a registered trademark of Bitstream Inc."
</metadata>
<defs>
<font id="d52572890c31c3d02431a66b6cf90f36" horiz-adv-x='1024' >
  <font-face 
    font-family="Charter-BoldItalic"
    font-weight="700"
    font-style="italic"
    font-stretch="normal"
    units-per-em="2048"
    panose-1="2 0 8 3 7 0 0 9 0 4"
    ascent="1561"
    descent="-487"
    x-height="1001"
    cap-height="1374"
    bbox="-389 -483 2546 1989"
    underline-thickness="172"
    underline-position="-225"
    slope="11"
    unicode-range="U+0020-FB02"
  />
<missing-glyph horiz-adv-x="600" 
 />
    <glyph glyph-name=".notdef" horiz-adv-x="600" 
 />
    <glyph glyph-name=".null" horiz-adv-x="0" 
 />
    <glyph glyph-name="nonmarkingreturn" horiz-adv-x="681" 
 />
    <glyph glyph-name="space" unicode=" " horiz-adv-x="600" 
 />
    <glyph glyph-name="exclam" unicode="!" horiz-adv-x="696" 
d="M256 297q64 0 102 -40q39 -39 39 -103t-52 -116q-53 -52 -115 -52t-102 40t-40 104t52 115q52 52 116 52zM473 1401q61 0 95 -32t34 -81t-31 -151l-231 -731h-107l43 727q8 139 54 203t143 65z" />
    <glyph glyph-name="quotedbl" unicode="&#x22;" horiz-adv-x="694" 
d="M420 1367q0 38 25 67q26 28 71 28t71 -28t25 -78q0 -12 -4 -41l-73 -459h-39l-74 459q-2 14 -2 52zM84 1354q0 109 94 108q96 0 96 -108q0 -27 -2 -39l-73 -459h-39l-74 459q-2 14 -2 39z" />
    <glyph glyph-name="numbersign" unicode="#" horiz-adv-x="1538" 
d="M674 854l-92 -276h272l96 276h-276zM1411 979v-125h-321l-95 -276h330v-125h-373l-166 -500l-129 33l156 467h-274l-168 -500l-129 33l161 467h-286v125h327l91 276h-316v125h359l163 475l129 -37l-155 -438h282l158 473l131 -35l-156 -438h281z" />
    <glyph glyph-name="dollar" unicode="$" horiz-adv-x="1200" 
d="M793 358q0 144 -156 201l-86 -442q111 14 177 82t65 159zM670 1260q-102 -12 -162 -77t-62 -157q0 -129 142 -186zM1030 457q0 -187 -136 -311t-370 -144l-39 -215h-108l41 215q-207 12 -367 80l68 340h139l-8 -244l24 -18q88 -37 168 -43l90 477q-319 119 -319 348
q0 174 131 295t346 135l31 152h106l-28 -150q156 -8 313 -63l-68 -330h-131l9 231l-25 21q-53 20 -123 27l-86 -457q342 -115 342 -346z" />
    <glyph glyph-name="percent" unicode="%" horiz-adv-x="1839" 
d="M1434 743q-86 0 -146 -141q-72 -170 -71 -369q0 -166 96 -165q88 0 149 141q72 170 72 352t-100 182zM1456 834q129 0 203 -80t74 -219q0 -244 -124 -402t-309 -158q-128 0 -202 79t-74 210q0 254 123 412t309 158zM522 1307q-88 0 -147 -142q-72 -172 -72 -353t100 -181
q82 0 150 146t68 362q-1 168 -99 168zM1395 1374h153l-1102 -1374h-155zM543 1399q129 0 203 -81t73 -220q0 -244 -124 -402t-306 -157q-127 1 -202 79t-74 207q0 254 121 414q123 160 309 160z" />
    <glyph glyph-name="ampersand" unicode="&#x26;" horiz-adv-x="1495" 
d="M848 1110q0 82 -41 130t-118 48t-133 -61t-56 -163t125 -257q223 109 223 303zM299 399q0 -113 73 -185q72 -72 190 -73q118 0 231 88l-338 430q-156 -100 -156 -260zM1155 -14q-180 0 -301 166q-219 -178 -444 -179q-162 1 -266 101t-105 250q0 274 350 409
q-129 141 -129 291t133 264t315 113q182 0 277 -81q96 -81 96 -209t-101 -227t-288 -143l273 -354q80 74 159 229l-18 35l-96 15v98h417v-100l-143 -19q-106 -186 -252 -342q74 -107 147 -155t169 -48l30 2v-98l-121 -12q-98 -6 -102 -6z" />
    <glyph glyph-name="quotesingle" unicode="'" horiz-adv-x="358" 
d="M84 1354q0 109 94 108q96 0 96 -108q0 -27 -2 -39l-73 -459h-39l-74 459q-2 14 -2 39z" />
    <glyph glyph-name="parenleft" unicode="(" horiz-adv-x="860" 
d="M367 262q0 -427 260 -448l-21 -105q-221 4 -346 160t-125 430t111 588q82 237 263 407t429 176l-18 -104q-166 -16 -280 -165t-171 -353q-102 -360 -102 -586z" />
    <glyph glyph-name="parenright" unicode=")" horiz-adv-x="860" 
d="M678 895q0 -264 -105 -582q-84 -254 -268 -426t-430 -178l19 105q162 12 280 166t176 370q96 360 96 576q0 417 -260 440l21 104q221 -4 346 -158t125 -417z" />
    <glyph glyph-name="asterisk" unicode="*" 
d="M356 1225l189 -156l-17 -31l-266 2l-63 129zM537 1010l22 -19l-131 -256l-160 -43l25 158zM604 1010l187 -160l-35 -158l-144 45l-39 254zM866 1225l138 -54l-113 -131l-268 -4l-2 33zM655 1470l76 -124l-129 -256h-33l-32 256z" />
    <glyph glyph-name="plus" unicode="+" horiz-adv-x="1705" 
d="M938 1221v-527h514v-166h-514v-528h-170v528h-514v166h514v527h170z" />
    <glyph glyph-name="comma" unicode="," horiz-adv-x="598" 
d="M193 264q71 0 111 -42t40 -116q0 -166 -131 -302t-330 -162l17 94q238 43 272 278h-125q-23 32 -23 92t49 109q48 49 120 49z" />
    <glyph glyph-name="hyphen" unicode="-" horiz-adv-x="655" 
d="M57 594h518l-34 -201h-521z" />
    <glyph glyph-name="period" unicode="." horiz-adv-x="602" 
d="M202 305q64 0 110 -46q44 -46 44 -114q0 -69 -45 -113t-109 -44t-111 46q-46 46 -46 112t46 112q47 47 111 47z" />
    <glyph glyph-name="slash" unicode="/" horiz-adv-x="985" 
d="M907 1374h168l-1149 -1564h-170z" />
    <glyph glyph-name="zero" unicode="0" horiz-adv-x="1200" 
d="M709 1280q-156 0 -260 -254q-127 -315 -127 -664q0 -266 178 -266q152 0 252 248q125 311 125 676q0 260 -168 260zM721 1399q195 0 305 -130t111 -360q0 -365 -178 -649t-492 -285q-180 0 -294 129t-114 336q0 385 181 668q88 139 215 215t266 76z" />
    <glyph glyph-name="one" unicode="1" horiz-adv-x="1200" 
d="M870 0h-708v106l217 13l33 35l192 1022l-22 10l-291 -37v100l481 146h123l-236 -1248l21 -32l190 -13v-102z" />
    <glyph glyph-name="two" unicode="2" horiz-adv-x="1200" 
d="M821 1048q0 104 -57 160q-57 57 -158 58q-53 0 -119 -19l-51 -278q-58 -31 -118 -31t-93 34t-32 91q0 88 83 172q162 162 410 162q182 0 292 -95t109 -251q0 -197 -200 -401q-201 -203 -617 -443h572l67 184h135l-71 -391h-979l12 154q217 150 354 258t249 218
q212 212 212 418z" />
    <glyph glyph-name="three" unicode="3" horiz-adv-x="1200" 
d="M1034 440q0 -184 -184 -323t-436 -140q-172 0 -281 73t-108 171q0 63 42 107t91 45q49 0 106 -23l25 -221q72 -33 117 -33q154 0 248 92t96 240q0 102 -62 158t-178 55q-55 0 -129 -12l25 149q18 -2 53 -2q168 0 266 82t98 215q0 89 -59 145t-158 56q-53 0 -119 -27
l-41 -241q-76 -31 -120 -31t-80 35q-35 35 -35 88q0 115 143 208t341 93t303 -85q106 -85 106 -214q0 -130 -108 -230t-302 -139q340 -20 340 -291z" />
    <glyph glyph-name="four" unicode="4" horiz-adv-x="1200" 
d="M780 1112l-561 -582h447zM860 1384h201l-162 -854h227l-28 -161h-228l-84 -435h-233l80 435h-637l33 161z" />
    <glyph glyph-name="five" unicode="5" horiz-adv-x="1200" 
d="M635 860q185 0 291 -92t106 -244q0 -227 -181 -386t-454 -158q-160 0 -258 68t-98 165q0 61 41 101t94 40t94 -18l31 -221q43 -18 100 -19q159 0 261 102t102 234q0 133 -84 202t-236 68q-84 0 -239 -18l135 690h788l-38 -207h-631l-72 -348q145 41 248 41z" />
    <glyph glyph-name="six" unicode="6" horiz-adv-x="1200" 
d="M330 429q0 -153 57 -239t164 -86t189 111t83 272q0 285 -250 285q-102 0 -204 -57q-39 -133 -39 -286zM1087 549q0 -233 -171 -403t-414 -171q-203 0 -321 129q-118 130 -118 356t101 430q100 204 280 349q240 195 596 234l17 -130q-244 -23 -418 -159t-242 -355
q164 105 328 105t263 -104t99 -281z" />
    <glyph glyph-name="seven" unicode="7" horiz-adv-x="1200" 
d="M279 1374h974l-20 -125l-854 -1263l-4 -56h-223l837 1223h-586l-69 -203h-135z" />
    <glyph glyph-name="eight" unicode="8" horiz-adv-x="1200" 
d="M295 340q0 -116 69 -184q68 -68 184 -68t190 73t75 175t-73 158t-269 147q-176 -119 -176 -301zM1075 422q0 -193 -160 -326t-393 -133t-353 96t-120 258q0 121 88 221t250 154q-178 96 -178 278t147 309q147 126 352 126q204 0 310 -84t106 -223q0 -250 -307 -365
q133 -66 196 -139q62 -74 62 -172zM893 1077q0 93 -52 151q-51 58 -147 58t-164 -68t-68 -162t62 -153q60 -59 201 -127q168 109 168 301z" />
    <glyph glyph-name="nine" unicode="9" horiz-adv-x="1200" 
d="M477 457q-170 0 -274 103t-105 274q0 128 65 250t181 204q160 113 362 113t318 -118q117 -118 117 -333q1 -350 -263 -643t-731 -426l-32 115q475 143 678 557q-199 -96 -316 -96zM651 1278q-105 0 -193 -114t-89 -259q1 -145 65 -219t176 -74t226 70q90 354 -21 512
q-59 84 -164 84z" />
    <glyph glyph-name="colon" unicode=":" horiz-adv-x="708" 
d="M258 305q64 0 110 -46t46 -113q0 -66 -46 -112t-110 -46t-111 46q-45 46 -45 112t45 112q47 47 111 47zM225 838q-1 66 45 112t110 45q64 0 110 -46q46 -45 46 -111t-44 -112q-46 -46 -110 -46t-111 46q-46 46 -46 112z" />
    <glyph glyph-name="semicolon" unicode=";" horiz-adv-x="708" 
d="M90 108q0 58 48 107t120 49t113 -43t41 -115q0 -166 -131 -302t-330 -162l16 94q240 43 271 278h-123q-25 36 -25 94zM225 838q-1 66 45 112t110 45q64 0 110 -46q46 -45 46 -111t-44 -112q-46 -46 -110 -46t-111 46q-46 46 -46 112z" />
    <glyph glyph-name="less" unicode="&#x3c;" horiz-adv-x="1705" 
d="M1442 991l-934 -381l934 -381v-182l-1178 483v160l1178 486v-185z" />
    <glyph glyph-name="equal" unicode="=" horiz-adv-x="1705" 
d="M1452 487v-165h-1198v165h1198zM1452 901v-168h-1198v168h1198z" />
    <glyph glyph-name="greater" unicode="&#x3e;" horiz-adv-x="1705" 
d="M1442 690v-160l-1178 -483v182l934 381l-934 381v185z" />
    <glyph glyph-name="question" unicode="?" horiz-adv-x="1007" 
d="M318 297q62 0 102 -39q39 -40 39 -104t-52 -116q-53 -52 -115 -52t-102 40q-38 40 -38 102t52 116q52 53 114 53zM698 1083q0 93 -57 145t-166 52h-6l-135 -231q-14 -2 -41 -2q-131 0 -131 100t114 176q115 76 297 76q181 0 285 -84t104 -241q0 -158 -130 -286
q-132 -128 -386 -206l-34 -187h-133l51 277q178 57 273 166t95 245z" />
    <glyph glyph-name="at" unicode="@" horiz-adv-x="1916" 
d="M557 444q0 197 113 351q74 100 180 156q211 111 418 1l37 47h139q-14 -37 -55 -213l-76 -348q-19 -88 -19 -122t22 -54t52 -20q90 0 174 104q137 174 137 419q-1 245 -161 399t-424 153q-317 0 -533 -199q-250 -230 -250 -574t199 -544t522 -201q274 0 533 148l34 -80
q-324 -180 -622 -180q-349 0 -585 225t-236 592q0 408 297 680q258 236 641 235q311 0 500 -182t190 -473q0 -227 -115 -404q-75 -118 -183 -184t-212 -65q-164 -1 -164 165q-160 -160 -297 -159q-115 0 -185 89t-71 238zM1075 909q-127 0 -216 -123t-89 -309
q0 -217 152 -217q98 0 194 129l76 408l-76 108q-29 4 -41 4z" />
    <glyph glyph-name="A" unicode="A" horiz-adv-x="1298" 
d="M700 1128l-290 -532h374zM1253 0h-538v100l125 13l22 30l-57 340h-457l-188 -344l20 -30l121 -9v-100h-440v98l114 17l719 1271h211l209 -1245l21 -26l118 -15v-100z" />
    <glyph glyph-name="B" unicode="B" horiz-adv-x="1286" 
d="M481 109q385 0 385 335q0 213 -286 213q-51 0 -109 -6l-102 -536q57 -6 112 -6zM563 764q164 0 254 84t90 233q0 188 -248 189q-20 0 -77 -4l-93 -498q53 -4 74 -4zM168 1374h614q403 0 404 -260q0 -137 -90 -236t-265 -145q317 -16 318 -282q0 -215 -151 -333t-435 -118
h-610v100l131 11l31 30l207 1098l-23 29l-131 10v96z" />
    <glyph glyph-name="C" unicode="C" horiz-adv-x="1280" 
d="M946 1274q-225 0 -371 -150q-215 -219 -215 -585q0 -209 106 -326t292 -117q57 0 116 15l39 36l95 254h137l-66 -354q-219 -74 -420 -74q-263 0 -423 160q-160 159 -160 441t192 526q111 139 280 220q170 81 356 81t399 -70l-64 -346h-135l-2 223l-21 37q-80 29 -135 29z
" />
    <glyph glyph-name="D" unicode="D" horiz-adv-x="1437" 
d="M455 117q299 0 446 200q162 223 162 561q0 172 -96 276q-96 105 -273 106h-110l-213 -1143h84zM168 1374h553q311 0 471 -134t160 -388q0 -373 -254 -631q-221 -221 -639 -221h-510v100l135 11l29 30l206 1094l-20 31l-131 10v98z" />
    <glyph glyph-name="E" unicode="E" horiz-adv-x="1189" 
d="M174 1374h1014l-62 -319h-131l-2 174l-22 31h-385l-92 -492h249l31 29l51 151h117l-90 -477h-111l4 154l-26 28h-248l-102 -534h462l29 28l78 220h135l-67 -367h-1051v98l133 13l29 30l207 1090l-19 33l-131 10v100z" />
    <glyph glyph-name="F" unicode="F" horiz-adv-x="1103" 
d="M170 1374h995l-67 -344h-129l-4 201l-21 26h-360l-99 -512h244l37 25l53 154h117l-92 -482h-113l4 160l-28 25h-242l-92 -484l24 -30l138 -11l-9 -102h-573v98l135 15l27 28l209 1098l-21 27l-133 10v98z" />
    <glyph glyph-name="G" unicode="G" horiz-adv-x="1419" 
d="M975 1276q-221 0 -375 -137q-113 -102 -175 -256q-63 -153 -63 -347t110 -313t298 -119q37 0 109 7l77 424l-22 28l-139 12v101h579v-98l-129 -13l-31 -28l-92 -476q-246 -86 -454 -86q-270 0 -430 157t-160 421q0 207 88 385t248 295q236 170 532 170q218 0 400 -68
l-64 -350h-147l4 227l-25 39q-76 25 -139 25z" />
    <glyph glyph-name="H" unicode="H" horiz-adv-x="1529" 
d="M172 1374h565v-98l-133 -10l-26 -27l-86 -459h573l86 455l-27 31l-123 12v96h570v-98l-135 -10l-27 -27l-207 -1096l19 -30l131 -15v-98h-568v100l129 13l33 30l94 514h-573l-96 -514l22 -34l131 -9v-100h-575v100l131 11l33 32l206 1092l-20 31l-127 8v100z" />
    <glyph glyph-name="I" unicode="I" horiz-adv-x="722" 
d="M178 1374h578v-98l-135 -8l-33 -29l-207 -1102l25 -28l133 -9v-100h-580v100l135 11l31 30l207 1098l-21 29l-133 8v98z" />
    <glyph glyph-name="J" unicode="J" horiz-adv-x="970" 
d="M438 1374h578v-98l-137 -12l-29 -33l-117 -682q-49 -293 -176 -434t-348 -142q-172 0 -301 56l69 364h146l2 -278l27 -25h4q154 0 212 100t105 363l123 684l-21 31l-137 8v98z" />
    <glyph glyph-name="K" unicode="K" horiz-adv-x="1337" 
d="M1061 -14q-119 0 -174 48t-119 177l-186 389h-129l-84 -459l22 -32l127 -9v-100h-571v100l131 11l31 30l206 1098l-20 29l-129 10v96h571v-96l-135 -10l-27 -29l-102 -537h62l514 529l-13 33l-127 10v100h512v-100l-164 -17l-479 -485l262 -524q43 -86 87 -119t135 -33
l43 2v-96q-233 -16 -244 -16z" />
    <glyph glyph-name="L" unicode="L" horiz-adv-x="1083" 
d="M166 1374h571v-98l-129 -10l-35 -27l-208 -1120h370l37 28l80 256h147l-77 -403h-973v98l127 13l33 26l206 1102l-20 29l-129 10v96z" />
    <glyph glyph-name="M" unicode="M" horiz-adv-x="1830" 
d="M174 1374h528v-61l152 -948l500 954v55h514v-100l-131 -10l-31 -29l-197 -1094l21 -30l127 -13v-98h-553v102l135 11l29 28l196 1102l-649 -1243h-147l-195 1233l-213 -1094l25 -28l123 -11v-100h-457v100l131 15l31 30l215 1088l-19 33l-135 10v98z" />
    <glyph glyph-name="N" unicode="N" horiz-adv-x="1458" 
d="M164 1374h452v-49l420 -993l174 907l-24 27l-133 14v94h469v-96l-131 -10l-33 -27l-232 -1241h-211l-471 1110l-184 -963l19 -34l135 -13v-100h-467v102l133 11l29 30l208 1096l-22 29l-131 10v96z" />
    <glyph glyph-name="O" unicode="O" horiz-adv-x="1492" 
d="M1124 852q0 202 -80 314t-219 112q-188 0 -326 -229t-139 -525q0 -198 84 -312t220 -114q190 0 325 226t135 528zM844 1401q256 0 412 -156t157 -409q0 -324 -188 -570q-109 -141 -259 -217t-325 -76q-254 0 -409 157t-154 413q0 322 188 569q102 137 255 213t323 76z
" />
    <glyph glyph-name="P" unicode="P" horiz-adv-x="1189" 
d="M524 625q184 0 287 104q102 104 102 289q0 244 -280 244q-33 0 -51 -2l-121 -633q23 -2 63 -2zM172 1374h528q204 0 298 -40t145 -120t51 -182q0 -232 -168 -378t-453 -146q-80 0 -133 4l-69 -369l18 -34l135 -9v-100h-573v100l131 11l31 28l206 1094l-20 35l-127 10v96z
" />
    <glyph glyph-name="Q" unicode="Q" horiz-adv-x="1492" 
d="M365 555q0 -205 88 -324t227 -119t260 144q80 94 129 246t49 339t-85 305t-222 118t-260 -146q-88 -104 -137 -271t-49 -292zM1086 -336q-128 0 -219 76t-165 240q-25 -2 -71 -3q-193 0 -314 89q-243 176 -243 496t219 579q105 125 249 193t306 67q252 0 408 -157
q156 -158 155 -410q0 -252 -116 -455t-328 -320q66 -135 123 -190t141 -55t211 43v-95q-228 -98 -356 -98z" />
    <glyph glyph-name="R" unicode="R" horiz-adv-x="1320" 
d="M545 719q176 0 274 88t99 240q0 113 -69 163t-216 52l-45 -2l-103 -539q20 -2 60 -2zM168 1374h594q223 0 331 -72q107 -72 107 -227t-114 -265t-318 -142q123 -25 175 -105q52 -79 94 -231t82 -194t149 -42h26v-94q-102 -14 -188 -14q-141 0 -214 66t-116 227l-17 77
q-21 93 -40 131q-20 38 -45 60q-68 55 -185 55h-26l-88 -465l18 -28l137 -11v-100h-575v98l129 13l31 26l209 1098l-23 31l-133 10v98z" />
    <glyph glyph-name="S" unicode="S" horiz-adv-x="1132" 
d="M454 119q110 -1 191 69q80 70 80 177q0 122 -182 219q-95 51 -129 71q-125 76 -178 144t-54 174q0 186 146 306t383 120q154 0 331 -56l-55 -346h-123l4 226l-16 20q-63 35 -143 35q-123 0 -203 -67t-80 -151t52 -131q52 -48 121 -86t71 -40t14 -8q166 -96 232 -164
t65 -191q0 -190 -154 -322t-377 -132t-403 106l55 332h136l-2 -244l14 -20q94 -41 204 -41z" />
    <glyph glyph-name="T" unicode="T" horiz-adv-x="1196" 
d="M774 0h-590v102l142 9l28 32l207 1119h-231l-37 -27l-74 -221h-143l69 360h1139l-67 -360h-138l4 221l-28 27h-232l-211 -1121l23 -28l139 -13v-100z" />
    <glyph glyph-name="U" unicode="U" horiz-adv-x="1435" 
d="M156 1374h567v-96l-129 -10l-29 -25l-135 -715q-18 -102 -18 -149q0 -243 288 -243q148 0 233 88q85 89 124 286l141 719l-20 35l-136 14v96h463v-96l-131 -14l-31 -29l-139 -721q-28 -139 -60 -225t-108 -162q-154 -154 -450 -154q-211 -1 -325 93t-114 270q0 80 21 184
l137 719l-24 27l-125 10v98z" />
    <glyph glyph-name="V" unicode="V" horiz-adv-x="1263" 
d="M55 1374h529v-98l-125 -8l-19 -33l152 -954l495 960l-14 27l-119 8v98h432v-94l-118 -18l-678 -1268h-199l-203 1241l-18 27l-115 14v98z" />
    <glyph glyph-name="W" unicode="W" horiz-adv-x="1886" 
d="M88 1374h524v-96l-125 -12l-22 -35l65 -854l459 997h197l104 -1016l383 879l-16 29l-119 10v98h434v-94l-129 -20l-559 -1260h-184l-109 1055l-487 -1055h-187l-96 1237l-20 25l-113 14v98z" />
    <glyph glyph-name="X" unicode="X" horiz-adv-x="1245" 
d="M106 1374h562v-96l-125 -12l-23 -31l162 -375l332 379l-13 29l-114 10v96h461v-96l-134 -12l-471 -529l271 -612l18 -19l125 -10v-96h-567v98l131 11l24 30l-176 408l-362 -410l20 -28l129 -11v-98h-489v98l119 13l26 18l492 551l-252 567l-16 19l-130 8v100z" />
    <glyph glyph-name="Y" unicode="Y" horiz-adv-x="1200" 
d="M53 1374h559v-98l-127 -12l-24 -29l174 -533l379 527l-19 33l-131 12v100h479v-96l-133 -18l-20 -19l-500 -676l-80 -426l23 -26l139 -13v-100h-582v100l138 13l32 32l74 392l-233 710l-19 17l-129 12v98z" />
    <glyph glyph-name="Z" unicode="Z" horiz-adv-x="1171" 
d="M242 1374h946l-6 -100l-893 -1153h493l33 29l78 251h145l-75 -401h-998l6 102l891 1151h-436l-37 -20l-70 -223h-147z" />
    <glyph glyph-name="bracketleft" unicode="[" horiz-adv-x="919" 
d="M416 1450h551l-21 -115h-315l-271 -1493h316l-19 -112h-553z" />
    <glyph glyph-name="backslash" unicode="\" horiz-adv-x="985" 
d="M209 1374l823 -1564h-162l-827 1564h166z" />
    <glyph glyph-name="bracketright" unicode="]" horiz-adv-x="919" 
d="M223 1450h551l-309 -1720h-551l20 112h316l268 1495h-315z" />
    <glyph glyph-name="asciicircum" unicode="^" horiz-adv-x="2048" 
d="M1130 1462l502 -565h-104l-506 397l-506 -397h-104l503 565h215z" />
    <glyph glyph-name="underscore" unicode="_" 
d="M1024 -311v-172h-1024v172h1024z" />
    <glyph glyph-name="grave" unicode="`" 
d="M336 1520h254l123 -390h-138z" />
    <glyph glyph-name="a" unicode="a" horiz-adv-x="1171" 
d="M299 382q0 -232 156 -232q88 0 207 96l96 542l-82 123l-27 2q-145 0 -248 -149q-102 -150 -102 -382zM657 137v10q-174 -163 -319 -163t-223 98t-78 296t123 386q76 116 196 182t242 66t254 -51l76 49h121q-29 -88 -70 -312l-61 -331q-18 -99 -18 -147t24 -78
q26 -30 72 -30t124 23v-76q-197 -72 -309 -71q-154 0 -154 149z" />
    <glyph glyph-name="b" unicode="b" horiz-adv-x="1138" 
d="M457 80q123 0 224 157t101 386t-172 229q-70 0 -188 -72l-113 -643q68 -57 148 -57zM276 1331l-167 27v72l350 77h90q-3 -20 -17 -103t-26 -144l-72 -392q186 144 318 144t211 -100q78 -100 77 -265q0 -297 -206 -504q-162 -162 -428 -161q-193 0 -351 90z" />
    <glyph glyph-name="c" unicode="c" horiz-adv-x="894" 
d="M33 373q0 223 135 407q76 104 199 166t237 64q114 0 174 -45t60 -115t-46 -112t-124 -44l-131 209q-105 -31 -177 -164t-72 -293q1 -304 204 -303q143 0 315 152v-121q-219 -195 -428 -194q-156 0 -251 108t-95 285z" />
    <glyph glyph-name="d" unicode="d" horiz-adv-x="1185" 
d="M641 924q-129 0 -234 -157t-106 -380q0 -113 42 -176t114 -64q98 0 223 115l88 535l-86 123q-29 4 -41 4zM920 212q0 -42 24 -71t73 -29q48 0 126 23v-76q-344 -126 -437 -31q-40 40 -40 124v6q-174 -174 -332 -174q-129 0 -210 102t-81 296t113 372q82 126 206 194
t271 68q76 0 168 -35l57 350l-172 27v69l356 80h86l-190 -1140q-18 -113 -18 -155z" />
    <glyph glyph-name="e" unicode="e" horiz-adv-x="950" 
d="M575 903q-81 0 -155 -92t-115 -260q166 8 268 81t103 167q0 47 -28 75t-73 29zM285 403q0 -129 57 -199t162 -69q139 0 321 144l-4 -125q-221 -172 -405 -172t-281 103q-96 103 -96 286q0 301 231 497q162 137 359 138q119 0 187 -60t67 -164q-1 -147 -139 -233t-392 -86
l-63 2q-4 -45 -4 -62z" />
    <glyph glyph-name="f" unicode="f" horiz-adv-x="665" 
d="M739 956v-120h-297l-75 -535q-43 -289 -139 -439t-200 -226q-105 -75 -202 -74q-61 0 -101 37t-40 90q0 94 82 129l219 -117q74 96 133 508l88 627l-137 -17l2 90l159 70q41 236 181 379t305 143q86 0 142 -41t56 -94t-35 -90t-96 -51l-172 180q-90 -109 -151 -449h278z
" />
    <glyph glyph-name="g" unicode="g" horiz-adv-x="1058" 
d="M158 -114q0 -103 73 -167q73 -63 183 -63t175 47t65 118t-119 126l-246 112q-131 -70 -131 -173zM449 424q78 0 141 100t63 246q0 148 -112 148q-76 0 -141 -102t-64 -236q0 -156 113 -156zM1079 948v-106h-209q20 -72 21 -117q0 -170 -128 -282t-335 -113
q-25 -39 -25 -78v-8l310 -148q96 -47 141 -97t45 -124q0 -129 -157 -225q-158 -96 -370 -96t-323 76t-110 196q0 96 72 168q73 72 227 133v8q0 102 86 209q-113 30 -173 100t-61 164q0 172 128 286t327 114q125 -1 254 -60h280z" />
    <glyph glyph-name="h" unicode="h" horiz-adv-x="1218" 
d="M836 1012q90 0 143 -54t53 -126q0 -74 -22 -183l-62 -282q-22 -105 -22 -151t24 -75t72 -29q47 0 125 23v-76q-197 -72 -309 -71q-166 0 -166 145q0 39 16 109l74 340q18 90 18 137q0 117 -98 117t-260 -136l-127 -700h-254l268 1341l-178 21l-2 65l365 80h92
q-35 -147 -76 -352l-70 -346q246 203 396 203z" />
    <glyph glyph-name="i" unicode="i" horiz-adv-x="651" 
d="M248 -14q-150 0 -150 159q0 37 19 138l110 551l-168 26v74l351 76h90l-131 -693q-10 -57 -11 -84q0 -113 101 -112q45 0 141 29v-84q-202 -80 -352 -80zM448 1485q66 0 103 -36q37 -37 37 -99t-45 -106t-109 -44t-103 36q-38 36 -38 98t45 107q44 44 110 44z" />
    <glyph glyph-name="j" unicode="j" horiz-adv-x="608" 
d="M-160 -438q-63 0 -101 34t-38 91q0 88 70 123l239 -97q45 57 74 166t57 305l97 650l-185 26v74l367 76h90l-111 -693q-21 -131 -37 -203t-58 -168q-42 -95 -107 -167q-199 -217 -357 -217zM287 1332q1 62 45 105q44 44 110 44t102 -36q38 -37 38 -99t-45 -106t-109 -44
t-102 37q-39 37 -39 99z" />
    <glyph glyph-name="k" unicode="k" horiz-adv-x="1144" 
d="M940 1012q57 0 93 -39t36 -99q0 -129 -166 -178l-74 119q-131 -100 -188 -158q147 -342 190 -415q80 -133 177 -133q33 0 104 16v-80q-203 -59 -291 -59t-136 50t-99 171l-129 299l-95 -103l-71 -403h-244l258 1343l-182 17v67l369 80h88l-199 -979l266 281
q100 107 168 155t125 48z" />
    <glyph glyph-name="l" unicode="l" horiz-adv-x="628" 
d="M70 133q0 27 14 109l203 1089l-168 27v72l350 77h90l-213 -1140q-22 -109 -22 -153t24 -73q45 -56 225 2v-80q-227 -82 -321 -81q-182 0 -182 151z" />
    <glyph glyph-name="m" unicode="m" horiz-adv-x="1808" 
d="M850 1010q88 0 138 -50t54 -145q221 195 381 195q95 0 149 -54t54 -149q0 -51 -16 -133l-66 -307q-22 -101 -22 -149t24 -77t71 -29q48 0 126 23v-76q-197 -72 -309 -71q-166 0 -166 145q0 37 16 109l78 362q16 72 16 119q0 113 -102 113q-109 0 -242 -127l-121 -709
h-251l118 616q14 76 15 103q0 119 -103 119q-94 0 -248 -127l-125 -711h-249l159 829l-163 25v72l348 84h80l-39 -201q225 201 395 201z" />
    <glyph glyph-name="n" unicode="n" horiz-adv-x="1228" 
d="M862 1010q82 0 134 -56t52 -128t-22 -179l-61 -280q-23 -109 -23 -153t25 -73t71 -29t125 23v-78q-188 -70 -309 -69q-166 0 -166 145q0 23 17 109l73 340q18 90 18 140t-26 82q-27 32 -74 32q-96 0 -256 -136l-121 -700h-260l164 831l-170 23v68l361 88h80l-41 -203
q250 203 409 203z" />
    <glyph glyph-name="o" unicode="o" horiz-adv-x="1126" 
d="M584 903q-115 1 -198 -149t-83 -383q0 -287 174 -287q117 0 201 148t84 378q0 293 -178 293zM610 1010q192 0 304 -114t112 -308q0 -262 -168 -436t-403 -175q-193 0 -305 116t-111 310q0 255 169 431t402 176z" />
    <glyph glyph-name="p" unicode="p" horiz-adv-x="1157" 
d="M807 627q0 111 -43 171t-122 60t-198 -88l-112 -627q72 -35 141 -34q137 0 236 147q98 147 98 371zM1063 653q0 -289 -186 -483q-166 -176 -404 -176q-74 0 -160 33l-61 -357l190 -37v-79h-571v81l125 33l18 27l201 1147l-160 20v72l342 76h90l-28 -140q172 141 329 142
q123 0 199 -96t76 -263z" />
    <glyph glyph-name="q" unicode="q" horiz-adv-x="1150" 
d="M645 920q-125 0 -217 -123q-53 -70 -90 -183q-37 -112 -37 -226t46 -176t132 -62t201 90l92 551l-88 127q-12 2 -39 2zM1006 -446h-576v81l127 25l23 29l79 446q-178 -147 -315 -147t-216 99t-79 275q0 266 163 460t409 194q102 0 233 -47l92 47h109q-43 -229 -70 -389
l-164 -961l185 -35v-77z" />
    <glyph glyph-name="r" unicode="r" horiz-adv-x="919" 
d="M922 854q0 -72 -54 -121t-145 -49h-4l-55 156q-122 -50 -186 -138t-87 -227l-80 -475h-252l164 831l-170 25v70l353 84h71l-57 -275q197 272 350 273q68 0 110 -41t42 -113z" />
    <glyph glyph-name="s" unicode="s" horiz-adv-x="825" 
d="M314 76q68 0 110 42q43 42 43 93t-9 69q-32 67 -101 110q-7 4 -29 20q-133 92 -181 147q-47 55 -47 125q0 137 116 232t290 96q111 0 173 -41t62 -103t-39 -98q-39 -35 -106 -37l-96 184q-29 4 -41 5q-66 0 -108 -34t-42 -80t38 -85q39 -39 113 -93t105 -80
q89 -70 112 -138q13 -39 13 -91q0 -139 -116 -238t-271 -99t-242 61q-86 61 -86 152q0 57 35 92q36 35 94 35t109 -48l-37 -149q70 -49 138 -49z" />
    <glyph glyph-name="t" unicode="t" horiz-adv-x="749" 
d="M758 969v-119h-303l-93 -502q-12 -61 -12 -102q0 -129 121 -129q68 0 178 37v-82q-252 -88 -354 -88q-197 0 -197 194q0 61 15 131l102 541l-135 -6v74l176 88l135 225h133l-47 -262h281z" />
    <glyph glyph-name="u" unicode="u" horiz-adv-x="1226" 
d="M948 214q0 -44 25 -73t73 -29t125 23v-76q-227 -78 -321 -77q-154 0 -154 157v19q-236 -178 -377 -178q-100 0 -155 55t-55 155q0 47 12 111l100 533l-164 24v64l355 75h77l-118 -612q-16 -88 -17 -121q0 -111 109 -110q96 0 246 98l139 721l244 28l-121 -634
q-23 -109 -23 -153z" />
    <glyph glyph-name="v" unicode="v" horiz-adv-x="1007" 
d="M828 1012q64 0 102 -38t37 -104q-1 -115 -145 -341t-425 -531h-176q23 74 23 125l-45 452q-23 221 -49 269l-166 24v66l323 76q57 -16 77 -60t28 -147l51 -582q186 229 287 436l-48 304q62 51 126 51z" />
    <glyph glyph-name="w" unicode="w" horiz-adv-x="1572" 
d="M1516 866q0 -120 -127 -320t-404 -546h-176l-41 707q-197 -381 -383 -707h-192l18 63l-45 779l-170 24v68l293 78h94l41 -748q225 416 354 701l193 16q14 -317 45 -786q217 289 289 454l-50 307q51 54 119 54t104 -40q38 -40 38 -104z" />
    <glyph glyph-name="x" unicode="x" horiz-adv-x="1044" 
d="M346 1012q80 0 121 -79t94 -288q188 352 357 352q57 -1 93 -37t36 -94q0 -117 -132 -155l-79 108q-121 -53 -228 -276q80 -276 111 -334q51 -98 141 -98q55 0 113 14v-80q-184 -57 -285 -57t-159 85t-103 292q-102 -187 -187 -277t-171 -90q-59 0 -103 40q-43 40 -43 91
t35 92t96 55l88 -108q133 92 240 303q-92 295 -143 367l-187 14v70l281 90h14z" />
    <glyph glyph-name="y" unicode="y" horiz-adv-x="1011" 
d="M12 -442q-72 0 -122 47t-50 105t32 95t87 48l137 -129q139 12 305 329h-77l-123 649q-14 84 -51 154l-179 16v68l316 72q63 -12 97 -86t58 -230l70 -446q170 424 313 760h64l162 -54v-55l-121 -67q-90 -121 -215 -404t-185 -387q-270 -485 -518 -485z" />
    <glyph glyph-name="z" unicode="z" horiz-adv-x="952" 
d="M634 184q73 0 128 52l-131 147q43 90 119 90q49 0 84 -40t34 -101q0 -115 -95 -226t-232 -110q-68 0 -182 42q-115 42 -149 42t-58 -6l-50 -103l-143 84l670 721l-178 -37q-109 76 -177 76t-112 -45l119 -137q-47 -86 -123 -86q-47 0 -75 36q-28 35 -28 101t54 156
q104 174 262 174q75 0 148 -37t109 -53t72 -15q35 0 45 2l48 117l151 -94l-678 -713l178 49q117 -86 190 -86z" />
    <glyph glyph-name="braceleft" unicode="{" horiz-adv-x="997" 
d="M383 104v166q0 150 -54 209t-192 60h-41v116h41q139 1 193 59t53 204v172q0 198 102 276t349 78h45v-105q-152 -4 -205 -58t-53 -198v-127q0 -162 -71 -246t-231 -112q156 -25 230 -111t74 -243v-150q0 -150 50 -204t206 -56v-108l-64 -2q-240 0 -336 84t-96 296z" />
    <glyph glyph-name="bar" unicode="|" 
d="M602 1565v-2048h-178v2048h178z" />
    <glyph glyph-name="braceright" unicode="}" horiz-adv-x="997" 
d="M377 94v150q0 307 303 354q-160 27 -232 112t-71 246v127q0 141 -52 197t-204 59v105h45q246 0 348 -79t102 -275v-172q0 -144 52 -204t188 -61l47 2v-116h-41q-137 1 -191 -59t-55 -210v-166q0 -213 -96 -297t-336 -83l-63 2v108q156 2 206 56t50 204z" />
    <glyph glyph-name="asciitilde" unicode="~" horiz-adv-x="1705" 
d="M1149 459q-90 0 -191 35q-26 8 -80 27q-209 73 -315 73q-158 0 -385 -160v187q212 143 378 143t401 -94q97 -39 194 -39q166 0 379 153v-184q-205 -141 -381 -141z" />
    <glyph glyph-name="exclamdown" unicode="&#xa1;" horiz-adv-x="696" 
d="M88 100q0 52 31 150l231 733h107l-43 -727q-8 -139 -54 -205t-143 -65q-61 0 -95 32q-34 30 -34 82zM434 1092q-64 0 -102 38q-39 38 -39 103q0 64 52 116q53 52 115 52t102 -40q40 -39 40 -103t-52 -115t-116 -51z" />
    <glyph glyph-name="cent" unicode="&#xa2;" horiz-adv-x="1200" 
d="M342 412q0 -252 184 -297l154 817q-150 -29 -244 -173t-94 -347zM94 428q0 246 166 418t438 196l39 205h111l-39 -203q203 -16 287 -59l-54 -266h-124l4 182q-61 33 -134 37l-155 -827q80 4 153 34l60 185h131l-55 -279q-147 -47 -310 -51l-41 -211h-110l39 215
q-190 24 -298 138t-108 286z" />
    <glyph glyph-name="sterling" unicode="&#xa3;" horiz-adv-x="1200" 
d="M850 1280q-133 0 -206 -133t-97 -412h368l-16 -123h-371q-37 -276 -278 -407l6 -12q102 12 205 12h543l-25 -205h-1002l19 154q139 25 201 130q61 105 86 328h-142l15 123h139q19 313 165 481t386 168q135 0 220 -62t85 -134t-45 -110t-123 -38q-27 0 -39 2l-80 238h-14z
" />
    <glyph glyph-name="currency" unicode="&#xa4;" horiz-adv-x="1241" 
d="M623 596q121 0 205 84t85 204q0 120 -86 206q-87 86 -205 86t-204 -86t-86 -206t85 -204t206 -84zM622 1309q142 0 250 -82l203 203l94 -93l-204 -204q79 -109 79 -248t-79 -248l204 -205l-94 -92l-203 205q-112 -82 -252 -82t-249 82l-203 -205l-92 92l203 205
q-80 109 -80 248t80 248l-203 204l92 93l203 -203q109 82 251 82z" />
    <glyph glyph-name="yen" unicode="&#xa5;" horiz-adv-x="1230" 
d="M100 1368h539v-100l-125 -13l-22 -22l174 -518l362 499l-8 33l-100 23v98h413v-100l-123 -23l-272 -368h260v-103h-344l-143 -194h428v-101h-441l-59 -338l29 -30l135 -11v-100h-600v100l145 11l43 30l60 338h-431v101h429l-66 194h-307v103h264l-125 370l-115 21v100z
" />
    <glyph glyph-name="brokenbar" unicode="&#xa6;" 
d="M602 408v-758h-178v758h178zM602 1432v-758h-178v758h178z" />
    <glyph glyph-name="section" unicode="&#xa7;" 
d="M260 612q0 -78 59 -133t201 -127q209 106 209 244t-256 256q-101 -37 -157 -99q-56 -63 -56 -141zM672 1370q-88 0 -156 -56t-68 -123t39 -97q65 -52 213 -123q117 -65 170 -133q54 -68 54 -172t-84 -208q-84 -105 -230 -163q162 -96 162 -221q0 -152 -132 -257
t-345 -106q-160 0 -315 66l49 280h116l-6 -188q88 -51 181 -51t161 56t68 132t-79 128q-79 53 -210 116q-190 102 -190 282q0 121 78 220q79 98 229 155q-156 92 -156 221q0 152 130 249t349 98q137 -1 301 -52l-49 -278h-110l10 168q-92 57 -180 57z" />
    <glyph glyph-name="dieresis" unicode="&#xa8;" 
d="M836 1454q53 0 92 -40t39 -95t-39 -94t-92 -39t-93 39q-39 39 -39 95t39 95q40 39 93 39zM412 1454q53 0 92 -40t39 -94t-39 -94t-92 -40t-91 39t-38 95t38 95t91 39z" />
    <glyph glyph-name="copyright" unicode="&#xa9;" horiz-adv-x="1830" 
d="M1253 877h-108l-31 161q-61 37 -129 37q-141 0 -229 -106q-88 -105 -88 -277t89 -276t224 -105q59 0 135 33l31 174h106v-256q-145 -51 -292 -51q-236 0 -377 134q-142 134 -142 347t144 348t375 136q145 -1 292 -52v-247zM925 1403q-288 0 -493 -210t-205 -500
q0 -289 208 -495t495 -206q286 0 490 210t204 500t-206 495q-206 206 -493 206zM928 1493q158 0 306 -62q148 -61 259 -173t170 -260t59 -306t-63 -304t-180 -263q-231 -227 -556 -227t-559 232t-235 562t231 566t568 235z" />
    <glyph glyph-name="ordfeminine" unicode="&#xaa;" horiz-adv-x="878" 
d="M225 933q0 -163 117 -163q68 0 154 68l73 379l-61 86l-21 2q-109 -1 -185 -105t-77 -267zM674 813q0 -27 19 -49t53 -21q34 0 94 17v-53q-143 -49 -232 -50q-115 0 -114 105v6q-132 -115 -240 -115t-167 69q-58 69 -58 208t92 270q57 82 147 128t178 46t193 -37l57 35h90
q-27 -84 -51 -217l-47 -233q-14 -82 -14 -109z" />
    <glyph glyph-name="guillemotleft" unicode="&#xab;" horiz-adv-x="921" 
d="M877 870l-31 -170l-264 -208l186 -209l-31 -170l-305 293l33 172zM465 870l-31 -170l-264 -208l186 -209l-30 -170l-306 293l33 172z" />
    <glyph glyph-name="logicalnot" unicode="&#xac;" horiz-adv-x="1705" 
d="M1452 862v-502h-166v336h-1032v166h1198z" />
    <glyph glyph-name="registered" unicode="&#xae;" horiz-adv-x="1830" 
d="M858 725q223 0 223 170t-231 170l-35 -2v-336q14 -2 43 -2zM510 1145h459q324 0 323 -221q0 -188 -248 -232q94 -19 131 -61q17 -21 24 -27q19 -18 56 -119q37 -102 75 -131t112 -28h10v-76q-86 -12 -125 -12q-150 0 -214 88q-22 29 -30 47t-21 63q-38 132 -89 169
q-51 36 -133 36h-25v-295l119 -22v-76h-418v74l107 24v703l-113 24v72zM928 1403q-291 0 -496 -207q-205 -206 -205 -498t204 -499t494 -207q291 0 495 209t204 497t-202 496q-202 209 -494 209zM928 1493q158 0 306 -62q148 -61 259 -173t170 -260t59 -306t-63 -304
t-180 -263q-231 -227 -556 -227t-559 232t-235 562t231 566t568 235z" />
    <glyph glyph-name="macron" unicode="&#xaf;" 
d="M307 1382h678l-24 -139h-678z" />
    <glyph glyph-name="degree" unicode="&#xb0;" horiz-adv-x="673" 
d="M522 1165q0 76 -54 130q-54 55 -131 55t-131 -54t-54 -131q0 -76 55 -131t132 -55t130 55t53 131zM338 1460q123 0 209 -87t86 -209t-87 -209t-210 -87t-208 85t-85 210t86 211t209 86z" />
    <glyph glyph-name="plusminus" unicode="&#xb1;" horiz-adv-x="1705" 
d="M1452 182v-168h-1198v168h1198zM938 1206v-334h514v-165h-514v-334h-170v334h-514v165h514v334h170z" />
    <glyph glyph-name="twosuperior" unicode="&#xb2;" horiz-adv-x="792" 
d="M210 1112q-84 0 -84 84q0 45 56 94q106 96 271 96q121 0 193 -57t71 -149q-1 -119 -133 -241t-406 -265h377l45 110h90l-47 -235h-647l8 92q287 180 413 299t126 240q0 59 -39 94q-40 35 -90 35t-92 -13l-33 -166q-39 -18 -79 -18z" />
    <glyph glyph-name="threesuperior" unicode="&#xb3;" horiz-adv-x="792" 
d="M682 813q0 -109 -121 -194t-289 -84q-116 0 -186 44t-70 103q0 38 28 64t61 26t69 -12l16 -133q51 -20 78 -21q100 0 164 56t64 143q0 129 -160 129q-41 0 -84 -8l16 90q12 -2 35 -2q111 0 175 49t65 115q0 66 -39 101q-40 34 -90 34t-92 -17l-27 -143q-45 -18 -78 -18
t-55 20t-23 53q0 68 94 124q93 56 225 56t202 -50q70 -52 69 -130q1 -78 -71 -137t-199 -84q223 -12 223 -174z" />
    <glyph glyph-name="acute" unicode="&#xb4;" 
d="M782 1520h252l-389 -390h-137z" />
    <glyph glyph-name="mu" unicode="&#xb5;" horiz-adv-x="1183" 
d="M412 141q157 0 204 221l111 523h209l-113 -533q-18 -88 -18 -125q0 -90 86 -90q78 0 129 90q8 16 18 40q29 69 56 69q22 0 22 -29t-16 -86t-41 -102q-82 -143 -219 -144q-172 0 -176 211q-86 -211 -267 -211q-203 0 -225 226q-23 -133 -45 -298q-23 -165 -37 -222
t-38 -79t-66 -22t-69 27q-26 27 -26 73t27 137q109 368 150 556l108 512h207l-100 -467q-21 -94 -21 -148t37 -92t113 -37z" />
    <glyph glyph-name="paragraph" unicode="&#xb6;" horiz-adv-x="1007" 
d="M547 1374h407v-88l-127 -20v-1428h-116v1438h-150v-739h-31q-250 0 -370 101t-121 318q0 218 123 318t385 100z" />
    <glyph glyph-name="periodcentered" unicode="&#xb7;" horiz-adv-x="598" 
d="M300 846q64 0 111 -46q46 -46 46 -113t-46 -112q-47 -45 -111 -45t-110 45q-45 45 -45 111t45 113q46 47 110 47z" />
    <glyph glyph-name="cedilla" unicode="&#xb8;" 
d="M430 -115q139 0 139 -121q0 -98 -81 -166t-207 -69q-76 0 -162 22l18 97q166 -34 228 8q37 25 36 65q0 53 -82 54q-10 0 -43 -4l43 229h101l-23 -117q12 2 33 2z" />
    <glyph glyph-name="onesuperior" unicode="&#xb9;" horiz-adv-x="792" 
d="M573 549h-467v63l144 9l20 20l129 612l-16 7l-190 -21v59l317 88h80l-156 -749l15 -19l124 -8v-61z" />
    <glyph glyph-name="ordmasculine" unicode="&#xba;" horiz-adv-x="845" 
d="M438 1298q-86 0 -148 -104t-63 -268q0 -201 131 -201q88 0 151 103q62 103 62 266q0 204 -133 204zM442 1372q160 0 244 -80t84 -215q0 -184 -127 -306t-285 -122t-244 81q-85 81 -85 218q0 178 135 307q118 117 278 117z" />
    <glyph glyph-name="guillemotright" unicode="&#xbb;" horiz-adv-x="921" 
d="M524 870l305 -292l-30 -172l-414 -293l31 170l264 209l-186 208zM113 870l305 -292l-33 -172l-412 -293l31 170l264 209l-186 208z" />
    <glyph glyph-name="onequarter" unicode="&#xbc;" horiz-adv-x="1853" 
d="M1589 623l-354 -326h283zM1640 776h125l-100 -479h141l-16 -90h-143l-54 -244h-147l51 244h-401l20 90zM1335 1374h144l-969 -1374h-143zM549 604h-447v60l136 6l22 20l121 572l-14 6l-185 -21v58l303 79h78l-147 -698l12 -18l121 -6v-58z" />
    <glyph glyph-name="onehalf" unicode="&#xbd;" horiz-adv-x="1853" 
d="M1616 588q0 57 -37 89t-83 32t-91 -11l-33 -155q-37 -18 -74 -19q-80 0 -79 72q0 49 53 96q104 90 238 90t204 -54t70 -140q0 -110 -127 -224t-389 -247h360l43 102h84l-45 -219h-616l8 86q274 168 394 279t120 223zM1335 1374h144l-969 -1374h-143zM549 604h-447v60
l136 6l22 20l121 572l-14 6l-185 -21v58l303 79h78l-147 -698l12 -18l121 -6v-58z" />
    <glyph glyph-name="threequarters" unicode="&#xbe;" horiz-adv-x="1853" 
d="M1589 623l-354 -326h283zM1640 776h125l-100 -479h141l-16 -90h-143l-54 -244h-147l51 244h-401l20 90zM1335 1374h144l-969 -1374h-143zM651 850q0 -100 -116 -182q-115 -76 -275 -76q-108 0 -176 40t-68 86t26 70t58 25q32 0 66 -12l16 -125q51 -18 74 -19q96 1 156 53
t61 134q0 119 -151 119q-35 0 -82 -7l16 84q10 -2 33 -2q106 0 168 46q61 46 61 108t-37 94q-37 31 -87 31t-87 -14l-26 -136q-45 -16 -74 -16t-51 19t-23 49q0 67 90 117q89 50 215 50t192 -47t66 -119t-68 -128q-68 -58 -190 -78q213 -12 213 -164z" />
    <glyph glyph-name="questiondown" unicode="&#xbf;" horiz-adv-x="1007" 
d="M279 301q0 -94 57 -145t164 -52h6l133 232q33 4 47 4q127 0 127 -104q0 -98 -114 -174q-113 -76 -295 -76t-287 85t-105 239t132 285q132 130 386 208l35 186h133l-53 -276q-178 -57 -272 -165t-94 -247zM665 1399q62 0 108 -45t46 -110q0 -64 -45 -110t-108 -46
q-62 0 -108 46t-46 110t45 110q46 45 108 45z" />
    <glyph glyph-name="Agrave" unicode="&#xc0;" horiz-adv-x="1298" 
d="M504 1901h254l123 -390h-138zM700 1128l-290 -532h374zM1253 0h-538v100l125 13l22 30l-57 340h-457l-188 -344l20 -30l121 -9v-100h-440v98l114 17l719 1271h211l209 -1245l21 -26l118 -15v-100z" />
    <glyph glyph-name="Aacute" unicode="&#xc1;" horiz-adv-x="1298" 
d="M950 1901h252l-389 -390h-137zM700 1128l-290 -532h374zM1253 0h-538v100l125 13l22 30l-57 340h-457l-188 -344l20 -30l121 -9v-100h-440v98l114 17l719 1271h211l209 -1245l21 -26l118 -15v-100z" />
    <glyph glyph-name="Acircumflex" unicode="&#xc2;" horiz-adv-x="1298" 
d="M752 1901h178l151 -390h-157l-109 256l-205 -256h-159zM700 1128l-290 -532h374zM1253 0h-538v100l125 13l22 30l-57 340h-457l-188 -344l20 -30l121 -9v-100h-440v98l114 17l719 1271h211l209 -1245l21 -26l118 -15v-100z" />
    <glyph glyph-name="Atilde" unicode="&#xc3;" horiz-adv-x="1298" 
d="M940 1583q-80 0 -173 47t-116 47q-84 0 -100 -129h-113q18 133 80 206t140 73t170 -48t120 -48q87 0 105 129h108q-21 -133 -81 -205t-140 -72zM700 1128l-290 -532h374zM1253 0h-538v100l125 13l22 30l-57 340h-457l-188 -344l20 -30l121 -9v-100h-440v98l114 17
l719 1271h211l209 -1245l21 -26l118 -15v-100z" />
    <glyph glyph-name="Adieresis" unicode="&#xc4;" horiz-adv-x="1298" 
d="M1004 1835q53 0 92 -40t39 -95t-39 -94t-92 -39t-93 39q-39 39 -39 95t39 95q40 39 93 39zM580 1835q53 0 92 -40t39 -94t-39 -94t-92 -40t-92 39q-38 39 -38 95t38 95q39 39 92 39zM700 1128l-290 -532h374zM1253 0h-538v100l125 13l22 30l-57 340h-457l-188 -344
l20 -30l121 -9v-100h-440v98l114 17l719 1271h211l209 -1245l21 -26l118 -15v-100z" />
    <glyph glyph-name="Aring" unicode="&#xc5;" horiz-adv-x="1298" 
d="M700 1128l-288 -532h372zM1253 0h-538v100l125 13l22 30l-57 340h-457l-186 -344l18 -30l121 -9v-100h-440v98l114 17l719 1271h211l211 -1249l27 -24l110 -13v-100zM825 1882q-55 0 -94 -40t-39 -97t39 -98t93 -41t95 41q40 41 39 98q0 57 -38 97q-40 40 -95 40z
M826 1989q101 0 170 -70t69 -174t-69 -175t-170 -71t-172 72t-70 174q0 102 70 173q71 71 172 71z" />
    <glyph glyph-name="AE" unicode="&#xc6;" horiz-adv-x="1830" 
d="M991 1292l-504 -659h383zM643 1374h1190l-66 -321h-129l-4 174l-22 30h-377l-94 -489h243l33 31l47 147h117l-90 -473h-109v150l-22 28h-240l-100 -532h450l33 28l74 220h137l-74 -367h-1026v96l127 15l33 32l72 373h-447l-282 -371l8 -30l127 -17v-98h-461v98l135 27
l858 1108l-16 29l-125 14v98z" />
    <glyph glyph-name="Ccedilla" unicode="&#xc7;" horiz-adv-x="1280" 
d="M946 1274q-225 0 -371 -150q-215 -219 -215 -585q0 -209 106 -326t292 -117q57 0 116 15l39 36l95 254h137l-66 -354q-216 -73 -414 -74l-18 -90q12 2 33 2q139 0 139 -121q0 -98 -81 -166t-208 -69q-76 0 -161 22l18 97q166 -34 227 8q37 25 37 65q0 53 -82 54
q-10 0 -43 -4l39 208q-200 24 -329 154q-160 159 -160 441t192 526q111 139 280 220q170 81 356 81t399 -70l-64 -346h-135l-2 223l-21 37q-80 29 -135 29z" />
    <glyph glyph-name="Egrave" unicode="&#xc8;" horiz-adv-x="1189" 
d="M451 1901h254l122 -390h-137zM174 1374h1014l-62 -319h-131l-2 174l-22 31h-385l-92 -492h249l31 29l51 151h117l-90 -477h-111l4 154l-26 28h-248l-102 -534h462l29 28l78 220h135l-67 -367h-1051v98l133 13l29 30l207 1090l-19 33l-131 10v100z" />
    <glyph glyph-name="Eacute" unicode="&#xc9;" horiz-adv-x="1189" 
d="M897 1901h252l-389 -390h-137zM174 1374h1014l-62 -319h-131l-2 174l-22 31h-385l-92 -492h249l31 29l51 151h117l-90 -477h-111l4 154l-26 28h-248l-102 -534h462l29 28l78 220h135l-67 -367h-1051v98l133 13l29 30l207 1090l-19 33l-131 10v100z" />
    <glyph glyph-name="Ecircumflex" unicode="&#xca;" horiz-adv-x="1189" 
d="M698 1901h179l151 -390h-158l-108 256l-205 -256h-160zM174 1374h1014l-62 -319h-131l-2 174l-22 31h-385l-92 -492h249l31 29l51 151h117l-90 -477h-111l4 154l-26 28h-248l-102 -534h462l29 28l78 220h135l-67 -367h-1051v98l133 13l29 30l207 1090l-19 33l-131 10v100
z" />
    <glyph glyph-name="Edieresis" unicode="&#xcb;" horiz-adv-x="1189" 
d="M950 1835q53 0 92 -40t39 -95t-39 -94t-92 -39t-92 39t-39 95t39 95t92 39zM526 1835q53 0 92 -40t39 -94t-39 -94t-92 -40t-91 39t-38 95t38 95t91 39zM174 1374h1014l-62 -319h-131l-2 174l-22 31h-385l-92 -492h249l31 29l51 151h117l-90 -477h-111l4 154l-26 28h-248
l-102 -534h462l29 28l78 220h135l-67 -367h-1051v98l133 13l29 30l207 1090l-19 33l-131 10v100z" />
    <glyph glyph-name="Igrave" unicode="&#xcc;" horiz-adv-x="722" 
d="M217 1901h254l123 -390h-137zM178 1374h578v-98l-135 -8l-33 -29l-207 -1102l25 -28l133 -9v-100h-580v100l135 11l31 30l207 1098l-21 29l-133 8v98z" />
    <glyph glyph-name="Iacute" unicode="&#xcd;" horiz-adv-x="722" 
d="M664 1901h251l-389 -390h-137zM178 1374h578v-98l-135 -8l-33 -29l-207 -1102l25 -28l133 -9v-100h-580v100l135 11l31 30l207 1098l-21 29l-133 8v98z" />
    <glyph glyph-name="Icircumflex" unicode="&#xce;" horiz-adv-x="722" 
d="M465 1901h178l152 -390h-158l-109 256l-204 -256h-160zM178 1374h578v-98l-135 -8l-33 -29l-207 -1102l25 -28l133 -9v-100h-580v100l135 11l31 30l207 1098l-21 29l-133 8v98z" />
    <glyph glyph-name="Idieresis" unicode="&#xcf;" horiz-adv-x="722" 
d="M717 1835q53 0 92 -40t39 -95t-39 -94t-92 -39t-92 39t-39 95t39 95t92 39zM293 1835q53 0 92 -40t39 -94t-39 -94t-92 -40t-91 39t-38 95t38 95t91 39zM178 1374h578v-98l-135 -8l-33 -29l-207 -1102l25 -28l133 -9v-100h-580v100l135 11l31 30l207 1098l-21 29l-133 8
v98z" />
    <glyph glyph-name="Eth" unicode="&#xd0;" horiz-adv-x="1437" 
d="M455 117q299 0 446 200q164 220 164 561q0 170 -97 276t-274 106h-110l-88 -474h264l-25 -122h-264l-100 -547h84zM168 1374h553q311 0 471 -134t160 -388q0 -373 -254 -631q-221 -221 -637 -221h-512v100l135 11l29 30l98 523h-166l23 122h168l83 449l-20 31l-131 10v98
z" />
    <glyph glyph-name="Ntilde" unicode="&#xd1;" horiz-adv-x="1458" 
d="M1020 1583q-80 0 -173 47t-116 47q-84 0 -100 -129h-113q18 133 80 206t140 73t170 -48t120 -48q87 0 105 129h108q-21 -133 -81 -205t-140 -72zM164 1374h452v-49l420 -993l174 907l-24 27l-133 14v94h469v-96l-131 -10l-33 -27l-232 -1241h-211l-471 1110l-184 -963
l19 -34l135 -13v-100h-467v102l133 11l29 30l208 1096l-22 29l-131 10v96z" />
    <glyph glyph-name="Ograve" unicode="&#xd2;" horiz-adv-x="1492" 
d="M602 1901h254l123 -390h-137zM1124 852q0 202 -80 314t-219 112q-188 0 -326 -229t-139 -525q0 -198 84 -312t220 -114q190 0 325 226t135 528zM844 1401q256 0 412 -156t157 -409q0 -324 -188 -570q-109 -141 -259 -217t-325 -76q-254 0 -409 157t-154 413
q0 322 188 569q102 137 255 213t323 76z" />
    <glyph glyph-name="Oacute" unicode="&#xd3;" horiz-adv-x="1492" 
d="M1049 1901h251l-389 -390h-137zM1124 852q0 202 -80 314t-219 112q-188 0 -326 -229t-139 -525q0 -198 84 -312t220 -114q190 0 325 226t135 528zM844 1401q256 0 412 -156t157 -409q0 -324 -188 -570q-109 -141 -259 -217t-325 -76q-254 0 -409 157t-154 413
q0 322 188 569q102 137 255 213t323 76z" />
    <glyph glyph-name="Ocircumflex" unicode="&#xd4;" horiz-adv-x="1492" 
d="M850 1901h178l152 -390h-158l-109 256l-204 -256h-160zM1124 852q0 202 -80 314t-219 112q-188 0 -326 -229t-139 -525q0 -198 84 -312t220 -114q190 0 325 226t135 528zM844 1401q256 0 412 -156t157 -409q0 -324 -188 -570q-109 -141 -259 -217t-325 -76
q-254 0 -409 157t-154 413q0 322 188 569q102 137 255 213t323 76z" />
    <glyph glyph-name="Otilde" unicode="&#xd5;" horiz-adv-x="1492" 
d="M1038 1583q-80 0 -173 47t-115 47q-84 0 -101 -129h-112q18 133 79 206q62 73 140 73t170 -48t121 -48q86 0 104 129h109q-20 -133 -80 -205q-62 -72 -142 -72zM1124 852q0 202 -80 314t-219 112q-188 0 -326 -229t-139 -525q0 -198 84 -312t220 -114q190 0 325 226
t135 528zM844 1401q256 0 412 -156t157 -409q0 -324 -188 -570q-109 -141 -259 -217t-325 -76q-254 0 -409 157t-154 413q0 322 188 569q102 137 255 213t323 76z" />
    <glyph glyph-name="Odieresis" unicode="&#xd6;" horiz-adv-x="1492" 
d="M1102 1835q53 0 92 -40t39 -95t-39 -94t-92 -39t-92 39t-39 95t39 95t92 39zM678 1835q53 0 92 -40t39 -94t-39 -94t-92 -40t-91 39t-38 95t38 95t91 39zM1124 852q0 202 -80 314t-219 112q-188 0 -326 -229t-139 -525q0 -198 84 -312t220 -114q190 0 325 226t135 528z
M844 1401q256 0 412 -156t157 -409q0 -324 -188 -570q-109 -141 -259 -217t-325 -76q-254 0 -409 157t-154 413q0 322 188 569q102 137 255 213t323 76z" />
    <glyph glyph-name="multiply" unicode="&#xd7;" horiz-adv-x="1705" 
d="M862 729l461 459l117 -117l-459 -461l459 -458l-117 -119l-461 461l-459 -461l-116 119l458 458l-458 461l116 117z" />
    <glyph glyph-name="Oslash" unicode="&#xd8;" horiz-adv-x="1492" 
d="M664 92q190 0 332 215t143 539q-1 176 -62 280l-624 -940q86 -94 211 -94zM829 1282q-193 0 -337 -219t-144 -524q0 -137 45 -258l623 933q-78 68 -187 68zM1413 838q0 -342 -205 -592q-223 -272 -571 -273q-164 0 -287 68l-139 -207l-76 64l131 198q-190 174 -190 428
q0 356 211 611q103 127 251 195t306 69q158 0 262 -51l125 188l86 -57l-121 -183q217 -164 217 -458z" />
    <glyph glyph-name="Ugrave" unicode="&#xd9;" horiz-adv-x="1435" 
d="M573 1901h254l123 -390h-137zM156 1374h567v-96l-129 -10l-29 -25l-135 -715q-18 -102 -18 -149q0 -243 288 -243q148 0 233 88q85 89 124 286l141 719l-20 35l-136 14v96h463v-96l-131 -14l-31 -29l-139 -721q-28 -139 -60 -225t-108 -162q-154 -154 -450 -154
q-211 -1 -325 93t-114 270q0 80 21 184l137 719l-24 27l-125 10v98z" />
    <glyph glyph-name="Uacute" unicode="&#xda;" horiz-adv-x="1435" 
d="M1020 1901h252l-389 -390h-138zM156 1374h567v-96l-129 -10l-29 -25l-135 -715q-18 -102 -18 -149q0 -243 288 -243q148 0 233 88q85 89 124 286l141 719l-20 35l-136 14v96h463v-96l-131 -14l-31 -29l-139 -721q-28 -139 -60 -225t-108 -162q-154 -154 -450 -154
q-211 -1 -325 93t-114 270q0 80 21 184l137 719l-24 27l-125 10v98z" />
    <glyph glyph-name="Ucircumflex" unicode="&#xdb;" horiz-adv-x="1435" 
d="M821 1901h178l152 -390h-158l-108 256l-205 -256h-160zM156 1374h567v-96l-129 -10l-29 -25l-135 -715q-18 -102 -18 -149q0 -243 288 -243q148 0 233 88q85 89 124 286l141 719l-20 35l-136 14v96h463v-96l-131 -14l-31 -29l-139 -721q-28 -139 -60 -225t-108 -162
q-154 -154 -450 -154q-211 -1 -325 93t-114 270q0 80 21 184l137 719l-24 27l-125 10v98z" />
    <glyph glyph-name="Udieresis" unicode="&#xdc;" horiz-adv-x="1435" 
d="M1073 1835q53 0 92 -40t39 -95t-39 -94t-92 -39t-92 39t-39 95t39 95t92 39zM649 1835q53 0 92 -40t39 -94t-39 -94t-92 -40t-91 39t-38 95t38 95t91 39zM156 1374h567v-96l-129 -10l-29 -25l-135 -715q-18 -102 -18 -149q0 -243 288 -243q148 0 233 88q85 89 124 286
l141 719l-20 35l-136 14v96h463v-96l-131 -14l-31 -29l-139 -721q-28 -139 -60 -225t-108 -162q-154 -154 -450 -154q-211 -1 -325 93t-114 270q0 80 21 184l137 719l-24 27l-125 10v98z" />
    <glyph glyph-name="Yacute" unicode="&#xdd;" horiz-adv-x="1200" 
d="M901 1901h252l-389 -390h-137zM53 1374h559v-98l-127 -12l-24 -29l174 -533l379 527l-19 33l-131 12v100h479v-96l-133 -18l-20 -19l-500 -676l-80 -426l23 -26l139 -13v-100h-582v100l138 13l32 32l74 392l-233 710l-19 17l-129 12v98z" />
    <glyph glyph-name="Thorn" unicode="&#xde;" horiz-adv-x="1179" 
d="M465 369q184 0 286 103q101 103 101 292q0 233 -279 233q-33 0 -49 -2l-118 -624q20 -2 59 -2zM164 1362h565v-94l-133 -13l-27 -26l-22 -117h96q248 0 368 -83t119 -261q0 -225 -166 -371q-167 -145 -450 -145q-78 0 -131 4l-21 -115l19 -32l133 -11v-98h-567v100
l129 11l30 26l205 1086l-20 34l-127 11v94z" />
    <glyph glyph-name="germandbls" unicode="&#xdf;" horiz-adv-x="1273" 
d="M1044 932q-221 0 -221 -148q0 -42 29 -76q30 -34 68 -64t69 -53q31 -24 39 -31t52 -43t56 -64q13 -27 24 -53t11 -78q0 -145 -112 -244q-113 -98 -267 -98t-244 62q-89 62 -89 134t36 110t93 38t108 -52l-34 -137q56 -49 128 -49t116 40t44 92q0 86 -70 142
q-26 20 -113 81t-135 117t-48 130q0 119 81 201t222 102q47 143 47 233q0 172 -142 171q-142 0 -226 -132t-124 -405l-77 -532q-43 -306 -135 -454t-204 -228t-208 -80q-61 0 -105 38q-43 38 -43 95q0 88 82 125l219 -115q86 117 146 547l82 580q96 676 620 675
q158 0 248 -82t90 -223q0 -98 -53 -274q-20 2 -60 2z" />
    <glyph glyph-name="agrave" unicode="&#xe0;" horiz-adv-x="1171" 
d="M410 1520h254l122 -390h-137zM299 382q0 -232 156 -232q88 0 207 96l96 542l-82 123l-27 2q-145 0 -248 -149q-102 -150 -102 -382zM657 137v10q-174 -163 -319 -163t-223 98t-78 296t123 386q76 116 196 182t242 66t254 -51l76 49h121q-29 -88 -70 -312l-61 -331
q-18 -99 -18 -147t24 -78q26 -30 72 -30t124 23v-76q-197 -72 -309 -71q-154 0 -154 149z" />
    <glyph glyph-name="aacute" unicode="&#xe1;" horiz-adv-x="1171" 
d="M856 1520h252l-389 -390h-137zM299 382q0 -232 156 -232q88 0 207 96l96 542l-82 123l-27 2q-145 0 -248 -149q-102 -150 -102 -382zM657 137v10q-174 -163 -319 -163t-223 98t-78 296t123 386q76 116 196 182t242 66t254 -51l76 49h121q-29 -88 -70 -312l-61 -331
q-18 -99 -18 -147t24 -78q26 -30 72 -30t124 23v-76q-197 -72 -309 -71q-154 0 -154 149z" />
    <glyph glyph-name="acircumflex" unicode="&#xe2;" horiz-adv-x="1171" 
d="M657 1520h179l151 -390h-158l-108 256l-205 -256h-160zM299 382q0 -232 156 -232q88 0 207 96l96 542l-82 123l-27 2q-145 0 -248 -149q-102 -150 -102 -382zM657 137v10q-174 -163 -319 -163t-223 98t-78 296t123 386q76 116 196 182t242 66t254 -51l76 49h121
q-29 -88 -70 -312l-61 -331q-18 -99 -18 -147t24 -78q26 -30 72 -30t124 23v-76q-197 -72 -309 -71q-154 0 -154 149z" />
    <glyph glyph-name="atilde" unicode="&#xe3;" horiz-adv-x="1171" 
d="M846 1202q-80 0 -173 47t-116 47q-84 0 -100 -129h-113q18 133 80 206t139 73q78 0 170 -48t121 -48q86 0 104 129h109q-21 -133 -81 -205t-140 -72zM299 382q0 -232 156 -232q88 0 207 96l96 542l-82 123l-27 2q-145 0 -248 -149q-102 -150 -102 -382zM657 137v10
q-174 -163 -319 -163t-223 98t-78 296t123 386q76 116 196 182t242 66t254 -51l76 49h121q-29 -88 -70 -312l-61 -331q-18 -99 -18 -147t24 -78q26 -30 72 -30t124 23v-76q-197 -72 -309 -71q-154 0 -154 149z" />
    <glyph glyph-name="adieresis" unicode="&#xe4;" horiz-adv-x="1171" 
d="M909 1454q53 0 92 -40t39 -95t-39 -94t-92 -39t-92 39t-39 95t39 95t92 39zM485 1454q53 0 93 -40t38 -94q0 -54 -38 -94t-92 -40t-92 39t-38 95t38 95t91 39zM299 382q0 -232 156 -232q88 0 207 96l96 542l-82 123l-27 2q-145 0 -248 -149q-102 -150 -102 -382zM657 137
v10q-174 -163 -319 -163t-223 98t-78 296t123 386q76 116 196 182t242 66t254 -51l76 49h121q-29 -88 -70 -312l-61 -331q-18 -99 -18 -147t24 -78q26 -30 72 -30t124 23v-76q-197 -72 -309 -71q-154 0 -154 149z" />
    <glyph glyph-name="aring" unicode="&#xe5;" horiz-adv-x="1171" 
d="M670 1481q-51 0 -88 -38t-37 -92q0 -55 37 -93t89 -38t89 38t37 92t-38 92q-38 39 -89 39zM440 1351q0 97 68 165t163 67q95 1 162 -67t67 -166t-68 -165q-66 -67 -163 -67t-163 68t-66 165zM299 382q0 -232 156 -232q88 0 207 96l96 542l-82 123l-27 2q-145 0 -248 -149
q-102 -150 -102 -382zM657 137v10q-174 -163 -319 -163t-223 98t-78 296t123 386q76 116 196 182t242 66t254 -51l76 49h121q-29 -88 -70 -312l-61 -331q-18 -99 -18 -147t24 -78q26 -30 72 -30t124 23v-76q-197 -72 -309 -71q-154 0 -154 149z" />
    <glyph glyph-name="ae" unicode="&#xe6;" horiz-adv-x="1472" 
d="M1186 807q0 45 -27 73t-69 27q-80 0 -153 -95t-110 -265q166 14 263 89q96 75 96 171zM264 264q0 -123 142 -123q74 0 194 76q-18 77 -18 143t12 127q-330 -45 -330 -223zM643 776q0 54 -38 90t-90 35q-52 0 -105 -12l-39 -199h-197q-55 0 -55 37q0 111 126 197t308 86
q99 0 163 -27t109 -94q189 123 317 123t194 -60t65 -164q1 -152 -147 -240t-418 -89h-17q-2 -18 -2 -51q0 -131 56 -200t161 -69q135 0 316 146v-127q-219 -176 -423 -176t-296 157q-205 -156 -393 -155q-102 0 -165 61q-62 61 -63 160q0 162 148 253t458 128l21 106
q6 30 6 84z" />
    <glyph glyph-name="ccedilla" unicode="&#xe7;" horiz-adv-x="894" 
d="M367 -115q139 0 139 -121q0 -98 -81 -166t-208 -69q-76 0 -162 22l19 97q166 -34 227 8q37 25 37 65q0 53 -82 54q-10 0 -43 -4l43 229q-74 26 -128 87q-95 108 -95 286q0 223 135 407q76 104 199 166t237 64q114 0 174 -45t60 -115t-46 -112t-124 -44l-131 209
q-105 -31 -177 -164t-72 -293q1 -304 204 -303q143 0 315 152v-121q-219 -195 -428 -194h-26l-19 -97q12 2 33 2z" />
    <glyph glyph-name="egrave" unicode="&#xe8;" horiz-adv-x="950" 
d="M299 1520h254l123 -390h-137zM575 903q-81 0 -155 -92t-115 -260q166 8 268 81t103 167q0 47 -28 75t-73 29zM285 403q0 -129 57 -199t162 -69q139 0 321 144l-4 -125q-221 -172 -405 -172t-281 103q-96 103 -96 286q0 301 231 497q162 137 359 138q119 0 187 -60
t67 -164q-1 -147 -139 -233t-392 -86l-63 2q-4 -45 -4 -62z" />
    <glyph glyph-name="eacute" unicode="&#xe9;" horiz-adv-x="950" 
d="M745 1520h252l-389 -390h-137zM575 903q-81 0 -155 -92t-115 -260q166 8 268 81t103 167q0 47 -28 75t-73 29zM285 403q0 -129 57 -199t162 -69q139 0 321 144l-4 -125q-221 -172 -405 -172t-281 103q-96 103 -96 286q0 301 231 497q162 137 359 138q119 0 187 -60
t67 -164q-1 -147 -139 -233t-392 -86l-63 2q-4 -45 -4 -62z" />
    <glyph glyph-name="ecircumflex" unicode="&#xea;" horiz-adv-x="950" 
d="M547 1520h178l152 -390h-158l-109 256l-204 -256h-160zM575 903q-81 0 -155 -92t-115 -260q166 8 268 81t103 167q0 47 -28 75t-73 29zM285 403q0 -129 57 -199t162 -69q139 0 321 144l-4 -125q-221 -172 -405 -172t-281 103q-96 103 -96 286q0 301 231 497
q162 137 359 138q119 0 187 -60t67 -164q-1 -147 -139 -233t-392 -86l-63 2q-4 -45 -4 -62z" />
    <glyph glyph-name="edieresis" unicode="&#xeb;" horiz-adv-x="950" 
d="M799 1454q53 0 92 -40t39 -95t-39 -94t-92 -39t-92 39t-39 95t39 95t92 39zM375 1454q53 0 92 -40t39 -94t-39 -94t-92 -40t-91 39t-38 95t38 95t91 39zM575 903q-81 0 -155 -92t-115 -260q166 8 268 81t103 167q0 47 -28 75t-73 29zM285 403q0 -129 57 -199t162 -69
q139 0 321 144l-4 -125q-221 -172 -405 -172t-281 103q-96 103 -96 286q0 301 231 497q162 137 359 138q119 0 187 -60t67 -164q-1 -147 -139 -233t-392 -86l-63 2q-4 -45 -4 -62z" />
    <glyph glyph-name="igrave" unicode="&#xec;" horiz-adv-x="651" 
d="M113 1520h254l122 -390h-137zM248 -14q-150 0 -150 159q0 37 19 138l110 551l-168 26v74l351 76h90l-131 -693q-10 -57 -11 -84q0 -113 101 -112q45 0 141 29v-84q-202 -80 -352 -80z" />
    <glyph glyph-name="iacute" unicode="&#xed;" horiz-adv-x="651" 
d="M559 1520h252l-389 -390h-137zM248 -14q-150 0 -150 159q0 37 19 138l110 551l-168 26v74l351 76h90l-131 -693q-10 -57 -11 -84q0 -113 101 -112q45 0 141 29v-84q-202 -80 -352 -80z" />
    <glyph glyph-name="icircumflex" unicode="&#xee;" horiz-adv-x="651" 
d="M360 1520h179l151 -390h-158l-108 256l-205 -256h-160zM248 -14q-150 0 -150 159q0 37 19 138l110 551l-168 26v74l351 76h90l-131 -693q-10 -57 -11 -84q0 -113 101 -112q45 0 141 29v-84q-202 -80 -352 -80z" />
    <glyph glyph-name="idieresis" unicode="&#xef;" horiz-adv-x="651" 
d="M612 1454q52 0 92 -40t40 -95t-40 -94q-38 -39 -92 -39t-92 39q-39 39 -39 95t39 95t92 39zM188 1454q52 0 92 -40t40 -94t-40 -94q-38 -40 -92 -40t-91 39q-38 39 -38 95t38 95t91 39zM248 -14q-150 0 -150 159q0 37 19 138l110 551l-168 26v74l351 76h90l-131 -693
q-10 -57 -11 -84q0 -113 101 -112q45 0 141 29v-84q-202 -80 -352 -80z" />
    <glyph glyph-name="eth" unicode="&#xf0;" horiz-adv-x="1148" 
d="M653 891q-155 0 -245 -141t-91 -383q0 -281 177 -281q132 0 210 145t78 412q1 107 -32 234q-55 14 -97 14zM1036 636q0 -292 -165 -475t-425 -184q-176 0 -284 116t-109 304q0 260 185 441q154 150 380 149q19 0 109 -8q-43 111 -88 197l-270 -105l-33 86l252 96l-62 97
l-166 32l7 70l321 64l111 -177l239 93l33 -86l-221 -89q186 -329 186 -621z" />
    <glyph glyph-name="ntilde" unicode="&#xf1;" horiz-adv-x="1228" 
d="M874 1202q-80 0 -173 47t-115 47q-84 0 -101 -129h-112q17 133 79 206t140 73t170 -48t121 -48q86 0 104 129h109q-20 -133 -80 -205q-62 -72 -142 -72zM862 1010q82 0 134 -56t52 -128t-22 -179l-61 -280q-23 -109 -23 -153t25 -73t71 -29t125 23v-78q-188 -70 -309 -69
q-166 0 -166 145q0 23 17 109l73 340q18 90 18 140t-26 82q-27 32 -74 32q-96 0 -256 -136l-121 -700h-260l164 831l-170 23v68l361 88h80l-41 -203q250 203 409 203z" />
    <glyph glyph-name="ograve" unicode="&#xf2;" horiz-adv-x="1126" 
d="M387 1520h254l123 -390h-137zM584 903q-115 1 -198 -149t-83 -383q0 -287 174 -287q117 0 201 148t84 378q0 293 -178 293zM610 1010q192 0 304 -114t112 -308q0 -262 -168 -436t-403 -175q-193 0 -305 116t-111 310q0 255 169 431t402 176z" />
    <glyph glyph-name="oacute" unicode="&#xf3;" horiz-adv-x="1126" 
d="M834 1520h251l-389 -390h-137zM584 903q-115 1 -198 -149t-83 -383q0 -287 174 -287q117 0 201 148t84 378q0 293 -178 293zM610 1010q192 0 304 -114t112 -308q0 -262 -168 -436t-403 -175q-193 0 -305 116t-111 310q0 255 169 431t402 176z" />
    <glyph glyph-name="ocircumflex" unicode="&#xf4;" horiz-adv-x="1126" 
d="M635 1520h178l152 -390h-158l-109 256l-204 -256h-160zM584 903q-115 1 -198 -149t-83 -383q0 -287 174 -287q117 0 201 148t84 378q0 293 -178 293zM610 1010q192 0 304 -114t112 -308q0 -262 -168 -436t-403 -175q-193 0 -305 116t-111 310q0 255 169 431t402 176z" />
    <glyph glyph-name="otilde" unicode="&#xf5;" horiz-adv-x="1126" 
d="M824 1202q-80 0 -174 47q-93 47 -115 47q-84 0 -101 -129h-112q18 133 79 206t139 73t171 -48q92 -48 120 -48q87 0 105 129h108q-20 -133 -80 -205t-140 -72zM584 903q-115 1 -198 -149t-83 -383q0 -287 174 -287q117 0 201 148t84 378q0 293 -178 293zM610 1010
q192 0 304 -114t112 -308q0 -262 -168 -436t-403 -175q-193 0 -305 116t-111 310q0 255 169 431t402 176z" />
    <glyph glyph-name="odieresis" unicode="&#xf6;" horiz-adv-x="1126" 
d="M887 1454q53 0 92 -40t39 -95t-39 -94t-92 -39t-92 39t-39 95t39 95t92 39zM463 1454q53 0 92 -40t39 -94t-39 -94t-92 -40t-91 39t-38 95t38 95t91 39zM584 903q-115 1 -198 -149t-83 -383q0 -287 174 -287q117 0 201 148t84 378q0 293 -178 293zM610 1010
q192 0 304 -114t112 -308q0 -262 -168 -436t-403 -175q-193 0 -305 116t-111 310q0 255 169 431t402 176z" />
    <glyph glyph-name="divide" unicode="&#xf7;" horiz-adv-x="1705" 
d="M717 229q0 57 41 97t97 41q56 0 96 -40q40 -41 40 -97t-40 -96t-97 -40t-97 39t-40 96zM1452 694v-166h-1198v166h1198zM855 1128q56 0 96 -41t40 -97t-40 -96t-97 -40t-97 39t-40 96t41 98t97 41z" />
    <glyph glyph-name="oslash" unicode="&#xf8;" horiz-adv-x="1126" 
d="M479 80q125 0 211 145t86 377q1 107 -22 164l-394 -637q41 -49 119 -49zM590 907q-125 0 -213 -144t-88 -368q0 -104 24 -184l398 645q-49 51 -121 51zM1026 578q0 -252 -182 -439q-158 -162 -387 -162q-94 0 -166 27l-113 -180l-74 49l103 170q-168 125 -168 371
t182 434q158 162 400 162q94 0 159 -29l111 180l76 -51l-105 -170q164 -110 164 -362z" />
    <glyph glyph-name="ugrave" unicode="&#xf9;" horiz-adv-x="1226" 
d="M438 1520h254l123 -390h-137zM948 214q0 -44 25 -73t73 -29t125 23v-76q-227 -78 -321 -77q-154 0 -154 157v19q-236 -178 -377 -178q-100 0 -155 55t-55 155q0 47 12 111l100 533l-164 24v64l355 75h77l-118 -612q-16 -88 -17 -121q0 -111 109 -110q96 0 246 98l139 721
l244 28l-121 -634q-23 -109 -23 -153z" />
    <glyph glyph-name="uacute" unicode="&#xfa;" horiz-adv-x="1226" 
d="M885 1520h252l-389 -390h-138zM948 214q0 -44 25 -73t73 -29t125 23v-76q-227 -78 -321 -77q-154 0 -154 157v19q-236 -178 -377 -178q-100 0 -155 55t-55 155q0 47 12 111l100 533l-164 24v64l355 75h77l-118 -612q-16 -88 -17 -121q0 -111 109 -110q96 0 246 98
l139 721l244 28l-121 -634q-23 -109 -23 -153z" />
    <glyph glyph-name="ucircumflex" unicode="&#xfb;" horiz-adv-x="1226" 
d="M686 1520h178l152 -390h-158l-108 256l-205 -256h-160zM948 214q0 -44 25 -73t73 -29t125 23v-76q-227 -78 -321 -77q-154 0 -154 157v19q-236 -178 -377 -178q-100 0 -155 55t-55 155q0 47 12 111l100 533l-164 24v64l355 75h77l-118 -612q-16 -88 -17 -121
q0 -111 109 -110q96 0 246 98l139 721l244 28l-121 -634q-23 -109 -23 -153z" />
    <glyph glyph-name="udieresis" unicode="&#xfc;" horiz-adv-x="1226" 
d="M938 1454q53 0 92 -40t39 -95t-39 -94t-92 -39t-92 39t-39 95t39 95t92 39zM514 1454q53 0 92 -40t39 -94t-39 -94t-92 -40t-91 39t-38 95t38 95t91 39zM948 214q0 -44 25 -73t73 -29t125 23v-76q-227 -78 -321 -77q-154 0 -154 157v19q-236 -178 -377 -178
q-100 0 -155 55t-55 155q0 47 12 111l100 533l-164 24v64l355 75h77l-118 -612q-16 -88 -17 -121q0 -111 109 -110q96 0 246 98l139 721l244 28l-121 -634q-23 -109 -23 -153z" />
    <glyph glyph-name="yacute" unicode="&#xfd;" horiz-adv-x="1011" 
d="M776 1520h252l-389 -390h-137zM12 -442q-72 0 -122 47t-50 105t32 95t87 48l137 -129q139 12 305 329h-77l-123 649q-14 84 -51 154l-179 16v68l316 72q63 -12 97 -86t58 -230l70 -446q170 424 313 760h64l162 -54v-55l-121 -67q-90 -121 -215 -404t-185 -387
q-270 -485 -518 -485z" />
    <glyph glyph-name="thorn" unicode="&#xfe;" horiz-adv-x="1157" 
d="M807 627q0 111 -43 171t-122 60t-198 -88l-112 -627q72 -35 141 -34q137 0 236 147q98 147 98 371zM1063 653q0 -289 -186 -483q-166 -176 -404 -176q-74 0 -160 33l-61 -357l190 -37v-79h-571v81l125 33l18 27l289 1642l-178 23v67l360 80h88q-10 -52 -23 -125
q-13 -74 -18 -100l-73 -412q172 141 329 142q123 0 199 -96t76 -263z" />
    <glyph glyph-name="ydieresis" unicode="&#xff;" horiz-adv-x="1011" 
d="M829 1454q53 0 93 -40t39 -95q0 -55 -39 -94q-38 -39 -92 -39t-93 39t-39 95t39 95t92 39zM406 1454q53 0 92 -40t39 -94t-39 -94t-92 -40t-92 39q-38 39 -38 95t38 95q39 39 92 39zM12 -442q-72 0 -122 47t-50 105t32 95t87 48l137 -129q139 12 305 329h-77l-123 649
q-14 84 -51 154l-179 16v68l316 72q63 -12 97 -86t58 -230l70 -446q170 424 313 760h64l162 -54v-55l-121 -67q-90 -121 -215 -404t-185 -387q-270 -485 -518 -485z" />
    <glyph glyph-name="dotlessi" unicode="&#x131;" horiz-adv-x="651" 
d="M248 -14q-150 0 -150 159q0 37 19 138l110 551l-168 26v74l351 76h90l-131 -693q-10 -57 -11 -84q0 -113 101 -112q45 0 141 29v-84q-202 -80 -352 -80z" />
    <glyph glyph-name="Lslash" unicode="&#x141;" horiz-adv-x="1083" 
d="M166 1374h571v-98l-129 -10l-35 -27l-67 -358l201 112l53 -98l-279 -154l-116 -622h370l37 28l80 256h147l-77 -403h-973v98l127 13l33 26l84 451l-134 -76l-45 100l205 117l96 510l-20 29l-129 10v96z" />
    <glyph glyph-name="lslash" unicode="&#x142;" horiz-adv-x="628" 
d="M78 166q0 47 8 90l70 381l-148 -82l-41 92l211 113l113 577l-178 23v67l360 80h90q-10 -63 -39 -211l-75 -395l184 96l45 -90l-254 -133l-78 -407q-22 -113 -22 -155t24 -71q45 -56 225 2v-80q-229 -82 -329 -81q-166 0 -166 184z" />
    <glyph glyph-name="OE" unicode="&#x152;" horiz-adv-x="2054" 
d="M78 504q0 230 76 414t217 311q188 170 439 170t372 -219l35 194h827l-64 -319h-131l-2 174l-24 26h-375l-92 -487h237l37 29l47 149h117l-90 -473h-111l2 152l-26 26h-236l-100 -532h450l29 28l80 222h135l-72 -369h-892l26 150q-188 -174 -409 -174t-362 149
q-140 150 -140 379zM1114 856q0 196 -80 304t-213 108q-184 0 -321 -228t-138 -518q0 -194 81 -304t214 -109q185 0 321 224t136 523z" />
    <glyph glyph-name="oe" unicode="&#x153;" horiz-adv-x="1628" 
d="M1339 807q0 45 -25 72q-26 27 -69 26q-83 0 -155 -93t-109 -263q164 12 261 87t97 171zM1315 1010q109 0 175 -62t64 -160q0 -150 -143 -238t-399 -87h-39q-2 -18 -2 -53q0 -129 57 -201t158 -72q139 0 319 150v-127q-223 -180 -425 -180t-279 151q-154 -152 -379 -151
q-170 0 -276 114q-105 115 -105 299q0 271 169 445t390 174t330 -168q176 166 385 166zM588 905q-119 1 -201 -149t-82 -385q0 -137 45 -210t125 -73q111 0 193 152t82 381q0 137 -43 211t-119 73z" />
    <glyph glyph-name="Scaron" unicode="&#x160;" horiz-adv-x="1132" 
d="M444 1898h158l107 -256l206 256h158l-299 -389h-180zM454 119q110 -1 191 69q80 70 80 177q0 122 -182 219q-95 51 -129 71q-125 76 -178 144t-54 174q0 186 146 306t383 120q154 0 331 -56l-55 -346h-123l4 226l-16 20q-63 35 -143 35q-123 0 -203 -67t-80 -151t52 -131
q52 -48 121 -86t71 -40t14 -8q166 -96 232 -164t65 -191q0 -190 -154 -322t-377 -132t-403 106l55 332h136l-2 -244l14 -20q94 -41 204 -41z" />
    <glyph glyph-name="scaron" unicode="&#x161;" horiz-adv-x="825" 
d="M260 1518h158l106 -256l207 256h158l-299 -390h-180zM314 76q68 0 110 42q43 42 43 93t-9 69q-32 67 -101 110q-7 4 -29 20q-133 92 -181 147q-47 55 -47 125q0 137 116 232t290 96q111 0 173 -41t62 -103t-39 -98q-39 -35 -106 -37l-96 184q-29 4 -41 5q-66 0 -108 -34
t-42 -80t38 -85q39 -39 113 -93t105 -80q89 -70 112 -138q13 -39 13 -91q0 -139 -116 -238t-271 -99t-242 61q-86 61 -86 152q0 57 35 92q36 35 94 35t109 -48l-37 -149q70 -49 138 -49z" />
    <glyph glyph-name="Ydieresis" unicode="&#x178;" horiz-adv-x="1200" 
d="M954 1835q52 0 92 -40t40 -95t-40 -94q-38 -39 -92 -39t-92 39q-39 39 -39 95t39 95t92 39zM530 1835q52 0 92 -40t40 -94t-39 -94t-93 -40t-91 39q-38 39 -38 95t38 95t91 39zM53 1374h559v-98l-127 -12l-24 -29l174 -533l379 527l-19 33l-131 12v100h479v-96l-133 -18
l-20 -19l-500 -676l-80 -426l23 -26l139 -13v-100h-582v100l138 13l32 32l74 392l-233 710l-19 17l-129 12v98z" />
    <glyph glyph-name="Zcaron" unicode="&#x17d;" horiz-adv-x="1171" 
d="M463 1898h158l106 -256l207 256h158l-299 -389h-181zM242 1374h946l-6 -100l-893 -1153h493l33 29l78 251h145l-75 -401h-998l6 102l891 1151h-436l-37 -20l-70 -223h-147z" />
    <glyph glyph-name="zcaron" unicode="&#x17e;" horiz-adv-x="952" 
d="M324 1518h157l107 -256l207 256h157l-299 -390h-180zM634 184q73 0 128 52l-131 147q43 90 119 90q49 0 84 -40t34 -101q0 -115 -95 -226t-232 -110q-68 0 -182 42q-115 42 -149 42t-58 -6l-50 -103l-143 84l670 721l-178 -37q-109 76 -177 76t-112 -45l119 -137
q-47 -86 -123 -86q-47 0 -75 36q-28 35 -28 101t54 156q104 174 262 174q75 0 148 -37t109 -53t72 -15q35 0 45 2l48 117l151 -94l-678 -713l178 49q117 -86 190 -86z" />
    <glyph glyph-name="florin" unicode="&#x192;" horiz-adv-x="1200" 
d="M41 -303q-76 0 -123 35t-47 85t37 95t102 74l176 -174q70 55 108 150t66 253l76 418h-225l12 123h230l28 147q49 256 252 395q145 100 293 101q78 0 125 -38t47 -97q0 -104 -156 -172l-153 194q-63 -47 -95 -125t-57 -213l-32 -192h313l-12 -123h-322q-36 -287 -104 -474
t-187 -300q-172 -162 -352 -162z" />
    <glyph glyph-name="circumflex" unicode="&#x2c6;" 
d="M584 1520h178l151 -390h-157l-109 256l-205 -256h-159z" />
    <glyph glyph-name="caron" unicode="&#x2c7;" 
d="M358 1518h158l107 -256l206 256h158l-299 -390h-180z" />
    <glyph glyph-name="breve" unicode="&#x2d8;" 
d="M455 1417q0 -61 41 -86q42 -25 146 -25t157 36q53 34 73 128l105 3q-29 -166 -116 -239t-239 -73t-216 48q-63 48 -64 157q0 35 10 107l105 -3q-2 -29 -2 -53z" />
    <glyph glyph-name="dotaccent" unicode="&#x2d9;" 
d="M621 1460q55 0 95 -42t40 -99t-40 -98t-95 -41t-96 41q-40 41 -40 98t40 99q41 42 96 42z" />
    <glyph glyph-name="ring" unicode="&#x2da;" 
d="M642 1493q-54 0 -92 -37t-38 -91t38 -93t91 -39t92 39t39 92t-38 91t-92 38zM641 1595q98 -1 166 -67q67 -66 67 -163t-68 -166t-164 -69q-97 0 -165 69q-67 69 -67 166t66 164q67 66 165 66z" />
    <glyph glyph-name="ogonek" unicode="&#x2db;" 
d="M336 -242q0 -31 26 -50t58 -19q33 0 76 6l-27 -139q-57 -14 -131 -14t-121 35q-47 36 -47 97q0 174 199 326h110q-143 -113 -143 -242z" />
    <glyph glyph-name="tilde" unicode="&#x2dc;" 
d="M772 1202q-80 0 -173 47t-116 47q-84 0 -100 -129h-113q18 133 80 206t140 73t170 -48t120 -48q87 0 105 129h108q-21 -133 -81 -205t-140 -72z" />
    <glyph glyph-name="hungarumlaut" unicode="&#x2dd;" 
d="M922 1520h260l-467 -390h-137zM582 1520h229l-383 -390h-121z" />
    <glyph glyph-name="endash" unicode="&#x2013;" 
d="M-18 586h1038l-35 -185h-1036z" />
    <glyph glyph-name="emdash" unicode="&#x2014;" horiz-adv-x="2048" 
d="M2048 586l-29 -185h-2064l35 185h2058z" />
    <glyph glyph-name="quoteleft" unicode="&#x2018;" horiz-adv-x="534" 
d="M308 809q-72 0 -112 43t-40 119q0 131 102 258q103 127 285 201l32 -60q-233 -129 -245 -315h123q23 -35 22 -76q0 -72 -48 -121t-119 -49z" />
    <glyph glyph-name="quoteright" unicode="&#x2019;" horiz-adv-x="534" 
d="M231 1257q1 72 49 122q48 51 118 51t111 -44q40 -44 40 -118q-1 -131 -103 -259t-282 -200l-33 61q236 131 246 314h-123q-23 35 -23 73z" />
    <glyph glyph-name="quotesinglbase" unicode="&#x201a;" horiz-adv-x="534" 
d="M157 264q71 0 111 -43t41 -117q0 -133 -102 -260q-103 -126 -283 -200l-35 61q233 129 246 315h-123q-23 35 -22 74q0 72 48 121t119 49z" />
    <glyph glyph-name="quotedblleft" unicode="&#x201c;" horiz-adv-x="985" 
d="M932 981q0 -70 -49 -121t-120 -51t-112 44t-41 118q0 131 102 258t285 201l33 -62q-236 -133 -246 -313h125q23 -39 23 -74zM310 809q-70 0 -110 44t-40 120q0 129 103 256q104 127 284 201l31 -62q-238 -129 -246 -313h125q23 -35 22 -74q0 -72 -49 -122t-120 -50z" />
    <glyph glyph-name="quotedblright" unicode="&#x201d;" horiz-adv-x="985" 
d="M1004 1268q0 -131 -103 -258t-285 -201l-32 61q236 129 245 314h-124q-21 32 -21 90t48 106t119 50q71 0 112 -44t41 -118zM231 1260q1 70 49 120t118 50t112 -44q41 -44 41 -118q-1 -131 -103 -258t-284 -201l-33 61q236 129 246 314h-123q-23 39 -23 76z" />
    <glyph glyph-name="quotedblbase" unicode="&#x201e;" horiz-adv-x="985" 
d="M616 264q70 0 111 -43t41 -117q0 -131 -103 -260q-104 -128 -284 -200l-33 61q238 133 246 315h-123q-23 28 -23 86t49 108t119 50zM163 264q71 0 111 -43t41 -117q0 -131 -103 -259q-104 -127 -284 -201l-32 61q233 129 245 315h-123q-23 35 -22 74q0 72 48 121t119 49z
" />
    <glyph glyph-name="dagger" unicode="&#x2020;" 
d="M543 940h35l43 -338l-273 -866h-37l60 866zM915 1102l129 -113l-167 -112l-275 88l6 39zM256 1102l279 -98l-9 -39l-309 -88l-125 112zM659 1470l86 -155l-151 -287h-35l-43 287z" />
    <glyph glyph-name="daggerdbl" unicode="&#x2021;" 
d="M401 172h33l37 -287l-139 -155l-78 155zM772 326l131 -109l-170 -111l-274 87l8 36zM113 326l278 -97l-6 -36l-311 -87l-125 111zM547 942h31l47 -340l-176 -342h-31l-53 342zM915 1100l129 -111l-167 -108l-275 84l6 39zM256 1100l279 -96l-9 -39l-309 -84l-125 108z
M662 1470l81 -155l-147 -287h-33l-39 287z" />
    <glyph glyph-name="bullet" unicode="&#x2022;" horiz-adv-x="1208" 
d="M307 762q0 123 87 209t209 86t209 -86t87 -208t-87 -210t-210 -88t-209 87t-86 210z" />
    <glyph glyph-name="ellipsis" unicode="&#x2026;" horiz-adv-x="2048" 
d="M1610 305q64 0 108 -46t45 -114q0 -69 -45 -113t-109 -44t-111 46q-46 46 -46 112t46 112q48 47 112 47zM926 305q64 0 108 -46t45 -114q0 -69 -45 -113t-109 -44t-111 46q-46 46 -46 112t46 112q48 47 112 47zM244 305q64 0 108 -46t45 -114q0 -69 -45 -113t-109 -44
t-111 46q-46 46 -46 112t46 112q48 47 112 47z" />
    <glyph glyph-name="perthousand" unicode="&#x2030;" horiz-adv-x="2643" 
d="M2247 743q-88 0 -148 -141q-69 -168 -69 -351t96 -183q88 0 149 141q72 172 72 353t-100 181zM1436 743q-88 0 -148 -141q-72 -172 -72 -354t97 -180q89 0 155 150t66 357q0 168 -98 168zM2269 834q129 0 203 -81t74 -221q0 -242 -124 -400t-308 -157q-127 0 -202 79
t-75 208q0 254 123 413t309 159zM1456 834q129 0 203 -80t74 -219q0 -244 -124 -402t-306 -158q-127 0 -202 80t-75 209q0 254 122 412t308 158zM522 1307q-88 0 -154 -154t-65 -354q0 -168 100 -168q82 0 150 146t68 362q-1 168 -99 168zM1395 1374h155l-1104 -1374h-155z
M543 1399q127 0 201 -79t75 -208q0 -256 -122 -415t-308 -158q-125 1 -201 79t-75 207q0 256 121 415q123 159 309 159z" />
    <glyph glyph-name="guilsinglleft" unicode="&#x2039;" horiz-adv-x="544" 
d="M465 870l-31 -170l-264 -208l186 -209l-30 -170l-306 293l33 172z" />
    <glyph glyph-name="guilsinglright" unicode="&#x203a;" horiz-adv-x="544" 
d="M113 870l305 -292l-33 -172l-412 -293l31 170l264 209l-186 208z" />
    <glyph glyph-name="fraction" unicode="&#x2044;" horiz-adv-x="342" 
d="M580 1374h143l-969 -1374h-143z" />
    <glyph glyph-name="trademark" unicode="&#x2122;" horiz-adv-x="1673" 
d="M768 1356h233v-27l125 -350l125 350v27h232v-51l-68 -13v-413l68 -13v-49h-240v49l60 13v415l-175 -477h-61l-170 477v-415l64 -13v-49h-193v49l66 13v413l-66 13v51zM233 1356h480v-152h-60l-16 90l-14 11h-93v-424l74 -15v-49h-264v49l74 13v426h-90l-17 -11l-12 -90
h-62v152z" />
    <glyph glyph-name="minus" unicode="&#x2212;" horiz-adv-x="1705" 
d="M1452 696v-170h-1198v170h1198z" />
    <glyph glyph-name="fi" unicode="&#xfb01;" horiz-adv-x="1271" 
d="M985 233q0 -113 100 -112q45 0 142 29v-84q-201 -80 -351 -80t-151 159q0 41 18 138l111 555l-410 2l-75 -539q-43 -289 -139 -439t-200 -226q-105 -75 -202 -74q-61 0 -102 37t-41 90q0 90 84 129l219 -117q76 104 133 508l88 627l-135 -17v90l159 70q41 238 181 381
t307 143q84 0 134 -38t50 -95q1 -92 -108 -137l-183 172q-92 -111 -153 -449h381l194 54h90l-131 -693q-10 -51 -10 -84zM940 1331q0 59 43 103t103 43q60 0 96 -36t35 -95q0 -60 -42 -102q-41 -42 -101 -42t-97 35t-37 94z" />
    <glyph glyph-name="fl" unicode="&#xfb02;" horiz-adv-x="1288" 
d="M985 215q0 -104 100 -104q43 0 148 32v-80q-207 -82 -313 -81q-184 0 -185 184q0 51 29 201l186 964l-78 6l-92 -98l-166 166q-94 -115 -155 -449h262v-118h-277l-75 -537q-41 -287 -137 -439t-203 -226q-106 -75 -203 -74q-61 0 -101 37t-40 90q0 92 82 129l219 -117
q76 104 133 508l90 627l-135 -17v90l159 70q41 238 181 380t309 142q113 0 164 -61l246 67h88q-23 -119 -23 -121l-190 -1003q-23 -123 -23 -168z" />
  </font>
</defs>
</svg>
